{
.appVersion = "913";
copyright = "Nunito Font, Copyright (c) 2014, Vernon Adams (vern@newtypography.co.uk)";
customParameters = (
{
name = license;
value = "This Font Software is licensed under the SIL Open Font License, Version 1.1. This license is available with a FAQ at: http://scripts.sil.org/OFL";
},
{
name = licenseURL;
value = "http://scripts.sil.org/OFL";
},
{
name = vendorID;
value = NeWT;
},
{
name = trademark;
value = "Nunito is a trademark of Vernon Adams and may be registered in certain jurisdictions.";
},
{
name = fsType;
value = 0;
},
{
name = "Use Typo Metrics";
value = 1;
}
);
date = "2016-08-09 21:08:05 +0000";
designer = "Vernon Adams";
designerURL = "http://newtypography.co.uk";
familyName = Nunito;
featurePrefixes = (
{
automatic = 1;

glyphs = (
{
glyphname = A;
lastChange = "2016-08-18 08:57:36 +0000";
layers = (
{
layerId = "9E718F8A-2CEA-4931-B05D-987794BD97DA";
paths = (
{
closed = 1;
nodes = (
"370 666 LINE",
"342 666 LINE",
"630 12 LINE SMOOTH",
"644 -20 OFFCURVE",
"692 -2 OFFCURVE",
"679 28 CURVE SMOOTH",
"386 691 LINE SMOOTH",
"376 716 OFFCURVE",
"337 718 OFFCURVE",
"326 691 CURVE SMOOTH",
"33 28 LINE SMOOTH",
"20 -2 OFFCURVE",
"68 -20 OFFCURVE",
"82 12 CURVE SMOOTH"
);
},
{
closed = 1;
nodes = (
"563 191 LINE",
"546 239 LINE",
"168 239 LINE",
"152 191 LINE"
);
}
);
width = 712;
},
{
layerId = "E1B555A7-F4E1-459C-9C1A-AE952106EEF9";
paths = (
{
closed = 1;
nodes = (
"395 571 LINE",
"361 571 LINE",
"599 39 LINE SMOOTH",
"639 -48 OFFCURVE",
"771 11 OFFCURVE",
"729 98 CURVE SMOOTH",
"460 661 LINE SMOOTH",
"428 727 OFFCURVE",
"325 729 OFFCURVE",
"293 661 CURVE SMOOTH",
"24 98 LINE SMOOTH",
"-18 11 OFFCURVE",
"116 -48 OFFCURVE",
"156 39 CURVE SMOOTH"
);
},
{
closed = 1;
nodes = (
"609 154 LINE",
"548 276 LINE",
"196 276 LINE",
"135 154 LINE"
);
}
);
width = 753;
}
);
unicode = 0041;
userData = {
anchors = (
);
b = {
};
com.typemytype.robofont.layerData = {
b = {
anchors = (
);
components = (
);
contours = (
{
points = (
{
segmentType = line;
smooth = 0;
x = 403;
y = 502;
},
{
segmentType = line;
smooth = 0;
x = 703;
y = 1275;
},
{
segmentType = line;
smooth = 0;
x = 705;
y = 1275;
},
{
segmentType = line;
smooth = 0;
x = 1004;
y = 502;
}
);
},
{
points = (
{
segmentType = curve;
smooth = 1;
x = 150;
y = 0;
},
{
smooth = 0;
x = 181;
y = 0;
},
{
smooth = 0;
x = 214;
y = 15;
},
{
segmentType = curve;
smooth = 1;
x = 229;
y = 53;
},
{
segmentType = line;
smooth = 0;
x = 356;
y = 373;
},
{
segmentType = line;
smooth = 0;
x = 1051;
y = 373;
},
{
segmentType = line;
smooth = 1;
x = 1179;
y = 53;
},
{
smooth = 0;
x = 1193;
y = 17;
},
{
smooth = 0;
x = 1228;
y = 0;
},
{
segmentType = curve;
smooth = 1;
x = 1260;
y = 0;
},
{
smooth = 0;
x = 1306;
y = 0;
},
{
smooth = 0;
x = 1354;
y = 31;
},
{
segmentType = curve;
smooth = 1;
x = 1354;
y = 80;
},
{
smooth = 0;
x = 1354;
y = 87;
},
{
smooth = 0;
x = 1352;
y = 97;
},
{
segmentType = curve;
smooth = 0;
x = 1349;
y = 108;
},
{
segmentType = line;
smooth = 1;
x = 871;
y = 1288;
},
{
smooth = 0;
x = 817;
y = 1420;
},
{
smooth = 0;
x = 777;
y = 1430;
},
{
segmentType = curve;
smooth = 1;
x = 710;
y = 1430;
},
{
smooth = 0;
x = 644;
y = 1430;
},
{
smooth = 0;
x = 596;
y = 1413;
},
{
segmentType = curve;
smooth = 1;
x = 542;
y = 1280;
},
{
segmentType = line;
smooth = 1;
x = 66;
y = 108;
},
{
smooth = 0;
x = 62;
y = 97;
},
{
smooth = 0;
x = 60;
y = 87;
},
{
segmentType = curve;
smooth = 1;
x = 60;
y = 78;
},
{
smooth = 0;
x = 60;
y = 32;
},
{
smooth = 0;
x = 106;
y = 0;
}
);
}
);
lib = {
};
name = A;
unicodes = (
);
width = 1414;
};
};
components = (
);
contours = {
};
lib = {
};
name = A;
points = {
};
segmentType = line;
unicodes = (
);
width = 1445;
x = 718;
y = 1232;
};
},
{
glyphname = AE;
lastChange = "2016-08-19 14:27:39 +0000";
layers = (
{
layerId = "9E718F8A-2CEA-4931-B05D-987794BD97DA";
paths = (
{
closed = 1;
nodes = (
"921 0 LINE SMOOTH",
"935 0 OFFCURVE",
"945 10 OFFCURVE",
"945 25 CURVE SMOOTH",
"945 41 OFFCURVE",
"935 51 OFFCURVE",
"921 51 CURVE SMOOTH",
"622 51 LINE",
"488 682 LINE",
"481 654 LINE",
"921 654 LINE SMOOTH",
"935 654 OFFCURVE",
"945 664 OFFCURVE",
"945 680 CURVE SMOOTH",
"945 695 OFFCURVE",
"935 705 OFFCURVE",
"921 705 CURVE SMOOTH",
"461 705 LINE SMOOTH",
"449 705 OFFCURVE",
"437 703 OFFCURVE",
"429 691 CURVE SMOOTH",
"25 28 LINE SMOOTH",
"6 -3 OFFCURVE",
"54 -21 OFFCURVE",
"73 12 CURVE SMOOTH",
"469 665 LINE",
"443 665 LINE",
"577 30 LINE SMOOTH",
"581 14 OFFCURVE",
"590 0 OFFCURVE",
"607 0 CURVE SMOOTH"
);
},
{
closed = 1;
nodes = (
"565 191 LINE",
"546 239 LINE",
"168 239 LINE",
"152 191 LINE"
);
},
{
closed = 1;
nodes = (
"901 333 LINE SMOOTH",
"915 333 OFFCURVE",
"925 343 OFFCURVE",
"925 358 CURVE SMOOTH",
"925 373 OFFCURVE",
"915 383 OFFCURVE",
"901 383 CURVE SMOOTH",
"544 383 LINE",
"544 333 LINE"
);
}
);
width = 1005;
},
{
layerId = "E1B555A7-F4E1-459C-9C1A-AE952106EEF9";
paths = (
{
closed = 1;
nodes = (
"900 0 LINE SMOOTH",
"953 0 OFFCURVE",
"976 23 OFFCURVE",
"976 61 CURVE SMOOTH",
"976 100 OFFCURVE",
"953 123 OFFCURVE",
"900 123 CURVE SMOOTH",
"677 123 LINE",
"566 617 LINE",
"535 582 LINE",
"900 582 LINE SMOOTH",
"953 582 OFFCURVE",
"976 606 OFFCURVE",
"976 644 CURVE SMOOTH",
"976 682 OFFCURVE",
"953 705 OFFCURVE",
"900 705 CURVE SMOOTH",
"469 705 LINE SMOOTH",
"435 705 OFFCURVE",
"399 691 OFFCURVE",
"379 661 CURVE SMOOTH",
"14 98 LINE SMOOTH",
"-45 9 OFFCURVE",
"89 -51 OFFCURVE",
"145 39 CURVE SMOOTH",
"476 571 LINE",
"433 571 LINE",
"549 45 LINE SMOOTH",
"556 16 OFFCURVE",
"584 0 OFFCURVE",
"620 0 CURVE SMOOTH"
);
},
{
closed = 1;
nodes = (
"582 154 LINE",
"546 276 LINE",
"194 276 LINE",
"132 154 LINE"
);
},
{
closed = 1;
nodes = (
"880 295 LINE SMOOTH",
"933 295 OFFCURVE",
"956 318 OFFCURVE",
"956 356 CURVE SMOOTH",
"956 395 OFFCURVE",
"933 418 OFFCURVE",
"880 418 CURVE SMOOTH",
"563 418 LINE",
"563 295 LINE"
);
}
);
width = 1009;
}
);
leftMetricsKey = "=A-10";
rightMetricsKey = E;
unicode = 00C6;
userData = {
com.typemytype.robofont.layerData = {
b = {
anchors = (
);
components = (
);
contours = (
);
lib = {
};
name = AE;
unicodes = (
);
width = 1976;
};
};
};
},
{
glyphname = B;
lastChange = "2016-08-18 08:57:36 +0000";
layers = (
{
background = {
paths = (
{
closed = 1;
nodes = (
"365 0 LINE SMOOTH",
"500 0 OFFCURVE",
"595 61 OFFCURVE",
"595 191 CURVE SMOOTH",
"595 291 OFFCURVE",
"538 349 OFFCURVE",
"456 364 CURVE",
"456 356 LINE",
"523 376 OFFCURVE",
"579 426 OFFCURVE",
"579 520 CURVE SMOOTH",
"579 643 OFFCURVE",
"484 705 OFFCURVE",
"348 705 CURVE SMOOTH",
"117 705 LINE SMOOTH",
"100 705 OFFCURVE",
"87 693 OFFCURVE",
"87 677 CURVE SMOOTH",
"87 28 LINE SMOOTH",
"87 13 OFFCURVE",
"100 0 OFFCURVE",
"117 0 CURVE SMOOTH"
);
},
{
closed = 1;
nodes = (
"142 333 LINE",
"362 333 LINE SMOOTH",
"469 333 OFFCURVE",
"539 293 OFFCURVE",
"539 190 CURVE SMOOTH",
"539 86 OFFCURVE",
"469 51 OFFCURVE",
"362 51 CURVE SMOOTH",
"142 51 LINE"
);
},
{
closed = 1;
nodes = (
"142 654 LINE",
"347 654 LINE SMOOTH",
"453 654 OFFCURVE",
"523 619 OFFCURVE",
"523 522 CURVE SMOOTH",
"523 423 OFFCURVE",
"453 383 OFFCURVE",
"347 383 CURVE SMOOTH",
"142 383 LINE"
);
}
);
};
layerId = "9E718F8A-2CEA-4931-B05D-987794BD97DA";
paths = (
{
closed = 1;
nodes = (
"365 0 LINE SMOOTH",
"500 0 OFFCURVE",
"595 61 OFFCURVE",
"595 191 CURVE SMOOTH",
"595 291 OFFCURVE",
"538 349 OFFCURVE",
"456 364 CURVE",
"456 356 LINE",
"523 376 OFFCURVE",
"579 426 OFFCURVE",
"579 520 CURVE SMOOTH",
"579 643 OFFCURVE",
"484 705 OFFCURVE",
"348 705 CURVE SMOOTH",
"117 705 LINE SMOOTH",
"100 705 OFFCURVE",
"87 693 OFFCURVE",
"87 677 CURVE SMOOTH",
"87 28 LINE SMOOTH",
"87 13 OFFCURVE",
"100 0 OFFCURVE",
"117 0 CURVE SMOOTH"
);
},
{
closed = 1;
nodes = (
"141 333 LINE",
"362 333 LINE SMOOTH",
"469 333 OFFCURVE",
"539 293 OFFCURVE",
"539 190 CURVE SMOOTH",
"539 86 OFFCURVE",
"469 50 OFFCURVE",
"362 50 CURVE SMOOTH",
"141 50 LINE"
);
},
{
closed = 1;
nodes = (
"141 655 LINE",
"347 655 LINE SMOOTH",
"453 655 OFFCURVE",
"523 619 OFFCURVE",
"523 522 CURVE SMOOTH",
"523 423 OFFCURVE",
"453 383 OFFCURVE",
"347 383 CURVE SMOOTH",
"141 383 LINE"
);
}
);
width = 663;
},
{
layerId = "E1B555A7-F4E1-459C-9C1A-AE952106EEF9";
paths = (
{
closed = 1;
nodes = (
"406 0 LINE SMOOTH",
"563 0 OFFCURVE",
"653 77 OFFCURVE",
"653 193 CURVE SMOOTH",
"653 286 OFFCURVE",
"598 347 OFFCURVE",
"511 366 CURVE",
"511 358 LINE",
"585 380 OFFCURVE",
"635 438 OFFCURVE",
"635 522 CURVE SMOOTH",
"635 627 OFFCURVE",
"553 705 OFFCURVE",
"396 705 CURVE SMOOTH",
"143 705 LINE SMOOTH",
"95 705 OFFCURVE",
"68 678 OFFCURVE",
"68 630 CURVE SMOOTH",
"68 75 LINE SMOOTH",
"68 27 OFFCURVE",
"95 0 OFFCURVE",
"143 0 CURVE SMOOTH"
);
},
{
closed = 1;
nodes = (
"225 294 LINE",
"382 294 LINE SMOOTH",
"464 294 OFFCURVE",
"501 269 OFFCURVE",
"501 209 CURVE SMOOTH",
"501 149 OFFCURVE",
"464 123 OFFCURVE",
"382 123 CURVE SMOOTH",
"225 123 LINE"
);
},
{
closed = 1;
nodes = (
"225 582 LINE",
"364 582 LINE SMOOTH",
"445 582 OFFCURVE",
"482 556 OFFCURVE",
"482 500 CURVE SMOOTH",
"482 445 OFFCURVE",
"445 419 OFFCURVE",
"364 419 CURVE SMOOTH",
"225 419 LINE"
);
}
);
width = 696;
}
);
leftMetricsKey = H;
unicode = 0042;
userData = {
anchors = (
);
b = {
};
com.typemytype.robofont.layerData = {
b = {
anchors = (
);
components = (
);
contours = (
{
points = (
{
segmentType = curve;
smooth = 1;
x = 266;
y = 0;
},
{
segmentType = line;
smooth = 1;
x = 1035;
y = 0;
},
{
smooth = 0;
x = 1084;
y = 0;
},
{
smooth = 0;
x = 1108;
y = 36;
},
{
segmentType = curve;
smooth = 1;
x = 1108;
y = 73;
},
{
smooth = 0;
x = 1108;
y = 109;
},
{
smooth = 0;
x = 1084;
y = 145;
},
{
segmentType = curve;
smooth = 1;
x = 1035;
y = 145;
},
{
segmentType = line;
smooth = 0;
x = 353;
y = 145;
},
{
segmentType = line;
smooth = 0;
x = 353;
y = 662;
},
{
segmentType = line;
smooth = 1;
x = 975;
y = 662;
},
{
smooth = 0;
x = 1024;
y = 662;
},
{
smooth = 0;
x = 1049;
y = 698;
},
{
segmentType = curve;
smooth = 1;
x = 1049;
y = 734;
},
{
smooth = 0;
x = 1049;
y = 770;
},
{
smooth = 0;
x = 1026;
y = 806;
},
{
segmentType = curve;
smooth = 1;
x = 975;
y = 806;
},
{
segmentType = line;
smooth = 0;
x = 353;
y = 806;
},
{
segmentType = line;
smooth = 0;
x = 353;
y = 1281;
},
{
segmentType = line;
smooth = 1;
x = 1007;
y = 1281;
},
{
smooth = 0;
x = 1056;
y = 1281;
},
{
smooth = 0;
x = 1080;
y = 1317;
},
{
segmentType = curve;
smooth = 1;
x = 1080;
y = 1354;
},
{
smooth = 0;
x = 1080;
y = 1390;
},
{
smooth = 0;
x = 1056;
y = 1426;
},
{
segmentType = curve;
smooth = 1;
x = 1007;
y = 1426;
},
{
segmentType = line;
smooth = 1;
x = 261;
y = 1426;
},
{
smooth = 0;
x = 213;
y = 1426;
},
{
smooth = 0;
x = 178;
y = 1383;
},
{
segmentType = curve;
smooth = 1;
x = 178;
y = 1340;
},
{
segmentType = line;
smooth = 1;
x = 178;
y = 86;
},
{
smooth = 0;
x = 178;
y = 41;
},
{
smooth = 0;
x = 222;
y = 0;
}
);
}
);
lib = {
};
name = B;
unicodes = (
);
width = 1292;
};
};
components = (
);
contours = {
};
lib = {
};
name = B;
points = {
};
segmentType = curve;
unicodes = (
);
width = 1395;
x = 676;
y = 1260;
};
},
{
glyphname = C;
lastChange = "2016-08-18 13:02:02 +0000";
layers = (
{
layerId = "9E718F8A-2CEA-4931-B05D-987794BD97DA";
paths = (
{
closed = 1;
nodes = (
"463 -6 OFFCURVE",
"550 24 OFFCURVE",
"608 80 CURVE SMOOTH",
"616 89 OFFCURVE",
"620 98 OFFCURVE",
"620 107 CURVE SMOOTH",
"620 120 OFFCURVE",
"613 131 OFFCURVE",
"602 131 CURVE SMOOTH",
"595 131 OFFCURVE",
"589 128 OFFCURVE",
"581 122 CURVE SMOOTH",
"518 72 OFFCURVE",
"467 43 OFFCURVE",
"376 43 CURVE SMOOTH",
"208 43 OFFCURVE",
"116 161 OFFCURVE",
"116 353 CURVE SMOOTH",
"116 544 OFFCURVE",
"208 662 OFFCURVE",
"376 662 CURVE SMOOTH",
"467 662 OFFCURVE",
"518 633 OFFCURVE",
"581 583 CURVE SMOOTH",
"589 577 OFFCURVE",
"595 574 OFFCURVE",
"602 574 CURVE SMOOTH",
"612 574 OFFCURVE",
"620 585 OFFCURVE",
"620 598 CURVE SMOOTH",
"620 607 OFFCURVE",
"616 616 OFFCURVE",
"608 625 CURVE SMOOTH",
"550 681 OFFCURVE",
"463 711 OFFCURVE",
"377 711 CURVE SMOOTH",
"185 711 OFFCURVE",
"59 579 OFFCURVE",
"59 353 CURVE SMOOTH",
"59 126 OFFCURVE",
"185 -6 OFFCURVE",
"377 -6 CURVE SMOOTH"
);
}
);
width = 665;
},
{
layerId = "E1B555A7-F4E1-459C-9C1A-AE952106EEF9";
paths = (
{
closed = 1;
nodes = (
"488 -7 OFFCURVE",
"561 20 OFFCURVE",
"618 64 CURVE SMOOTH",
"640 80 OFFCURVE",
"646 97 OFFCURVE",
"646 120 CURVE SMOOTH",
"646 149 OFFCURVE",
"628 185 OFFCURVE",
"594 185 CURVE SMOOTH",
"575 185 OFFCURVE",
"563 178 OFFCURVE",
"545 168 CURVE SMOOTH",
"507 144 OFFCURVE",
"465 121 OFFCURVE",
"401 121 CURVE SMOOTH",
"277 121 OFFCURVE",
"211 197 OFFCURVE",
"211 353 CURVE SMOOTH",
"211 508 OFFCURVE",
"277 584 OFFCURVE",
"401 584 CURVE SMOOTH",
"465 584 OFFCURVE",
"507 561 OFFCURVE",
"545 537 CURVE SMOOTH",
"563 527 OFFCURVE",
"575 520 OFFCURVE",
"594 520 CURVE SMOOTH",
"628 520 OFFCURVE",
"646 556 OFFCURVE",
"646 585 CURVE SMOOTH",
"646 608 OFFCURVE",
"640 625 OFFCURVE",
"618 641 CURVE SMOOTH",
"561 685 OFFCURVE",
"488 712 OFFCURVE",
"393 712 CURVE SMOOTH",
"183 712 OFFCURVE",
"47 573 OFFCURVE",
"47 353 CURVE SMOOTH",
"47 132 OFFCURVE",
"183 -7 OFFCURVE",
"393 -7 CURVE SMOOTH"
);
}
);
width = 679;
}
);
leftMetricsKey = O;
unicode = 0043;
userData = {
anchors = (
);
b = {
};
com.typemytype.robofont.layerData = {
b = {
anchors = (
);
components = (
);
contours = (
);
lib = {
};
name = C;
unicodes = (
);
width = 1353.8900;
};
};
components = (
);
contours = (
);
lib = {
};
name = C;
unicodes = (
);
width = 1354;
};
},
{
glyphname = D;
lastChange = "2016-08-18 08:57:36 +0000";
layers = (
{
layerId = "9E718F8A-2CEA-4931-B05D-987794BD97DA";
paths = (
{
closed = 1;
nodes = (
"310 0 LINE SMOOTH",
"531 0 OFFCURVE",
"658 126 OFFCURVE",
"658 353 CURVE SMOOTH",
"658 581 OFFCURVE",
"531 705 OFFCURVE",
"310 705 CURVE SMOOTH",
"117 705 LINE SMOOTH",
"100 705 OFFCURVE",
"87 693 OFFCURVE",
"87 677 CURVE SMOOTH",
"87 28 LINE SMOOTH",
"87 13 OFFCURVE",
"100 0 OFFCURVE",
"117 0 CURVE SMOOTH"
);
},
{
closed = 1;
nodes = (
"141 655 LINE",
"308 655 LINE SMOOTH",
"512 655 OFFCURVE",
"601 545 OFFCURVE",
"601 353 CURVE SMOOTH",
"601 161 OFFCURVE",
"512 50 OFFCURVE",
"308 50 CURVE SMOOTH",
"141 50 LINE"
);
}
);
width = 717;
},
{
layerId = "E1B555A7-F4E1-459C-9C1A-AE952106EEF9";
paths = (
{
closed = 1;
nodes = (
"344 0 LINE SMOOTH",
"579 0 OFFCURVE",
"715 132 OFFCURVE",
"715 353 CURVE SMOOTH",
"715 573 OFFCURVE",
"579 705 OFFCURVE",
"344 705 CURVE SMOOTH",
"143 705 LINE SMOOTH",
"95 705 OFFCURVE",
"68 678 OFFCURVE",
"68 630 CURVE SMOOTH",
"68 75 LINE SMOOTH",
"68 27 OFFCURVE",
"95 0 OFFCURVE",
"143 0 CURVE SMOOTH"
);
},
{
closed = 1;
nodes = (
"229 575 LINE",
"333 575 LINE SMOOTH",
"474 575 OFFCURVE",
"554 509 OFFCURVE",
"554 353 CURVE SMOOTH",
"554 197 OFFCURVE",
"474 130 OFFCURVE",
"333 130 CURVE SMOOTH",
"229 130 LINE"
);
}
);
width = 762;
}
);
leftMetricsKey = I;
rightMetricsKey = O;
unicode = 0044;
userData = {
anchors = (
);
b = {
};
com.typemytype.robofont.layerData = {
b = {
anchors = (
);
components = (
);
contours = (
{
points = (
{
segmentType = curve;
smooth = 1;
x = 266;
y = 0;
},
{
segmentType = line;
smooth = 1;
x = 1035;
y = 0;
},
{
smooth = 0;
x = 1084;
y = 0;
},
{
smooth = 0;
x = 1108;
y = 34;
},
{
segmentType = curve;
smooth = 1;
x = 1108;
y = 71;
},
{
smooth = 0;
x = 1108;
y = 107;
},
{
smooth = 0;
x = 1084;
y = 141;
},
{
segmentType = curve;
smooth = 1;
x = 1035;
y = 141;
},
{
segmentType = line;
smooth = 0;
x = 356;
y = 141;
},
{
segmentType = line;
smooth = 0;
x = 356;
y = 665;
},
{
segmentType = line;
smooth = 1;
x = 975;
y = 665;
},
{
smooth = 0;
x = 1024;
y = 665;
},
{
smooth = 0;
x = 1049;
y = 698;
},
{
segmentType = curve;
smooth = 1;
x = 1049;
y = 734;
},
{
smooth = 0;
x = 1049;
y = 770;
},
{
smooth = 0;
x = 1026;
y = 803;
},
{
segmentType = curve;
smooth = 1;
x = 975;
y = 803;
},
{
segmentType = line;
smooth = 0;
x = 356;
y = 803;
},
{
segmentType = line;
smooth = 0;
x = 356;
y = 1285;
},
{
segmentType = line;
smooth = 1;
x = 1007;
y = 1285;
},
{
smooth = 0;
x = 1056;
y = 1285;
},
{
smooth = 0;
x = 1080;
y = 1319;
},
{
segmentType = curve;
smooth = 1;
x = 1080;
y = 1356;
},
{
smooth = 0;
x = 1080;
y = 1392;
},
{
smooth = 0;
x = 1056;
y = 1426;
},
{
segmentType = curve;
smooth = 1;
x = 1007;
y = 1426;
},
{
segmentType = line;
smooth = 1;
x = 261;
y = 1426;
},
{
smooth = 0;
x = 213;
y = 1426;
},
{
smooth = 0;
x = 178;
y = 1383;
},
{
segmentType = curve;
smooth = 1;
x = 178;
y = 1340;
},
{
segmentType = line;
smooth = 1;
x = 178;
y = 86;
},
{
smooth = 0;
x = 178;
y = 41;
},
{
smooth = 0;
x = 222;
y = 0;
}
);
}
);
lib = {
};
name = D;
unicodes = (
);
width = 1499;
};
};
components = (
);
contours = (
);
lib = {
};
name = D;
unicodes = (
);
width = 1535;
};
},
{
glyphname = E;
lastChange = "2016-08-18 08:57:36 +0000";
layers = (
{
layerId = "9E718F8A-2CEA-4931-B05D-987794BD97DA";
paths = (
{
closed = 1;
nodes = (
"499 0 LINE SMOOTH",
"513 0 OFFCURVE",
"523 10 OFFCURVE",
"523 25 CURVE SMOOTH",
"523 41 OFFCURVE",
"513 50 OFFCURVE",
"499 50 CURVE SMOOTH",
"141 50 LINE",
"141 333 LINE",
"479 333 LINE SMOOTH",
"493 333 OFFCURVE",
"503 343 OFFCURVE",
"503 358 CURVE SMOOTH",
"503 373 OFFCURVE",
"493 383 OFFCURVE",
"479 383 CURVE SMOOTH",
"141 383 LINE",
"141 655 LINE",
"499 655 LINE SMOOTH",
"513 655 OFFCURVE",
"523 664 OFFCURVE",
"523 680 CURVE SMOOTH",
"523 695 OFFCURVE",
"513 705 OFFCURVE",
"499 705 CURVE SMOOTH",
"117 705 LINE SMOOTH",
"100 705 OFFCURVE",
"87 693 OFFCURVE",
"87 677 CURVE SMOOTH",
"87 28 LINE SMOOTH",
"87 13 OFFCURVE",
"100 0 OFFCURVE",
"117 0 CURVE SMOOTH"
);
}
);
width = 583;
},
{
layerId = "E1B555A7-F4E1-459C-9C1A-AE952106EEF9";
paths = (
{
closed = 1;
nodes = (
"496 0 LINE SMOOTH",
"549 0 OFFCURVE",
"572 23 OFFCURVE",
"572 61 CURVE SMOOTH",
"572 100 OFFCURVE",
"549 123 OFFCURVE",
"496 123 CURVE SMOOTH",
"225 123 LINE",
"225 295 LINE",
"476 295 LINE SMOOTH",
"529 295 OFFCURVE",
"552 318 OFFCURVE",
"552 356 CURVE SMOOTH",
"552 395 OFFCURVE",
"529 418 OFFCURVE",
"476 418 CURVE SMOOTH",
"225 418 LINE",
"225 582 LINE",
"496 582 LINE SMOOTH",
"549 582 OFFCURVE",
"572 605 OFFCURVE",
"572 644 CURVE SMOOTH",
"572 682 OFFCURVE",
"549 705 OFFCURVE",
"496 705 CURVE SMOOTH",
"143 705 LINE SMOOTH",
"95 705 OFFCURVE",
"68 678 OFFCURVE",
"68 630 CURVE SMOOTH",
"68 75 LINE SMOOTH",
"68 27 OFFCURVE",
"95 0 OFFCURVE",
"143 0 CURVE SMOOTH"
);
}
);
width = 605;
}
);
leftMetricsKey = H;
unicode = 0045;
userData = {
anchors = (
);
b = {
};
com.typemytype.robofont.layerData = {
b = {
anchors = (
);
components = (
);
contours = (
);
lib = {
};
name = E;
unicodes = (
);
width = 1234;
};
};
components = (
);
contours = (
);
lib = {
};
name = E;
unicodes = (
);
width = 1258;
};
},
{
glyphname = F;
lastChange = "2016-08-18 08:57:36 +0000";
layers = (
{
layerId = "9E718F8A-2CEA-4931-B05D-987794BD97DA";
paths = (
{
closed = 1;
nodes = (
"133 -5 OFFCURVE",
"141 7 OFFCURVE",
"141 24 CURVE SMOOTH",
"141 333 LINE",
"469 333 LINE SMOOTH",
"483 333 OFFCURVE",
"493 343 OFFCURVE",
"493 358 CURVE SMOOTH",
"493 373 OFFCURVE",
"483 383 OFFCURVE",
"469 383 CURVE SMOOTH",
"141 383 LINE",
"141 655 LINE",
"489 655 LINE SMOOTH",
"503 655 OFFCURVE",
"513 665 OFFCURVE",
"513 680 CURVE SMOOTH",
"513 695 OFFCURVE",
"503 705 OFFCURVE",
"489 705 CURVE SMOOTH",
"117 705 LINE SMOOTH",
"100 705 OFFCURVE",
"87 693 OFFCURVE",
"87 677 CURVE SMOOTH",
"87 24 LINE SMOOTH",
"87 7 OFFCURVE",
"98 -5 OFFCURVE",
"114 -5 CURVE SMOOTH"
);
}
);
width = 558;
},
{
layerId = "E1B555A7-F4E1-459C-9C1A-AE952106EEF9";
paths = (
{
closed = 1;
nodes = (
"191 -6 OFFCURVE",
"227 20 OFFCURVE",
"227 74 CURVE SMOOTH",
"227 292 LINE",
"466 292 LINE SMOOTH",
"519 292 OFFCURVE",
"542 315 OFFCURVE",
"542 356 CURVE SMOOTH",
"542 398 OFFCURVE",
"519 421 OFFCURVE",
"466 421 CURVE SMOOTH",
"227 421 LINE",
"227 576 LINE",
"486 576 LINE SMOOTH",
"539 576 OFFCURVE",
"562 599 OFFCURVE",
"562 640 CURVE SMOOTH",
"562 682 OFFCURVE",
"539 705 OFFCURVE",
"486 705 CURVE SMOOTH",
"143 705 LINE SMOOTH",
"95 705 OFFCURVE",
"68 678 OFFCURVE",
"68 630 CURVE SMOOTH",
"68 74 LINE SMOOTH",
"68 26 OFFCURVE",
"99 -6 OFFCURVE",
"148 -6 CURVE SMOOTH"
);
}
);
width = 574;
}
);
leftMetricsKey = H;
unicode = 0046;
userData = {
anchors = (
);
b = {
};
com.typemytype.robofont.layerData = {
b = {
anchors = (
);
components = (
);
contours = (
{
points = (
{
segmentType = curve;
smooth = 1;
x = 266;
y = 0;
},
{
segmentType = line;
smooth = 1;
x = 1035;
y = 0;
},
{
smooth = 0;
x = 1084;
y = 0;
},
{
smooth = 0;
x = 1108;
y = 34;
},
{
segmentType = curve;
smooth = 1;
x = 1108;
y = 71;
},
{
smooth = 0;
x = 1108;
y = 107;
},
{
smooth = 0;
x = 1084;
y = 141;
},
{
segmentType = curve;
smooth = 1;
x = 1035;
y = 141;
},
{
segmentType = line;
smooth = 0;
x = 353;
y = 141;
},
{
segmentType = line;
smooth = 0;
x = 353;
y = 665;
},
{
segmentType = line;
smooth = 1;
x = 975;
y = 665;
},
{
smooth = 0;
x = 1024;
y = 665;
},
{
smooth = 0;
x = 1049;
y = 698;
},
{
segmentType = curve;
smooth = 1;
x = 1049;
y = 734;
},
{
smooth = 0;
x = 1049;
y = 770;
},
{
smooth = 0;
x = 1026;
y = 803;
},
{
segmentType = curve;
smooth = 1;
x = 975;
y = 803;
},
{
segmentType = line;
smooth = 0;
x = 353;
y = 803;
},
{
segmentType = line;
smooth = 0;
x = 353;
y = 1285;
},
{
segmentType = line;
smooth = 1;
x = 1007;
y = 1285;
},
{
smooth = 0;
x = 1056;
y = 1285;
},
{
smooth = 0;
x = 1080;
y = 1319;
},
{
segmentType = curve;
smooth = 1;
x = 1080;
y = 1356;
},
{
smooth = 0;
x = 1080;
y = 1392;
},
{
smooth = 0;
x = 1056;
y = 1426;
},
{
segmentType = curve;
smooth = 1;
x = 1007;
y = 1426;
},
{
segmentType = line;
smooth = 1;
x = 261;
y = 1426;
},
{
smooth = 0;
x = 213;
y = 1426;
},
{
smooth = 0;
x = 178;
y = 1383;
},
{
segmentType = curve;
smooth = 1;
x = 178;
y = 1340;
},
{
segmentType = line;
smooth = 1;
x = 178;
y = 86;
},
{
smooth = 0;
x = 178;
y = 41;
},
{
smooth = 0;
x = 222;
y = 0;
}
);
}
);
lib = {
};
name = F;
unicodes = (
);
width = 1142;
};
};
components = (
);
contours = (
);
lib = {
};
name = F;
unicodes = (
);
width = 1175;
};
},
{
glyphname = G;
lastChange = "2016-08-18 13:02:16 +0000";
layers = (
{
layerId = "9E718F8A-2CEA-4931-B05D-987794BD97DA";
paths = (
{
closed = 1;
nodes = (
"472 -6 OFFCURVE",
"557 10 OFFCURVE",
"608 34 CURVE SMOOTH",
"622 41 OFFCURVE",
"627 52 OFFCURVE",
"627 64 CURVE SMOOTH",
"627 334 LINE SMOOTH",
"627 349 OFFCURVE",
"617 359 OFFCURVE",
"603 359 CURVE SMOOTH",
"404 359 LINE SMOOTH",
"392 359 OFFCURVE",
"383 348 OFFCURVE",
"383 334 CURVE SMOOTH",
"383 320 OFFCURVE",
"392 309 OFFCURVE",
"404 309 CURVE SMOOTH",
"577 309 LINE",
"577 43 LINE",
"591 82 LINE",
"543 60 OFFCURVE",
"471 44 OFFCURVE",
"387 44 CURVE SMOOTH",
"203 44 OFFCURVE",
"116 163 OFFCURVE",
"116 353 CURVE SMOOTH",
"116 544 OFFCURVE",
"208 662 OFFCURVE",
"380 662 CURVE SMOOTH",
"471 662 OFFCURVE",
"522 633 OFFCURVE",
"585 583 CURVE SMOOTH",
"593 577 OFFCURVE",
"599 574 OFFCURVE",
"605 574 CURVE SMOOTH",
"616 574 OFFCURVE",
"624 585 OFFCURVE",
"624 598 CURVE SMOOTH",
"624 607 OFFCURVE",
"620 616 OFFCURVE",
"612 625 CURVE SMOOTH",
"555 683 OFFCURVE",
"467 711 OFFCURVE",
"380 711 CURVE SMOOTH",
"185 711 OFFCURVE",
"59 579 OFFCURVE",
"59 353 CURVE SMOOTH",
"59 126 OFFCURVE",
"182 -6 OFFCURVE",
"387 -6 CURVE SMOOTH"
);
}
);
width = 709;
},
{
layerId = "E1B555A7-F4E1-459C-9C1A-AE952106EEF9";
paths = (
{
closed = 1;
nodes = (
"477 -7 OFFCURVE",
"549 4 OFFCURVE",
"596 18 CURVE SMOOTH",
"662 37 OFFCURVE",
"676 62 OFFCURVE",
"676 142 CURVE SMOOTH",
"676 331 LINE SMOOTH",
"676 364 OFFCURVE",
"655 391 OFFCURVE",
"613 391 CURVE SMOOTH",
"443 391 LINE SMOOTH",
"405 391 OFFCURVE",
"381 372 OFFCURVE",
"381 335 CURVE SMOOTH",
"381 298 OFFCURVE",
"405 279 OFFCURVE",
"443 279 CURVE SMOOTH",
"532 279 LINE",
"532 90 LINE",
"567 141 LINE",
"520 126 OFFCURVE",
"469 117 OFFCURVE",
"420 117 CURVE SMOOTH",
"297 117 OFFCURVE",
"210 175 OFFCURVE",
"210 353 CURVE SMOOTH",
"210 509 OFFCURVE",
"278 584 OFFCURVE",
"411 584 CURVE SMOOTH",
"483 584 OFFCURVE",
"525 561 OFFCURVE",
"563 537 CURVE SMOOTH",
"581 527 OFFCURVE",
"593 520 OFFCURVE",
"613 520 CURVE SMOOTH",
"646 520 OFFCURVE",
"664 556 OFFCURVE",
"664 585 CURVE SMOOTH",
"664 608 OFFCURVE",
"658 625 OFFCURVE",
"636 641 CURVE SMOOTH",
"579 685 OFFCURVE",
"506 712 OFFCURVE",
"406 712 CURVE SMOOTH",
"187 712 OFFCURVE",
"47 573 OFFCURVE",
"47 353 CURVE SMOOTH",
"47 132 OFFCURVE",
"183 -7 OFFCURVE",
"413 -7 CURVE SMOOTH"
);
}
);
width = 737;
}
);
leftMetricsKey = O;
unicode = 0047;
userData = {
anchors = (
);
b = {
};
com.typemytype.robofont.layerData = {
b = {
anchors = (
);
components = (
);
contours = (
{
points = (
{
segmentType = curve;
smooth = 1;
x = 783;
y = "-22";
},
{
smooth = 0;
x = 965;
y = "-22";
},
{
smooth = 0;
x = 1086;
y = 34;
},
{
segmentType = curve;
smooth = 1;
x = 1166;
y = 86;
},
{
smooth = 0;
x = 1270;
y = 154;
},
{
smooth = 0;
x = 1186;
y = 258;
},
{
segmentType = curve;
smooth = 1;
x = 1112;
y = 214;
},
{
smooth = 0;
x = 1024;
y = 162;
},
{
smooth = 0;
x = 939;
y = 120;
},
{
segmentType = curve;
smooth = 1;
x = 806;
y = 120;
},
{
smooth = 0;
x = 446;
y = 120;
},
{
smooth = 0;
x = 316;
y = 406;
},
{
segmentType = curve;
smooth = 1;
x = 316;
y = 706;
},
{
smooth = 0;
x = 316;
y = 1005;
},
{
smooth = 0;
x = 450;
y = 1296;
},
{
segmentType = curve;
smooth = 1;
x = 801;
y = 1296;
},
{
smooth = 0;
x = 980;
y = 1296;
},
{
smooth = 0;
x = 1053;
y = 1246;
},
{
segmentType = curve;
smooth = 1;
x = 1094;
y = 1225;
},
{
smooth = 0;
x = 1174;
y = 1184;
},
{
smooth = 0;
x = 1231;
y = 1300;
},
{
segmentType = curve;
smooth = 1;
x = 1156;
y = 1343;
},
{
smooth = 0;
x = 1106;
y = 1372;
},
{
smooth = 0;
x = 995;
y = 1438;
},
{
segmentType = curve;
smooth = 1;
x = 797;
y = 1438;
},
{
smooth = 0;
x = 359;
y = 1438;
},
{
smooth = 0;
x = 128;
y = 1093;
},
{
segmentType = curve;
smooth = 1;
x = 128;
y = 704;
},
{
smooth = 0;
x = 128;
y = 307;
},
{
smooth = 0;
x = 350;
y = "-22";
}
);
}
);
lib = {
};
name = G;
unicodes = (
);
width = 1448;
};
};
components = (
);
contours = (
);
lib = {
};
name = G;
unicodes = (
);
width = 1538;
};
},
{
glyphname = H;
lastChange = "2016-08-19 08:39:31 +0000";
layers = (
{
layerId = "9E718F8A-2CEA-4931-B05D-987794BD97DA";
paths = (
{
closed = 1;
nodes = (
"644 -5 OFFCURVE",
"654 7 OFFCURVE",
"654 24 CURVE SMOOTH",
"654 681 LINE SMOOTH",
"654 698 OFFCURVE",
"644 710 OFFCURVE",
"627 710 CURVE SMOOTH",
"610 710 OFFCURVE",
"600 698 OFFCURVE",
"600 681 CURVE SMOOTH",
"600 24 LINE SMOOTH",
"600 7 OFFCURVE",
"610 -5 OFFCURVE",
"627 -5 CURVE SMOOTH"
);
},
{
closed = 1;
nodes = (
"131 -5 OFFCURVE",
"141 7 OFFCURVE",
"141 24 CURVE SMOOTH",
"141 681 LINE SMOOTH",
"141 698 OFFCURVE",
"131 710 OFFCURVE",
"114 710 CURVE SMOOTH",
"97 710 OFFCURVE",
"87 698 OFFCURVE",
"87 681 CURVE SMOOTH",
"87 24 LINE SMOOTH",
"87 7 OFFCURVE",
"97 -5 OFFCURVE",
"114 -5 CURVE SMOOTH"
);
},
{
closed = 1;
nodes = (
"609 333 LINE",
"609 383 LINE",
"121 383 LINE",
"121 333 LINE"
);
}
);
width = 741;
},
{
layerId = "E1B555A7-F4E1-459C-9C1A-AE952106EEF9";
paths = (
{
closed = 1;
nodes = (
"665 -6 OFFCURVE",
"702 20 OFFCURVE",
"702 74 CURVE SMOOTH",
"702 631 LINE SMOOTH",
"702 684 OFFCURVE",
"665 710 OFFCURVE",
"623 710 CURVE SMOOTH",
"580 710 OFFCURVE",
"544 684 OFFCURVE",
"544 631 CURVE SMOOTH",
"544 74 LINE SMOOTH",
"544 20 OFFCURVE",
"580 -6 OFFCURVE",
"623 -6 CURVE SMOOTH"
);
},
{
closed = 1;
nodes = (
"189 -6 OFFCURVE",
"226 20 OFFCURVE",
"226 74 CURVE SMOOTH",
"226 631 LINE SMOOTH",
"226 684 OFFCURVE",
"189 710 OFFCURVE",
"147 710 CURVE SMOOTH",
"104 710 OFFCURVE",
"68 684 OFFCURVE",
"68 631 CURVE SMOOTH",
"68 74 LINE SMOOTH",
"68 20 OFFCURVE",
"104 -6 OFFCURVE",
"147 -6 CURVE SMOOTH"
);
},
{
closed = 1;
nodes = (
"639 291 LINE",
"639 421 LINE",
"119 421 LINE",
"119 291 LINE"
);
}
);
width = 770;
}
);
unicode = 0048;
userData = {
anchors = (
);
b = {
};
com.typemytype.robofont.layerData = {
b = {
anchors = (
);
components = (
);
contours = (
);
lib = {
};
name = H;
unicodes = (
);
width = 1464;
};
};
components = (
);
contours = (
);
lib = {
};
name = H;
unicodes = (
);
width = 1524;
};
},
{
glyphname = I;
lastChange = "2016-08-18 08:57:36 +0000";
layers = (
{
layerId = "9E718F8A-2CEA-4931-B05D-987794BD97DA";
paths = (
{
closed = 1;
nodes = (
"131 -5 OFFCURVE",
"141 7 OFFCURVE",
"141 24 CURVE SMOOTH",
"141 681 LINE SMOOTH",
"141 698 OFFCURVE",
"131 710 OFFCURVE",
"114 710 CURVE SMOOTH",
"97 710 OFFCURVE",
"87 698 OFFCURVE",
"87 681 CURVE SMOOTH",
"87 24 LINE SMOOTH",
"87 7 OFFCURVE",
"97 -5 OFFCURVE",
"114 -5 CURVE SMOOTH"
);
}
);
width = 228;
},
{
layerId = "E1B555A7-F4E1-459C-9C1A-AE952106EEF9";
paths = (
{
closed = 1;
nodes = (
"193 -6 OFFCURVE",
"229 20 OFFCURVE",
"229 74 CURVE SMOOTH",
"229 631 LINE SMOOTH",
"229 684 OFFCURVE",
"193 710 OFFCURVE",
"148 710 CURVE SMOOTH",
"104 710 OFFCURVE",
"68 684 OFFCURVE",
"68 631 CURVE SMOOTH",
"68 74 LINE SMOOTH",
"68 20 OFFCURVE",
"104 -6 OFFCURVE",
"148 -6 CURVE SMOOTH"
);
}
);
width = 297;
}
);
leftMetricsKey = H;
rightMetricsKey = H;
unicode = 0049;
userData = {
anchors = (
);
b = {
};
com.typemytype.robofont.layerData = {
b = {
anchors = (
);
components = (
);
contours = (
);
lib = {
};
name = I;
unicodes = (
);
width = 592;
};
};
components = (
);
contours = (
);
lib = {
};
name = I;
unicodes = (
);
width = 637;
};
},
{
glyphname = J;
lastChange = "2016-08-18 08:57:36 +0000";
layers = (
{
layerId = "9E718F8A-2CEA-4931-B05D-987794BD97DA";
paths = (
{
closed = 1;
nodes = (
"59 -3 LINE SMOOTH",
"164 4 OFFCURVE",
"217 58 OFFCURVE",
"217 180 CURVE SMOOTH",
"217 681 LINE SMOOTH",
"217 698 OFFCURVE",
"208 710 OFFCURVE",
"190 710 CURVE SMOOTH",
"176 710 OFFCURVE",
"163 698 OFFCURVE",
"163 681 CURVE SMOOTH",
"163 182 LINE SMOOTH",
"163 83 OFFCURVE",
"125 52 OFFCURVE",
"51 46 CURVE SMOOTH",
"22 44 LINE SMOOTH",
"3 43 OFFCURVE",
"-5 32 OFFCURVE",
"-5 19 CURVE SMOOTH",
"-5 5 OFFCURVE",
"6 -7 OFFCURVE",
"29 -5 CURVE SMOOTH"
);
}
);
width = 304;
},
{
layerId = "E1B555A7-F4E1-459C-9C1A-AE952106EEF9";
paths = (
{
closed = 1;
nodes = (
"118 -4 LINE SMOOTH",
"254 5 OFFCURVE",
"318 80 OFFCURVE",
"318 208 CURVE SMOOTH",
"318 631 LINE SMOOTH",
"318 684 OFFCURVE",
"281 710 OFFCURVE",
"237 710 CURVE SMOOTH",
"193 710 OFFCURVE",
"156 684 OFFCURVE",
"156 631 CURVE SMOOTH",
"156 206 LINE SMOOTH",
"156 153 OFFCURVE",
"131 126 OFFCURVE",
"86 124 CURVE SMOOTH",
"53 122 LINE SMOOTH",
"9 119 OFFCURVE",
"-10 99 OFFCURVE",
"-10 59 CURVE SMOOTH",
"-10 10 OFFCURVE",
"27 -9 OFFCURVE",
"86 -6 CURVE SMOOTH"
);
}
);
width = 386;
}
);
rightMetricsKey = H;
unicode = 004A;
userData = {
anchors = (
);
b = {
};
com.typemytype.robofont.layerData = {
b = {
anchors = (
);
components = (
);
contours = (
);
lib = {
};
name = J;
unicodes = (
);
width = 1003;
};
};
components = (
);
contours = (
);
lib = {
};
name = J;
unicodes = (
);
width = 1126;
};
},
{
glyphname = K;
lastChange = "2016-08-18 08:57:36 +0000";
layers = (
{
layerId = "9E718F8A-2CEA-4931-B05D-987794BD97DA";
paths = (
{
closed = 1;
nodes = (
"563 -18 OFFCURVE",
"600 18 OFFCURVE",
"571 41 CURVE SMOOTH",
"172 379 LINE",
"172 339 LINE",
"552 665 LINE SMOOTH",
"579 687 OFFCURVE",
"542 724 OFFCURVE",
"517 702 CURVE SMOOTH",
"117 357 LINE",
"538 2 LINE SMOOTH"
);
},
{
closed = 1;
nodes = (
"131 -5 OFFCURVE",
"141 7 OFFCURVE",
"141 24 CURVE SMOOTH",
"141 681 LINE SMOOTH",
"141 698 OFFCURVE",
"131 710 OFFCURVE",
"114 710 CURVE SMOOTH",
"97 710 OFFCURVE",
"87 698 OFFCURVE",
"87 681 CURVE SMOOTH",
"87 24 LINE SMOOTH",
"87 7 OFFCURVE",
"97 -5 OFFCURVE",
"114 -5 CURVE SMOOTH"
);
}
);
width = 599;
},
{
layerId = "E1B555A7-F4E1-459C-9C1A-AE952106EEF9";
paths = (
{
closed = 1;
nodes = (
"610 -54 OFFCURVE",
"713 51 OFFCURVE",
"643 121 CURVE SMOOTH",
"352 405 LINE",
"346 321 LINE",
"626 584 LINE SMOOTH",
"699 655 OFFCURVE",
"595 755 OFFCURVE",
"527 686 CURVE SMOOTH",
"193 360 LINE",
"534 24 LINE SMOOTH"
);
},
{
closed = 1;
nodes = (
"193 -6 OFFCURVE",
"229 20 OFFCURVE",
"229 74 CURVE SMOOTH",
"229 631 LINE SMOOTH",
"229 684 OFFCURVE",
"193 710 OFFCURVE",
"148 710 CURVE SMOOTH",
"104 710 OFFCURVE",
"68 684 OFFCURVE",
"68 631 CURVE SMOOTH",
"68 74 LINE SMOOTH",
"68 20 OFFCURVE",
"104 -6 OFFCURVE",
"148 -6 CURVE SMOOTH"
);
}
);
width = 684;
}
);
leftMetricsKey = H;
unicode = 004B;
userData = {
anchors = (
);
b = {
};
com.typemytype.robofont.layerData = {
b = {
anchors = (
);
components = (
);
contours = (
);
lib = {
};
name = K;
unicodes = (
);
width = 1210;
};
};
components = (
);
contours = (
);
lib = {
};
name = K;
unicodes = (
);
width = 1329;
};
},
{
glyphname = L;
lastChange = "2016-08-19 09:06:55 +0000";
layers = (
{
layerId = "9E718F8A-2CEA-4931-B05D-987794BD97DA";
paths = (
{
closed = 1;
nodes = (
"490 0 LINE SMOOTH",
"504 0 OFFCURVE",
"514 10 OFFCURVE",
"514 25 CURVE SMOOTH",
"514 40 OFFCURVE",
"504 50 OFFCURVE",
"490 50 CURVE SMOOTH",
"141 50 LINE",
"141 681 LINE SMOOTH",
"141 698 OFFCURVE",
"132 710 OFFCURVE",
"114 710 CURVE SMOOTH",
"97 710 OFFCURVE",
"87 698 OFFCURVE",
"87 681 CURVE SMOOTH",
"87 25 LINE SMOOTH",
"87 11 OFFCURVE",
"101 0 OFFCURVE",
"115 0 CURVE SMOOTH"
);
}
);
width = 519;
},
{
layerId = "E1B555A7-F4E1-459C-9C1A-AE952106EEF9";
paths = (
{
closed = 1;
nodes = (
"480 0 LINE SMOOTH",
"533 0 OFFCURVE",
"556 24 OFFCURVE",
"556 66 CURVE SMOOTH",
"556 109 OFFCURVE",
"533 133 OFFCURVE",
"480 133 CURVE SMOOTH",
"229 133 LINE",
"229 631 LINE SMOOTH",
"229 684 OFFCURVE",
"193 710 OFFCURVE",
"148 710 CURVE SMOOTH",
"104 710 OFFCURVE",
"68 684 OFFCURVE",
"68 631 CURVE SMOOTH",
"68 75 LINE SMOOTH",
"68 27 OFFCURVE",
"95 0 OFFCURVE",
"143 0 CURVE SMOOTH"
);
}
);
width = 561;
}
);
leftMetricsKey = H;
unicode = 004C;
userData = {
anchors = (
);
b = {
};
com.typemytype.robofont.layerData = {
b = {
anchors = (
);
components = (
);
contours = (
{
points = (
{
segmentType = curve;
smooth = 1;
x = 266;
y = 0;
},
{
segmentType = line;
smooth = 1;
x = 1035;
y = 0;
},
{
smooth = 0;
x = 1084;
y = 0;
},
{
smooth = 0;
x = 1108;
y = 34;
},
{
segmentType = curve;
smooth = 1;
x = 1108;
y = 71;
},
{
smooth = 0;
x = 1108;
y = 107;
},
{
smooth = 0;
x = 1084;
y = 141;
},
{
segmentType = curve;
smooth = 1;
x = 1035;
y = 141;
},
{
segmentType = line;
smooth = 0;
x = 356;
y = 141;
},
{
segmentType = line;
smooth = 0;
x = 356;
y = 665;
},
{
segmentType = line;
smooth = 1;
x = 975;
y = 665;
},
{
smooth = 0;
x = 1024;
y = 665;
},
{
smooth = 0;
x = 1049;
y = 698;
},
{
segmentType = curve;
smooth = 1;
x = 1049;
y = 734;
},
{
smooth = 0;
x = 1049;
y = 770;
},
{
smooth = 0;
x = 1026;
y = 803;
},
{
segmentType = curve;
smooth = 1;
x = 975;
y = 803;
},
{
segmentType = line;
smooth = 0;
x = 356;
y = 803;
},
{
segmentType = line;
smooth = 0;
x = 356;
y = 1285;
},
{
segmentType = line;
smooth = 1;
x = 1007;
y = 1285;
},
{
smooth = 0;
x = 1056;
y = 1285;
},
{
smooth = 0;
x = 1080;
y = 1319;
},
{
segmentType = curve;
smooth = 1;
x = 1080;
y = 1356;
},
{
smooth = 0;
x = 1080;
y = 1392;
},
{
smooth = 0;
x = 1056;
y = 1426;
},
{
segmentType = curve;
smooth = 1;
x = 1007;
y = 1426;
},
{
segmentType = line;
smooth = 1;
x = 261;
y = 1426;
},
{
smooth = 0;
x = 213;
y = 1426;
},
{
smooth = 0;
x = 178;
y = 1383;
},
{
segmentType = curve;
smooth = 1;
x = 178;
y = 1340;
},
{
segmentType = line;
smooth = 1;
x = 178;
y = 86;
},
{
smooth = 0;
x = 178;
y = 41;
},
{
smooth = 0;
x = 222;
y = 0;
}
);
}
);
lib = {
};
name = L;
unicodes = (
);
width = 1095;
};
};
components = (
);
contours = (
);
lib = {
};
name = L;
unicodes = (
);
width = 1169;
};
},
{
glyphname = M;
lastChange = "2016-08-18 08:57:36 +0000";
layers = (
{
layerId = "9E718F8A-2CEA-4931-B05D-987794BD97DA";
paths = (
{
closed = 1;
nodes = (
"133 -5 OFFCURVE",
"141 7 OFFCURVE",
"141 24 CURVE SMOOTH",
"141 646 LINE",
"110 644 LINE",
"387 122 LINE SMOOTH",
"394 108 OFFCURVE",
"404 101 OFFCURVE",
"417 101 CURVE SMOOTH",
"429 101 OFFCURVE",
"440 108 OFFCURVE",
"447 122 CURVE SMOOTH",
"719 643 LINE",
"691 646 LINE",
"691 24 LINE SMOOTH",
"691 7 OFFCURVE",
"699 -5 OFFCURVE",
"716 -5 CURVE SMOOTH",
"734 -5 OFFCURVE",
"743 7 OFFCURVE",
"743 24 CURVE SMOOTH",
"743 681 LINE SMOOTH",
"743 698 OFFCURVE",
"733 710 OFFCURVE",
"715 710 CURVE SMOOTH",
"704 710 OFFCURVE",
"696 705 OFFCURVE",
"688 689 CURVE SMOOTH",
"403 139 LINE",
"433 139 LINE",
"144 689 LINE SMOOTH",
"136 705 OFFCURVE",
"128 710 OFFCURVE",
"117 710 CURVE SMOOTH",
"99 710 OFFCURVE",
"89 698 OFFCURVE",
"89 681 CURVE SMOOTH",
"89 24 LINE SMOOTH",
"89 7 OFFCURVE",
"97 -5 OFFCURVE",
"115 -5 CURVE SMOOTH"
);
}
);
width = 832;
},
{
layerId = "E1B555A7-F4E1-459C-9C1A-AE952106EEF9";
paths = (
{
closed = 1;
nodes = (
"176 -6 OFFCURVE",
"213 20 OFFCURVE",
"213 74 CURVE SMOOTH",
"213 465 LINE",
"183 462 LINE",
"348 153 LINE SMOOTH",
"368 116 OFFCURVE",
"389 101 OFFCURVE",
"420 101 CURVE SMOOTH",
"451 101 OFFCURVE",
"473 116 OFFCURVE",
"492 153 CURVE SMOOTH",
"654 461 LINE",
"627 465 LINE",
"627 74 LINE SMOOTH",
"627 20 OFFCURVE",
"663 -6 OFFCURVE",
"698 -6 CURVE SMOOTH",
"734 -6 OFFCURVE",
"770 20 OFFCURVE",
"770 74 CURVE SMOOTH",
"770 631 LINE SMOOTH",
"770 684 OFFCURVE",
"733 710 OFFCURVE",
"694 710 CURVE SMOOTH",
"671 710 OFFCURVE",
"643 701 OFFCURVE",
"620 657 CURVE SMOOTH",
"404 243 LINE",
"439 243 LINE",
"222 657 LINE SMOOTH",
"199 701 OFFCURVE",
"169 710 OFFCURVE",
"146 710 CURVE SMOOTH",
"106 710 OFFCURVE",
"70 684 OFFCURVE",
"70 631 CURVE SMOOTH",
"70 74 LINE SMOOTH",
"70 20 OFFCURVE",
"106 -6 OFFCURVE",
"141 -6 CURVE SMOOTH"
);
}
);
width = 840;
}
);
leftMetricsKey = "=H+2";
rightMetricsKey = "=H+2";
unicode = 004D;
userData = {
anchors = (
);
b = {
};
com.typemytype.robofont.layerData = {
b = {
anchors = (
);
components = (
);
contours = (
);
lib = {
};
name = M;
unicodes = (
);
width = 1899;
};
};
components = (
);
contours = (
);
lib = {
};
name = M;
unicodes = (
);
width = 1984;
};
},
{
glyphname = N;
lastChange = "2016-08-18 08:57:36 +0000";
layers = (
{
layerId = "9E718F8A-2CEA-4931-B05D-987794BD97DA";
paths = (
{
closed = 1;
nodes = (
"130 -5 OFFCURVE",
"140 7 OFFCURVE",
"140 24 CURVE SMOOTH",
"140 644 LINE",
"115 643 LINE",
"584 9 LINE SMOOTH",
"591 0 OFFCURVE",
"597 -5 OFFCURVE",
"608 -5 CURVE SMOOTH",
"625 -5 OFFCURVE",
"635 7 OFFCURVE",
"635 24 CURVE SMOOTH",
"635 681 LINE SMOOTH",
"635 698 OFFCURVE",
"626 710 OFFCURVE",
"609 710 CURVE SMOOTH",
"593 710 OFFCURVE",
"582 698 OFFCURVE",
"582 681 CURVE SMOOTH",
"582 61 LINE",
"607 62 LINE",
"139 696 LINE SMOOTH",
"132 705 OFFCURVE",
"126 710 OFFCURVE",
"115 710 CURVE SMOOTH",
"97 710 OFFCURVE",
"87 698 OFFCURVE",
"87 681 CURVE SMOOTH",
"87 24 LINE SMOOTH",
"87 7 OFFCURVE",
"96 -5 OFFCURVE",
"114 -5 CURVE SMOOTH"
);
}
);
width = 722;
},
{
layerId = "E1B555A7-F4E1-459C-9C1A-AE952106EEF9";
paths = (
{
closed = 1;
nodes = (
"183 -6 OFFCURVE",
"219 20 OFFCURVE",
"219 74 CURVE SMOOTH",
"219 495 LINE",
"191 482 LINE",
"547 21 LINE SMOOTH",
"563 2 OFFCURVE",
"583 -6 OFFCURVE",
"607 -6 CURVE SMOOTH",
"646 -6 OFFCURVE",
"683 20 OFFCURVE",
"683 74 CURVE SMOOTH",
"683 631 LINE SMOOTH",
"683 684 OFFCURVE",
"646 710 OFFCURVE",
"607 710 CURVE SMOOTH",
"568 710 OFFCURVE",
"531 684 OFFCURVE",
"531 631 CURVE SMOOTH",
"531 210 LINE",
"560 222 LINE",
"203 683 LINE SMOOTH",
"187 703 OFFCURVE",
"167 710 OFFCURVE",
"144 710 CURVE SMOOTH",
"104 710 OFFCURVE",
"68 684 OFFCURVE",
"68 631 CURVE SMOOTH",
"68 74 LINE SMOOTH",
"68 20 OFFCURVE",
"104 -6 OFFCURVE",
"143 -6 CURVE SMOOTH"
);
}
);
width = 751;
}
);
leftMetricsKey = H;
rightMetricsKey = H;
unicode = 004E;
userData = {
anchors = (
);
b = {
};
com.typemytype.robofont.layerData = {
b = {
anchors = (
);
components = (
);
contours = (
);
lib = {
};
name = N;
unicodes = (
);
width = 1499;
};
};
components = (
);
contours = (
);
lib = {
};
name = N;
unicodes = (
);
width = 1557;
};
},
{
glyphname = O;
lastChange = "2016-08-18 13:01:29 +0000";
layers = (
{
background = {
paths = (
{
closed = 1;
nodes = (
"558 -6 OFFCURVE",
"684 126 OFFCURVE",
"684 353 CURVE SMOOTH",
"684 581 OFFCURVE",
"558 711 OFFCURVE",
"371 711 CURVE SMOOTH",
"185 711 OFFCURVE",
"59 581 OFFCURVE",
"59 352 CURVE SMOOTH",
"59 126 OFFCURVE",
"185 -6 OFFCURVE",
"371 -6 CURVE SMOOTH"
);
},
{
closed = 1;
nodes = (
"208 44 OFFCURVE",
"115 161 OFFCURVE",
"115 353 CURVE SMOOTH",
"115 545 OFFCURVE",
"207 661 OFFCURVE",
"371 661 CURVE SMOOTH",
"538 661 OFFCURVE",
"628 545 OFFCURVE",
"628 353 CURVE SMOOTH",
"628 161 OFFCURVE",
"536 44 OFFCURVE",
"371 44 CURVE SMOOTH"
);
}
);
};
layerId = "9E718F8A-2CEA-4931-B05D-987794BD97DA";
paths = (
{
closed = 1;
nodes = (
"558 -6 OFFCURVE",
"684 126 OFFCURVE",
"684 353 CURVE SMOOTH",
"684 581 OFFCURVE",
"558 711 OFFCURVE",
"371 711 CURVE SMOOTH",
"185 711 OFFCURVE",
"59 581 OFFCURVE",
"59 352 CURVE SMOOTH",
"59 126 OFFCURVE",
"185 -6 OFFCURVE",
"371 -6 CURVE SMOOTH"
);
},
{
closed = 1;
nodes = (
"208 44 OFFCURVE",
"116 161 OFFCURVE",
"116 353 CURVE SMOOTH",
"116 545 OFFCURVE",
"207 661 OFFCURVE",
"371 661 CURVE SMOOTH",
"538 661 OFFCURVE",
"627 545 OFFCURVE",
"627 353 CURVE SMOOTH",
"627 161 OFFCURVE",
"536 44 OFFCURVE",
"371 44 CURVE SMOOTH"
);
}
);
width = 743;
},
{
layerId = "E1B555A7-F4E1-459C-9C1A-AE952106EEF9";
paths = (
{
closed = 1;
nodes = (
"602 -7 OFFCURVE",
"738 132 OFFCURVE",
"738 353 CURVE SMOOTH",
"738 573 OFFCURVE",
"602 712 OFFCURVE",
"393 712 CURVE SMOOTH",
"183 712 OFFCURVE",
"47 573 OFFCURVE",
"47 353 CURVE SMOOTH",
"47 132 OFFCURVE",
"183 -7 OFFCURVE",
"393 -7 CURVE SMOOTH"
);
},
{
closed = 1;
nodes = (
"272 118 OFFCURVE",
"208 197 OFFCURVE",
"208 353 CURVE SMOOTH",
"208 509 OFFCURVE",
"272 587 OFFCURVE",
"393 587 CURVE SMOOTH",
"513 587 OFFCURVE",
"578 509 OFFCURVE",
"578 353 CURVE SMOOTH",
"578 197 OFFCURVE",
"514 118 OFFCURVE",
"393 118 CURVE SMOOTH"
);
}
);
width = 785;
}
);
unicode = 004F;
userData = {
anchors = (
);
b = {
};
com.typemytype.robofont.guides = (
);
com.typemytype.robofont.layerData = {
b = {
anchors = (
);
components = (
);
contours = (
);
lib = {
};
name = O;
unicodes = (
);
width = 1597;
};
};
components = (
);
contours = (
);
lib = {
};
name = O;
unicodes = (
);
width = 1604;
};
},
{
glyphname = OE;
lastChange = "2016-08-18 13:02:30 +0000";
layers = (
{
layerId = "9E718F8A-2CEA-4931-B05D-987794BD97DA";
paths = (
{
closed = 1;
nodes = (
"967 0 LINE SMOOTH",
"981 0 OFFCURVE",
"991 10 OFFCURVE",
"991 25 CURVE SMOOTH",
"991 41 OFFCURVE",
"981 50 OFFCURVE",
"967 50 CURVE SMOOTH",
"608 50 LINE",
"608 333 LINE",
"947 333 LINE SMOOTH",
"961 333 OFFCURVE",
"971 343 OFFCURVE",
"971 358 CURVE SMOOTH",
"971 373 OFFCURVE",
"961 383 OFFCURVE",
"947 383 CURVE SMOOTH",
"608 383 LINE",
"608 655 LINE",
"967 655 LINE SMOOTH",
"981 655 OFFCURVE",
"991 664 OFFCURVE",
"991 680 CURVE SMOOTH",
"991 695 OFFCURVE",
"981 705 OFFCURVE",
"966 705 CURVE SMOOTH",
"406 705 LINE SMOOTH",
"185 705 OFFCURVE",
"59 581 OFFCURVE",
"59 353 CURVE SMOOTH",
"59 126 OFFCURVE",
"185 0 OFFCURVE",
"406 0 CURVE SMOOTH"
);
},
{
closed = 1;
nodes = (
"205 50 OFFCURVE",
"116 162 OFFCURVE",
"116 353 CURVE SMOOTH",
"116 545 OFFCURVE",
"205 655 OFFCURVE",
"409 655 CURVE SMOOTH",
"555 655 LINE",
"555 50 LINE",
"409 50 LINE SMOOTH"
);
}
);
width = 1051;
},
{
layerId = "E1B555A7-F4E1-459C-9C1A-AE952106EEF9";
paths = (
{
closed = 1;
nodes = (
"945 0 LINE SMOOTH",
"997 0 OFFCURVE",
"1021 23 OFFCURVE",
"1021 61 CURVE SMOOTH",
"1021 100 OFFCURVE",
"997 123 OFFCURVE",
"945 123 CURVE SMOOTH",
"673 123 LINE",
"673 295 LINE",
"925 295 LINE SMOOTH",
"977 295 OFFCURVE",
"1001 318 OFFCURVE",
"1001 356 CURVE SMOOTH",
"1001 395 OFFCURVE",
"977 418 OFFCURVE",
"925 418 CURVE SMOOTH",
"673 418 LINE",
"673 582 LINE",
"945 582 LINE SMOOTH",
"997 582 OFFCURVE",
"1021 605 OFFCURVE",
"1021 644 CURVE SMOOTH",
"1021 682 OFFCURVE",
"997 705 OFFCURVE",
"946 705 CURVE SMOOTH",
"418 705 LINE SMOOTH",
"183 705 OFFCURVE",
"47 573 OFFCURVE",
"47 353 CURVE SMOOTH",
"47 132 OFFCURVE",
"183 0 OFFCURVE",
"418 0 CURVE SMOOTH"
);
},
{
closed = 1;
nodes = (
"288 127 OFFCURVE",
"208 195 OFFCURVE",
"208 353 CURVE SMOOTH",
"208 510 OFFCURVE",
"288 578 OFFCURVE",
"429 578 CURVE SMOOTH",
"516 578 LINE",
"516 127 LINE",
"429 127 LINE SMOOTH"
);
}
);
width = 1054;
}
);
leftMetricsKey = O;
rightMetricsKey = E;
unicode = 0152;
},
{
glyphname = P;
lastChange = "2016-08-18 13:02:38 +0000";
layers = (
{
layerId = "9E718F8A-2CEA-4931-B05D-987794BD97DA";
paths = (
{
closed = 1;
nodes = (
"132 -5 OFFCURVE",
"141 7 OFFCURVE",
"141 24 CURVE SMOOTH",
"141 299 LINE",
"349 299 LINE SMOOTH",
"479 299 OFFCURVE",
"579 368 OFFCURVE",
"579 503 CURVE SMOOTH",
"579 639 OFFCURVE",
"485 705 OFFCURVE",
"349 705 CURVE SMOOTH",
"117 705 LINE SMOOTH",
"100 705 OFFCURVE",
"87 693 OFFCURVE",
"87 677 CURVE SMOOTH",
"87 24 LINE SMOOTH",
"87 7 OFFCURVE",
"97 -5 OFFCURVE",
"114 -5 CURVE SMOOTH"
);
},
{
closed = 1;
nodes = (
"142 655 LINE",
"346 655 LINE SMOOTH",
"454 655 OFFCURVE",
"523 613 OFFCURVE",
"523 503 CURVE SMOOTH",
"523 395 OFFCURVE",
"454 349 OFFCURVE",
"346 349 CURVE SMOOTH",
"142 349 LINE"
);
}
);
width = 624;
},
{
layerId = "E1B555A7-F4E1-459C-9C1A-AE952106EEF9";
paths = (
{
closed = 1;
nodes = (
"193 -6 OFFCURVE",
"229 20 OFFCURVE",
"229 74 CURVE SMOOTH",
"229 263 LINE",
"397 263 LINE SMOOTH",
"554 263 OFFCURVE",
"639 352 OFFCURVE",
"639 484 CURVE SMOOTH",
"639 617 OFFCURVE",
"555 705 OFFCURVE",
"397 705 CURVE SMOOTH",
"143 705 LINE SMOOTH",
"95 705 OFFCURVE",
"68 678 OFFCURVE",
"68 630 CURVE SMOOTH",
"68 74 LINE SMOOTH",
"68 20 OFFCURVE",
"104 -6 OFFCURVE",
"148 -6 CURVE SMOOTH"
);
},
{
closed = 1;
nodes = (
"227 582 LINE",
"369 582 LINE SMOOTH",
"445 582 OFFCURVE",
"486 553 OFFCURVE",
"486 483 CURVE SMOOTH",
"486 414 OFFCURVE",
"445 385 OFFCURVE",
"369 385 CURVE SMOOTH",
"227 385 LINE"
);
}
);
width = 673;
}
);
leftMetricsKey = H;
unicode = 0050;
userData = {
anchors = (
);
b = {
};
com.typemytype.robofont.layerData = {
b = {
anchors = (
);
components = (
);
contours = (
{
points = (
{
segmentType = curve;
smooth = 1;
x = 266;
y = 0;
},
{
segmentType = line;
smooth = 1;
x = 1035;
y = 0;
},
{
smooth = 0;
x = 1084;
y = 0;
},
{
smooth = 0;
x = 1108;
y = 34;
},
{
segmentType = curve;
smooth = 1;
x = 1108;
y = 71;
},
{
smooth = 0;
x = 1108;
y = 107;
},
{
smooth = 0;
x = 1084;
y = 141;
},
{
segmentType = curve;
smooth = 1;
x = 1035;
y = 141;
},
{
segmentType = line;
smooth = 0;
x = 356;
y = 141;
},
{
segmentType = line;
smooth = 0;
x = 356;
y = 665;
},
{
segmentType = line;
smooth = 1;
x = 975;
y = 665;
},
{
smooth = 0;
x = 1024;
y = 665;
},
{
smooth = 0;
x = 1049;
y = 698;
},
{
segmentType = curve;
smooth = 1;
x = 1049;
y = 734;
},
{
smooth = 0;
x = 1049;
y = 770;
},
{
smooth = 0;
x = 1026;
y = 803;
},
{
segmentType = curve;
smooth = 1;
x = 975;
y = 803;
},
{
segmentType = line;
smooth = 0;
x = 356;
y = 803;
},
{
segmentType = line;
smooth = 0;
x = 356;
y = 1285;
},
{
segmentType = line;
smooth = 1;
x = 1007;
y = 1285;
},
{
smooth = 0;
x = 1056;
y = 1285;
},
{
smooth = 0;
x = 1080;
y = 1319;
},
{
segmentType = curve;
smooth = 1;
x = 1080;
y = 1356;
},
{
smooth = 0;
x = 1080;
y = 1392;
},
{
smooth = 0;
x = 1056;
y = 1426;
},
{
segmentType = curve;
smooth = 1;
x = 1007;
y = 1426;
},
{
segmentType = line;
smooth = 1;
x = 261;
y = 1426;
},
{
smooth = 0;
x = 213;
y = 1426;
},
{
smooth = 0;
x = 178;
y = 1383;
},
{
segmentType = curve;
smooth = 1;
x = 178;
y = 1340;
},
{
segmentType = line;
smooth = 1;
x = 178;
y = 86;
},
{
smooth = 0;
x = 178;
y = 41;
},
{
smooth = 0;
x = 222;
y = 0;
}
);
}
);
lib = {
};
name = P;
unicodes = (
);
width = 1201;
};
};
components = (
);
contours = (
);
lib = {
};
name = P;
unicodes = (
);
width = 1319;
};
},
{
glyphname = Thorn;
lastChange = "2016-08-18 13:02:48 +0000";
layers = (
{
layerId = "9E718F8A-2CEA-4931-B05D-987794BD97DA";
paths = (
{
closed = 1;
nodes = (
"349 172 LINE SMOOTH",
"479 172 OFFCURVE",
"579 237 OFFCURVE",
"579 360 CURVE SMOOTH",
"579 483 OFFCURVE",
"485 545 OFFCURVE",
"349 545 CURVE SMOOTH",
"130 545 LINE",
"130 495 LINE",
"346 495 LINE SMOOTH",
"453 495 OFFCURVE",
"523 458 OFFCURVE",
"523 360 CURVE SMOOTH",
"523 263 OFFCURVE",
"453 222 OFFCURVE",
"346 222 CURVE SMOOTH",
"130 222 LINE",
"130 172 LINE"
);
},
{
closed = 1;
nodes = (
"131 -5 OFFCURVE",
"141 7 OFFCURVE",
"141 24 CURVE SMOOTH",
"141 681 LINE SMOOTH",
"141 698 OFFCURVE",
"131 710 OFFCURVE",
"114 710 CURVE SMOOTH",
"97 710 OFFCURVE",
"87 698 OFFCURVE",
"87 681 CURVE SMOOTH",
"87 24 LINE SMOOTH",
"87 7 OFFCURVE",
"97 -5 OFFCURVE",
"114 -5 CURVE SMOOTH"
);
}
);
width = 624;
},
{
layerId = "E1B555A7-F4E1-459C-9C1A-AE952106EEF9";
paths = (
{
closed = 1;
nodes = (
"396 152 LINE SMOOTH",
"555 152 OFFCURVE",
"639 236 OFFCURVE",
"639 358 CURVE SMOOTH",
"639 481 OFFCURVE",
"556 564 OFFCURVE",
"396 564 CURVE SMOOTH",
"206 564 LINE",
"206 441 LINE",
"369 441 LINE SMOOTH",
"450 441 OFFCURVE",
"486 417 OFFCURVE",
"486 358 CURVE SMOOTH",
"486 299 OFFCURVE",
"450 275 OFFCURVE",
"369 275 CURVE SMOOTH",
"206 275 LINE",
"206 152 LINE"
);
},
{
closed = 1;
nodes = (
"189 -6 OFFCURVE",
"226 20 OFFCURVE",
"226 74 CURVE SMOOTH",
"226 631 LINE SMOOTH",
"226 684 OFFCURVE",
"189 710 OFFCURVE",
"147 710 CURVE SMOOTH",
"104 710 OFFCURVE",
"68 684 OFFCURVE",
"68 631 CURVE SMOOTH",
"68 74 LINE SMOOTH",
"68 20 OFFCURVE",
"104 -6 OFFCURVE",
"147 -6 CURVE SMOOTH"
);
}
);
width = 673;
}
);
leftMetricsKey = H;
unicode = 00DE;
},
{
glyphname = Q;
lastChange = "2016-08-18 08:57:36 +0000";
layers = (
{
components = (
{
name = O;
}
);
layerId = "9E718F8A-2CEA-4931-B05D-987794BD97DA";
paths = (
{
closed = 1;
nodes = (
"574 -202 OFFCURVE",
"621 -181 OFFCURVE",
"602 -149 CURVE SMOOTH",
"550 -62 LINE SMOOTH",
"519 -11 OFFCURVE",
"494 17 OFFCURVE",
"421 17 CURVE",
"372 -6 LINE",
"442 -6 OFFCURVE",
"477 -39 OFFCURVE",
"494 -69 CURVE SMOOTH",
"551 -163 LINE SMOOTH"
);
}
);
width = 743;
},
{
components = (
{
name = O;
}
);
layerId = "E1B555A7-F4E1-459C-9C1A-AE952106EEF9";
paths = (
{
closed = 1;
nodes = (
"587 -228 OFFCURVE",
"734 -172 OFFCURVE",
"672 -76 CURVE SMOOTH",
"645 -32 LINE SMOOTH",
"612 18 OFFCURVE",
"570 39 OFFCURVE",
"505 39 CURVE",
"394 -7 LINE",
"440 -7 OFFCURVE",
"463 -21 OFFCURVE",
"478 -46 CURVE SMOOTH",
"538 -146 LINE SMOOTH"
);
}
);
width = 785;
}
);
leftMetricsKey = O;
widthMetricsKey = O;
unicode = 0051;
userData = {
anchors = (
);
b = {
};
com.typemytype.robofont.layerData = {
b = {
anchors = (
);
components = (
);
contours = (
);
lib = {
};
name = Q;
unicodes = (
);
width = 1597;
};
};
components = (
);
contours = (
);
lib = {
};
name = Q;
unicodes = (
);
width = 1604;
};
},
{
glyphname = R;
lastChange = "2016-08-18 08:57:36 +0000";
layers = (
{
layerId = "9E718F8A-2CEA-4931-B05D-987794BD97DA";
paths = (
{
closed = 1;
nodes = (
"131 -5 OFFCURVE",
"141 7 OFFCURVE",
"141 24 CURVE SMOOTH",
"141 308 LINE",
"283 308 LINE SMOOTH",
"357 308 OFFCURVE",
"392 289 OFFCURVE",
"431 226 CURVE SMOOTH",
"562 15 LINE SMOOTH",
"586 -23 OFFCURVE",
"634 -3 OFFCURVE",
"614 29 CURVE SMOOTH",
"484 238 LINE SMOOTH",
"448 296 OFFCURVE",
"414 323 OFFCURVE",
"348 323 CURVE",
"365 313 LINE",
"496 313 OFFCURVE",
"595 372 OFFCURVE",
"595 508 CURVE SMOOTH",
"595 643 OFFCURVE",
"500 705 OFFCURVE",
"365 705 CURVE SMOOTH",
"117 705 LINE SMOOTH",
"100 705 OFFCURVE",
"87 693 OFFCURVE",
"87 677 CURVE SMOOTH",
"87 24 LINE SMOOTH",
"87 7 OFFCURVE",
"97 -5 OFFCURVE",
"114 -5 CURVE SMOOTH"
);
},
{
closed = 1;
nodes = (
"141 655 LINE",
"363 655 LINE SMOOTH",
"470 655 OFFCURVE",
"539 619 OFFCURVE",
"539 509 CURVE SMOOTH",
"539 398 OFFCURVE",
"470 358 OFFCURVE",
"363 358 CURVE SMOOTH",
"141 358 LINE"
);
}
);
width = 660;
},
{
layerId = "E1B555A7-F4E1-459C-9C1A-AE952106EEF9";
paths = (
{
closed = 1;
nodes = (
"192 -6 OFFCURVE",
"227 20 OFFCURVE",
"227 74 CURVE SMOOTH",
"227 271 LINE",
"303 271 LINE SMOOTH",
"342 271 OFFCURVE",
"364 256 OFFCURVE",
"384 225 CURVE SMOOTH",
"515 30 LINE SMOOTH",
"571 -54 OFFCURVE",
"710 13 OFFCURVE",
"649 102 CURVE SMOOTH",
"575 212 LINE SMOOTH",
"534 272 OFFCURVE",
"495 290 OFFCURVE",
"426 290 CURVE",
"407 278 LINE",
"553 278 OFFCURVE",
"646 360 OFFCURVE",
"646 492 CURVE SMOOTH",
"646 627 OFFCURVE",
"564 705 OFFCURVE",
"404 705 CURVE SMOOTH",
"143 705 LINE SMOOTH",
"95 705 OFFCURVE",
"68 678 OFFCURVE",
"68 630 CURVE SMOOTH",
"68 74 LINE SMOOTH",
"68 20 OFFCURVE",
"103 -6 OFFCURVE",
"148 -6 CURVE SMOOTH"
);
},
{
closed = 1;
nodes = (
"225 582 LINE",
"375 582 LINE SMOOTH",
"456 582 OFFCURVE",
"493 556 OFFCURVE",
"493 489 CURVE SMOOTH",
"493 422 OFFCURVE",
"456 395 OFFCURVE",
"375 395 CURVE SMOOTH",
"225 395 LINE"
);
}
);
width = 705;
}
);
leftMetricsKey = H;
unicode = 0052;
userData = {
anchors = (
);
b = {
};
com.typemytype.robofont.guides = (
);
com.typemytype.robofont.layerData = {
b = {
anchors = (
);
components = (
);
contours = (
{
points = (
{
segmentType = curve;
smooth = 1;
x = 267;
y = 0;
},
{
smooth = 0;
x = 311;
y = 0;
},
{
smooth = 0;
x = 356;
y = 27;
},
{
segmentType = curve;
smooth = 1;
x = 356;
y = 84;
},
{
segmentType = line;
smooth = 0;
x = 356;
y = 628;
},
{
segmentType = line;
smooth = 1;
x = 669;
y = 628;
},
{
smooth = 0;
x = 962;
y = 628;
},
{
smooth = 0;
x = 1182;
y = 722;
},
{
segmentType = curve;
smooth = 1;
x = 1182;
y = 1026;
},
{
smooth = 0;
x = 1182;
y = 1324;
},
{
smooth = 0;
x = 993;
y = 1426;
},
{
segmentType = curve;
smooth = 1;
x = 684;
y = 1426;
},
{
segmentType = line;
smooth = 1;
x = 268;
y = 1426;
},
{
smooth = 0;
x = 217;
y = 1426;
},
{
smooth = 0;
x = 178;
y = 1387;
},
{
segmentType = curve;
smooth = 1;
x = 178;
y = 1339;
},
{
segmentType = line;
smooth = 1;
x = 178;
y = 84;
},
{
smooth = 0;
x = 178;
y = 28;
},
{
smooth = 0;
x = 222;
y = 0;
}
);
},
{
points = (
{
segmentType = line;
smooth = 0;
x = 356;
y = 764;
},
{
segmentType = line;
smooth = 0;
x = 356;
y = 1285;
},
{
segmentType = line;
smooth = 1;
x = 684;
y = 1285;
},
{
smooth = 0;
x = 914;
y = 1285;
},
{
smooth = 0;
x = 1008;
y = 1210;
},
{
segmentType = curve;
smooth = 1;
x = 1008;
y = 1026;
},
{
smooth = 0;
x = 1008;
y = 838;
},
{
smooth = 0;
x = 901;
y = 764;
},
{
segmentType = curve;
smooth = 1;
x = 670;
y = 764;
}
);
}
);
lib = {
};
name = R;
unicodes = (
);
width = 1363;
};
};
components = (
);
contours = (
);
lib = {
};
name = R;
unicodes = (
);
width = 1408;
};
},
{
glyphname = S;
lastChange = "2016-08-18 08:57:36 +0000";
layers = (
{
layerId = "9E718F8A-2CEA-4931-B05D-987794BD97DA";
paths = (
{
closed = 1;
nodes = (
"456 -6 OFFCURVE",
"548 79 OFFCURVE",
"548 185 CURVE SMOOTH",
"548 430 OFFCURVE",
"110 307 OFFCURVE",
"110 515 CURVE SMOOTH",
"110 613 OFFCURVE",
"189 661 OFFCURVE",
"302 661 CURVE SMOOTH",
"392 661 OFFCURVE",
"442 633 OFFCURVE",
"505 583 CURVE SMOOTH",
"514 577 OFFCURVE",
"520 574 OFFCURVE",
"526 574 CURVE SMOOTH",
"536 574 OFFCURVE",
"545 585 OFFCURVE",
"545 598 CURVE SMOOTH",
"545 608 OFFCURVE",
"541 616 OFFCURVE",
"533 625 CURVE SMOOTH",
"476 683 OFFCURVE",
"388 711 OFFCURVE",
"302 711 CURVE SMOOTH",
"137 711 OFFCURVE",
"54 618 OFFCURVE",
"54 515 CURVE SMOOTH",
"54 257 OFFCURVE",
"492 373 OFFCURVE",
"492 186 CURVE SMOOTH",
"492 92 OFFCURVE",
"418 44 OFFCURVE",
"299 44 CURVE SMOOTH",
"211 44 OFFCURVE",
"139 72 OFFCURVE",
"77 122 CURVE SMOOTH",
"69 128 OFFCURVE",
"62 131 OFFCURVE",
"56 131 CURVE SMOOTH",
"45 131 OFFCURVE",
"38 120 OFFCURVE",
"38 107 CURVE SMOOTH",
"38 98 OFFCURVE",
"42 89 OFFCURVE",
"49 80 CURVE SMOOTH",
"107 22 OFFCURVE",
"214 -6 OFFCURVE",
"299 -6 CURVE SMOOTH"
);
}
);
width = 588;
},
{
layerId = "E1B555A7-F4E1-459C-9C1A-AE952106EEF9";
paths = (
{
closed = 1;
nodes = (
"483 -7 OFFCURVE",
"607 71 OFFCURVE",
"607 207 CURVE SMOOTH",
"607 462 OFFCURVE",
"208 369 OFFCURVE",
"208 503 CURVE SMOOTH",
"208 551 OFFCURVE",
"250 587 OFFCURVE",
"333 587 CURVE SMOOTH",
"413 587 OFFCURVE",
"455 561 OFFCURVE",
"494 537 CURVE SMOOTH",
"511 527 OFFCURVE",
"523 520 OFFCURVE",
"543 520 CURVE SMOOTH",
"576 520 OFFCURVE",
"595 556 OFFCURVE",
"595 585 CURVE SMOOTH",
"595 608 OFFCURVE",
"588 625 OFFCURVE",
"566 641 CURVE SMOOTH",
"509 685 OFFCURVE",
"436 712 OFFCURVE",
"332 712 CURVE SMOOTH",
"152 712 OFFCURVE",
"48 609 OFFCURVE",
"48 493 CURVE SMOOTH",
"48 241 OFFCURVE",
"447 323 OFFCURVE",
"447 200 CURVE SMOOTH",
"447 151 OFFCURVE",
"410 118 OFFCURVE",
"316 118 CURVE SMOOTH",
"231 118 OFFCURVE",
"179 140 OFFCURVE",
"134 168 CURVE SMOOTH",
"117 178 OFFCURVE",
"104 185 OFFCURVE",
"85 185 CURVE SMOOTH",
"52 185 OFFCURVE",
"33 149 OFFCURVE",
"33 120 CURVE SMOOTH",
"33 97 OFFCURVE",
"39 80 OFFCURVE",
"62 64 CURVE SMOOTH",
"113 24 OFFCURVE",
"203 -7 OFFCURVE",
"320 -7 CURVE SMOOTH"
);
}
);
width = 650;
}
);
unicode = 0053;
userData = {
anchors = (
);
b = {
};
com.typemytype.robofont.layerData = {
b = {
anchors = (
);
components = (
);
contours = (
);
lib = {
};
name = S;
unicodes = (
);
width = 1274;
};
};
components = (
);
contours = (
);
lib = {
};
name = S;
unicodes = (
);
width = 1317;
};
},
{
glyphname = T;
lastChange = "2016-08-18 08:57:36 +0000";
layers = (
{
layerId = "9E718F8A-2CEA-4931-B05D-987794BD97DA";
paths = (
{
closed = 1;
nodes = (
"308 -5 OFFCURVE",
"318 7 OFFCURVE",
"318 24 CURVE SMOOTH",
"318 655 LINE",
"553 655 LINE SMOOTH",
"567 655 OFFCURVE",
"578 665 OFFCURVE",
"578 680 CURVE SMOOTH",
"578 695 OFFCURVE",
"567 705 OFFCURVE",
"553 705 CURVE SMOOTH",
"28 705 LINE SMOOTH",
"14 705 OFFCURVE",
"4 695 OFFCURVE",
"4 680 CURVE SMOOTH",
"4 665 OFFCURVE",
"14 655 OFFCURVE",
"28 655 CURVE SMOOTH",
"264 655 LINE",
"264 24 LINE SMOOTH",
"264 7 OFFCURVE",
"274 -5 OFFCURVE",
"291 -5 CURVE SMOOTH"
);
}
);
width = 582;
},
{
layerId = "E1B555A7-F4E1-459C-9C1A-AE952106EEF9";
paths = (
{
closed = 1;
nodes = (
"359 -5 OFFCURVE",
"396 21 OFFCURVE",
"396 74 CURVE SMOOTH",
"396 572 LINE",
"554 572 LINE SMOOTH",
"607 572 OFFCURVE",
"630 596 OFFCURVE",
"630 639 CURVE SMOOTH",
"630 681 OFFCURVE",
"607 705 OFFCURVE",
"554 705 CURVE SMOOTH",
"76 705 LINE SMOOTH",
"23 705 OFFCURVE",
"0 681 OFFCURVE",
"0 639 CURVE SMOOTH",
"0 596 OFFCURVE",
"23 572 OFFCURVE",
"76 572 CURVE SMOOTH",
"234 572 LINE",
"234 74 LINE SMOOTH",
"234 21 OFFCURVE",
"271 -5 OFFCURVE",
"315 -5 CURVE SMOOTH"
);
}
);
width = 630;
}
);
unicode = 0054;
userData = {
anchors = (
);
b = {
};
com.typemytype.robofont.layerData = {
b = {
anchors = (
);
components = (
);
contours = (
{
points = (
{
segmentType = curve;
smooth = 1;
x = 581;
y = 0;
},
{
segmentType = line;
smooth = 1;
x = 1350;
y = 0;
},
{
smooth = 0;
x = 1399;
y = 0;
},
{
smooth = 0;
x = 1423;
y = 34;
},
{
segmentType = curve;
smooth = 1;
x = 1423;
y = 71;
},
{
smooth = 0;
x = 1423;
y = 107;
},
{
smooth = 0;
x = 1399;
y = 141;
},
{
segmentType = curve;
smooth = 1;
x = 1350;
y = 141;
},
{
segmentType = line;
smooth = 0;
x = 671;
y = 141;
},
{
segmentType = line;
smooth = 0;
x = 671;
y = 665;
},
{
segmentType = line;
smooth = 1;
x = 1290;
y = 665;
},
{
smooth = 0;
x = 1339;
y = 665;
},
{
smooth = 0;
x = 1364;
y = 698;
},
{
segmentType = curve;
smooth = 1;
x = 1364;
y = 734;
},
{
smooth = 0;
x = 1364;
y = 770;
},
{
smooth = 0;
x = 1341;
y = 803;
},
{
segmentType = curve;
smooth = 1;
x = 1290;
y = 803;
},
{
segmentType = line;
smooth = 0;
x = 671;
y = 803;
},
{
segmentType = line;
smooth = 0;
x = 671;
y = 1285;
},
{
segmentType = line;
smooth = 1;
x = 1322;
y = 1285;
},
{
smooth = 0;
x = 1371;
y = 1285;
},
{
smooth = 0;
x = 1395;
y = 1319;
},
{
segmentType = curve;
smooth = 1;
x = 1395;
y = 1356;
},
{
smooth = 0;
x = 1395;
y = 1392;
},
{
smooth = 0;
x = 1371;
y = 1426;
},
{
segmentType = curve;
smooth = 1;
x = 1322;
y = 1426;
},
{
segmentType = line;
smooth = 1;
x = 576;
y = 1426;
},
{
smooth = 0;
x = 528;
y = 1426;
},
{
smooth = 0;
x = 493;
y = 1383;
},
{
segmentType = curve;
smooth = 1;
x = 493;
y = 1340;
},
{
segmentType = line;
smooth = 1;
x = 493;
y = 86;
},
{
smooth = 0;
x = 493;
y = 41;
},
{
smooth = 0;
x = 537;
y = 0;
}
);
}
);
lib = {
};
name = T;
unicodes = (
);
width = 1158;
};
};
components = (
);
contours = (
);
lib = {
};
name = T;
unicodes = (
);
width = 1199;
};
},
{
glyphname = U;
lastChange = "2016-08-18 08:57:36 +0000";
layers = (
{
layerId = "9E718F8A-2CEA-4931-B05D-987794BD97DA";
paths = (
{
closed = 1;
nodes = (
"510 -6 OFFCURVE",
"624 68 OFFCURVE",
"624 270 CURVE SMOOTH",
"624 681 LINE SMOOTH",
"624 698 OFFCURVE",
"614 710 OFFCURVE",
"597 710 CURVE SMOOTH",
"582 710 OFFCURVE",
"570 698 OFFCURVE",
"570 681 CURVE SMOOTH",
"570 263 LINE SMOOTH",
"570 105 OFFCURVE",
"483 44 OFFCURVE",
"353 44 CURVE SMOOTH",
"222 44 OFFCURVE",
"136 105 OFFCURVE",
"136 263 CURVE SMOOTH",
"136 681 LINE SMOOTH",
"136 698 OFFCURVE",
"126 710 OFFCURVE",
"109 710 CURVE SMOOTH",
"92 710 OFFCURVE",
"82 698 OFFCURVE",
"82 681 CURVE SMOOTH",
"82 270 LINE SMOOTH",
"82 68 OFFCURVE",
"195 -6 OFFCURVE",
"353 -6 CURVE SMOOTH"
);
}
);
width = 706;
},
{
layerId = "E1B555A7-F4E1-459C-9C1A-AE952106EEF9";
paths = (
{
closed = 1;
nodes = (
"562 -7 OFFCURVE",
"675 93 OFFCURVE",
"675 294 CURVE SMOOTH",
"675 631 LINE SMOOTH",
"675 684 OFFCURVE",
"638 710 OFFCURVE",
"596 710 CURVE SMOOTH",
"553 710 OFFCURVE",
"517 684 OFFCURVE",
"517 631 CURVE SMOOTH",
"517 287 LINE SMOOTH",
"517 165 OFFCURVE",
"454 118 OFFCURVE",
"370 118 CURVE SMOOTH",
"285 118 OFFCURVE",
"223 165 OFFCURVE",
"223 287 CURVE SMOOTH",
"223 631 LINE SMOOTH",
"223 684 OFFCURVE",
"186 710 OFFCURVE",
"144 710 CURVE SMOOTH",
"101 710 OFFCURVE",
"65 684 OFFCURVE",
"65 631 CURVE SMOOTH",
"65 294 LINE SMOOTH",
"65 90 OFFCURVE",
"177 -7 OFFCURVE",
"370 -7 CURVE SMOOTH"
);
}
);
width = 740;
}
);
unicode = 0055;
userData = {
anchors = (
);
b = {
};
com.typemytype.robofont.layerData = {
b = {
anchors = (
);
components = (
);
contours = (
);
lib = {
};
name = U;
unicodes = (
);
width = 1490;
};
};
components = (
);
contours = (
);
lib = {
};
name = U;
unicodes = (
);
width = 1513;
};
},
{
glyphname = V;
lastChange = "2016-08-18 08:57:36 +0000";
layers = (
{
layerId = "9E718F8A-2CEA-4931-B05D-987794BD97DA";
paths = (
{
closed = 1;
nodes = (
"322 -12 OFFCURVE",
"360 -10 OFFCURVE",
"370 15 CURVE SMOOTH",
"663 678 LINE SMOOTH",
"676 708 OFFCURVE",
"627 726 OFFCURVE",
"613 694 CURVE SMOOTH",
"326 40 LINE",
"355 40 LINE",
"68 694 LINE SMOOTH",
"54 726 OFFCURVE",
"5 708 OFFCURVE",
"18 678 CURVE SMOOTH",
"310 15 LINE SMOOTH"
);
}
);
width = 681;
},
{
layerId = "E1B555A7-F4E1-459C-9C1A-AE952106EEF9";
paths = (
{
closed = 1;
nodes = (
"314 -21 OFFCURVE",
"418 -19 OFFCURVE",
"449 46 CURVE SMOOTH",
"718 609 LINE SMOOTH",
"760 696 OFFCURVE",
"621 755 OFFCURVE",
"581 668 CURVE SMOOTH",
"345 154 LINE",
"390 154 LINE",
"154 668 LINE SMOOTH",
"113 755 OFFCURVE",
"-29 696 OFFCURVE",
"13 609 CURVE SMOOTH",
"282 46 LINE SMOOTH"
);
}
);
width = 731;
}
);
unicode = 0056;
userData = {
anchors = (
);
b = {
};
com.typemytype.robofont.guides = (
);
com.typemytype.robofont.layerData = {
b = {
anchors = (
);
components = (
);
contours = (
{
points = (
{
segmentType = curve;
smooth = 1;
x = 644;
y = "-5";
},
{
smooth = 0;
x = 712;
y = "-5";
},
{
smooth = 0;
x = 764;
y = 38;
},
{
segmentType = curve;
smooth = 1;
x = 793;
y = 117;
},
{
segmentType = line;
smooth = 1;
x = 1243;
y = 1324;
},
{
smooth = 0;
x = 1247;
y = 1335;
},
{
smooth = 0;
x = 1248;
y = 1342;
},
{
segmentType = curve;
smooth = 1;
x = 1248;
y = 1351;
},
{
smooth = 0;
x = 1248;
y = 1395;
},
{
smooth = 0;
x = 1203;
y = 1427;
},
{
segmentType = curve;
smooth = 1;
x = 1160;
y = 1427;
},
{
smooth = 0;
x = 1125;
y = 1427;
},
{
smooth = 0;
x = 1090;
y = 1408;
},
{
segmentType = curve;
smooth = 1;
x = 1076;
y = 1369;
},
{
segmentType = line;
smooth = 0;
x = 651;
y = 192;
},
{
segmentType = line;
smooth = 0;
x = 650;
y = 190;
},
{
segmentType = line;
smooth = 1;
x = 214;
y = 1370;
},
{
smooth = 0;
x = 200;
y = 1407;
},
{
smooth = 0;
x = 170;
y = 1427;
},
{
segmentType = curve;
smooth = 1;
x = 135;
y = 1427;
},
{
smooth = 0;
x = 90;
y = 1427;
},
{
smooth = 0;
x = 43;
y = 1392;
},
{
segmentType = curve;
smooth = 1;
x = 43;
y = 1344;
},
{
smooth = 0;
x = 43;
y = 1336;
},
{
smooth = 0;
x = 44;
y = 1326;
},
{
segmentType = curve;
smooth = 0;
x = 48;
y = 1318;
},
{
segmentType = line;
smooth = 1;
x = 501;
y = 117;
},
{
smooth = 0;
x = 532;
y = 35;
},
{
smooth = 0;
x = 581;
y = "-5";
}
);
}
);
lib = {
};
name = V;
unicodes = (
);
width = 1289;
};
};
components = (
);
contours = (
);
lib = {
};
name = V;
unicodes = (
);
width = 1365;
};
},
{
glyphname = W;
lastChange = "2016-08-18 08:57:36 +0000";
layers = (
{
layerId = "9E718F8A-2CEA-4931-B05D-987794BD97DA";
paths = (
{
closed = 1;
nodes = (
"291 -13 OFFCURVE",
"330 -11 OFFCURVE",
"339 15 CURVE SMOOTH",
"565 649 LINE",
"543 649 LINE",
"768 15 LINE SMOOTH",
"778 -13 OFFCURVE",
"817 -11 OFFCURVE",
"826 15 CURVE SMOOTH",
"1060 678 LINE SMOOTH",
"1071 708 OFFCURVE",
"1021 725 OFFCURVE",
"1010 694 CURVE SMOOTH",
"781 38 LINE",
"811 38 LINE",
"583 685 LINE SMOOTH",
"571 715 OFFCURVE",
"535 715 OFFCURVE",
"525 686 CURVE SMOOTH",
"296 38 LINE",
"325 38 LINE",
"96 694 LINE SMOOTH",
"86 725 OFFCURVE",
"36 708 OFFCURVE",
"47 678 CURVE SMOOTH",
"281 15 LINE SMOOTH"
);
}
);
width = 1107;
},
{
layerId = "E1B555A7-F4E1-459C-9C1A-AE952106EEF9";
paths = (
{
closed = 1;
nodes = (
"271 -24 OFFCURVE",
"386 -23 OFFCURVE",
"411 46 CURVE SMOOTH",
"572 487 LINE",
"550 487 LINE",
"706 46 LINE SMOOTH",
"731 -24 OFFCURVE",
"846 -23 OFFCURVE",
"872 46 CURVE SMOOTH",
"1079 609 LINE SMOOTH",
"1119 716 OFFCURVE",
"975 750 OFFCURVE",
"943 661 CURVE SMOOTH",
"771 175 LINE",
"801 175 LINE",
"635 659 LINE SMOOTH",
"612 729 OFFCURVE",
"519 729 OFFCURVE",
"493 660 CURVE SMOOTH",
"316 175 LINE",
"353 175 LINE",
"183 661 LINE SMOOTH",
"151 750 OFFCURVE",
"0 716 OFFCURVE",
"39 609 CURVE SMOOTH",
"246 46 LINE SMOOTH"
);
}
);
width = 1118;
}
);
unicode = 0057;
userData = {
anchors = (
);
b = {
};
com.typemytype.robofont.layerData = {
b = {
anchors = (
);
components = (
);
contours = (
);
lib = {
};
name = W;
unicodes = (
);
width = 2126;
};
};
components = (
);
contours = (
);
lib = {
};
name = W;
unicodes = (
);
width = 2070;
};
},
{
glyphname = X;
lastChange = "2016-08-18 08:57:36 +0000";
layers = (
{
layerId = "9E718F8A-2CEA-4931-B05D-987794BD97DA";
paths = (
{
closed = 1;
nodes = (
"321 321 LINE",
"353 361 LINE",
"592 667 LINE SMOOTH",
"614 694 OFFCURVE",
"574 727 OFFCURVE",
"552 698 CURVE SMOOTH",
"321 401 LINE",
"290 361 LINE",
"37 38 LINE SMOOTH",
"15 11 OFFCURVE",
"55 -21 OFFCURVE",
"77 7 CURVE SMOOTH"
);
},
{
closed = 1;
nodes = (
"588 -21 OFFCURVE",
"627 11 OFFCURVE",
"605 38 CURVE SMOOTH",
"353 361 LINE",
"321 401 LINE",
"90 698 LINE SMOOTH",
"68 727 OFFCURVE",
"29 694 OFFCURVE",
"51 667 CURVE SMOOTH",
"290 361 LINE",
"321 321 LINE",
"565 7 LINE SMOOTH"
);
}
);
width = 642;
},
{
layerId = "E1B555A7-F4E1-459C-9C1A-AE952106EEF9";
paths = (
{
closed = 1;
nodes = (
"340 245 LINE",
"433 356 LINE",
"629 589 LINE SMOOTH",
"693 663 OFFCURVE",
"579 758 OFFCURVE",
"519 684 CURVE SMOOTH",
"340 467 LINE",
"246 356 LINE",
"43 116 LINE SMOOTH",
"-21 41 OFFCURVE",
"92 -52 OFFCURVE",
"153 20 CURVE SMOOTH"
);
},
{
closed = 1;
nodes = (
"586 -53 OFFCURVE",
"700 41 OFFCURVE",
"635 116 CURVE SMOOTH",
"433 356 LINE",
"340 467 LINE",
"160 684 LINE SMOOTH",
"98 757 OFFCURVE",
"-14 663 OFFCURVE",
"50 589 CURVE SMOOTH",
"246 356 LINE",
"340 245 LINE",
"525 20 LINE SMOOTH"
);
}
);
width = 679;
}
);
unicode = 0058;
userData = {
anchors = (
);
b = {
};
com.typemytype.robofont.layerData = {
b = {
anchors = (
);
components = (
);
contours = (
{
points = (
{
segmentType = curve;
smooth = 1;
x = 151;
y = 0;
},
{
smooth = 0;
x = 176;
y = 0;
},
{
smooth = 0;
x = 201;
y = 12;
},
{
segmentType = curve;
smooth = 1;
x = 222;
y = 41;
},
{
segmentType = line;
smooth = 0;
x = 641;
y = 616;
},
{
segmentType = line;
smooth = 0;
x = 746;
y = 734;
},
{
segmentType = line;
smooth = 1;
x = 1175;
y = 1310;
},
{
smooth = 0;
x = 1186;
y = 1325;
},
{
smooth = 0;
x = 1190;
y = 1338;
},
{
segmentType = curve;
smooth = 1;
x = 1190;
y = 1353;
},
{
smooth = 0;
x = 1190;
y = 1393;
},
{
smooth = 0;
x = 1153;
y = 1426;
},
{
segmentType = curve;
smooth = 1;
x = 1110;
y = 1426;
},
{
smooth = 0;
x = 1083;
y = 1426;
},
{
smooth = 0;
x = 1058;
y = 1414;
},
{
segmentType = curve;
smooth = 1;
x = 1037;
y = 1385;
},
{
segmentType = line;
smooth = 0;
x = 648;
y = 844;
},
{
segmentType = line;
smooth = 0;
x = 542;
y = 732;
},
{
segmentType = line;
smooth = 1;
x = 84;
y = 121;
},
{
smooth = 0;
x = 73;
y = 106;
},
{
smooth = 0;
x = 68;
y = 91;
},
{
segmentType = curve;
smooth = 1;
x = 68;
y = 76;
},
{
smooth = 0;
x = 68;
y = 35;
},
{
smooth = 0;
x = 108;
y = 0;
}
);
},
{
points = (
{
segmentType = curve;
smooth = 1;
x = 1104;
y = 0;
},
{
smooth = 0;
x = 1151;
y = 0;
},
{
smooth = 0;
x = 1200;
y = 40;
},
{
segmentType = curve;
smooth = 1;
x = 1200;
y = 85;
},
{
smooth = 0;
x = 1200;
y = 98;
},
{
smooth = 0;
x = 1195;
y = 113;
},
{
segmentType = curve;
smooth = 0;
x = 1186;
y = 126;
},
{
segmentType = line;
smooth = 0;
x = 272;
y = 1385;
},
{
smooth = 0;
x = 252;
y = 1414;
},
{
smooth = 0;
x = 225;
y = 1426;
},
{
segmentType = curve;
smooth = 1;
x = 197;
y = 1426;
},
{
smooth = 0;
x = 149;
y = 1426;
},
{
smooth = 0;
x = 100;
y = 1388;
},
{
segmentType = curve;
smooth = 1;
x = 100;
y = 1343;
},
{
smooth = 0;
x = 100;
y = 1328;
},
{
smooth = 0;
x = 105;
y = 1315;
},
{
segmentType = curve;
smooth = 0;
x = 114;
y = 1303;
},
{
segmentType = line;
smooth = 0;
x = 1033;
y = 40;
},
{
smooth = 0;
x = 1052;
y = 13;
},
{
smooth = 0;
x = 1076;
y = 0;
}
);
}
);
lib = {
};
name = X;
unicodes = (
);
width = 1274;
};
};
components = (
);
contours = (
);
lib = {
};
name = X;
unicodes = (
);
width = 1322;
};
},
{
glyphname = Y;
lastChange = "2016-08-18 08:57:36 +0000";
layers = (
{
layerId = "9E718F8A-2CEA-4931-B05D-987794BD97DA";
paths = (
{
closed = 1;
nodes = (
"311 -5 OFFCURVE",
"321 7 OFFCURVE",
"321 24 CURVE SMOOTH",
"321 370 LINE",
"309 325 LINE",
"573 667 LINE SMOOTH",
"594 694 OFFCURVE",
"555 727 OFFCURVE",
"533 698 CURVE SMOOTH",
"286 377 LINE",
"303 377 LINE",
"55 698 LINE SMOOTH",
"33 727 OFFCURVE",
"-5 694 OFFCURVE",
"15 667 CURVE SMOOTH",
"280 325 LINE",
"267 370 LINE",
"267 24 LINE SMOOTH",
"267 7 OFFCURVE",
"277 -5 OFFCURVE",
"294 -5 CURVE SMOOTH"
);
}
);
width = 588;
},
{
layerId = "E1B555A7-F4E1-459C-9C1A-AE952106EEF9";
paths = (
{
closed = 1;
nodes = (
"365 -6 OFFCURVE",
"401 20 OFFCURVE",
"401 74 CURVE SMOOTH",
"401 382 LINE",
"368 293 LINE",
"618 589 LINE SMOOTH",
"682 663 OFFCURVE",
"571 758 OFFCURVE",
"509 684 CURVE SMOOTH",
"304 435 LINE",
"337 435 LINE",
"132 684 LINE SMOOTH",
"70 758 OFFCURVE",
"-41 663 OFFCURVE",
"24 589 CURVE SMOOTH",
"273 293 LINE",
"240 382 LINE",
"240 74 LINE SMOOTH",
"240 20 OFFCURVE",
"276 -6 OFFCURVE",
"321 -6 CURVE SMOOTH"
);
}
);
width = 641;
}
);
unicode = 0059;
userData = {
anchors = (
);
b = {
};
com.typemytype.robofont.guides = (
);
com.typemytype.robofont.layerData = {
b = {
anchors = (
);
components = (
);
contours = (
{
points = (
{
segmentType = curve;
smooth = 1;
x = 641;
y = 0;
},
{
smooth = 0;
x = 685;
y = 0;
},
{
smooth = 0;
x = 730;
y = 29;
},
{
segmentType = curve;
smooth = 1;
x = 730;
y = 85;
},
{
segmentType = line;
smooth = 0;
x = 730;
y = 1285;
},
{
segmentType = line;
smooth = 1;
x = 1115;
y = 1285;
},
{
smooth = 0;
x = 1164;
y = 1285;
},
{
smooth = 0;
x = 1190;
y = 1319;
},
{
segmentType = curve;
smooth = 1;
x = 1190;
y = 1355;
},
{
smooth = 0;
x = 1190;
y = 1392;
},
{
smooth = 0;
x = 1166;
y = 1426;
},
{
segmentType = curve;
smooth = 1;
x = 1115;
y = 1426;
},
{
segmentType = line;
smooth = 1;
x = 160;
y = 1426;
},
{
smooth = 0;
x = 111;
y = 1426;
},
{
smooth = 0;
x = 86;
y = 1392;
},
{
segmentType = curve;
smooth = 1;
x = 86;
y = 1355;
},
{
smooth = 0;
x = 86;
y = 1319;
},
{
smooth = 0;
x = 111;
y = 1285;
},
{
segmentType = curve;
smooth = 1;
x = 160;
y = 1285;
},
{
segmentType = line;
smooth = 0;
x = 552;
y = 1285;
},
{
segmentType = line;
smooth = 1;
x = 552;
y = 85;
},
{
smooth = 0;
x = 552;
y = 29;
},
{
smooth = 0;
x = 596;
y = 0;
}
);
}
);
lib = {
};
name = Y;
unicodes = (
);
width = 1278;
};
};
components = (
);
contours = (
);
lib = {
};
name = Y;
unicodes = (
);
width = 1321;
};
},
{
glyphname = Z;
lastChange = "2016-08-18 08:57:36 +0000";
layers = (
{
layerId = "9E718F8A-2CEA-4931-B05D-987794BD97DA";
paths = (
{
closed = 1;
nodes = (
"522 0 LINE SMOOTH",
"537 0 OFFCURVE",
"547 10 OFFCURVE",
"547 25 CURVE SMOOTH",
"547 40 OFFCURVE",
"537 50 OFFCURVE",
"522 50 CURVE SMOOTH",
"78 50 LINE",
"78 7 LINE",
"530 661 LINE SMOOTH",
"545 682 OFFCURVE",
"536 705 OFFCURVE",
"510 705 CURVE SMOOTH",
"60 705 LINE SMOOTH",
"46 705 OFFCURVE",
"36 695 OFFCURVE",
"36 680 CURVE SMOOTH",
"36 665 OFFCURVE",
"46 655 OFFCURVE",
"60 655 CURVE SMOOTH",
"494 655 LINE",
"494 698 LINE",
"43 45 LINE SMOOTH",
"27 23 OFFCURVE",
"36 0 OFFCURVE",
"62 0 CURVE SMOOTH"
);
}
);
width = 574;
},
{
layerId = "E1B555A7-F4E1-459C-9C1A-AE952106EEF9";
paths = (
{
closed = 1;
nodes = (
"514 0 LINE SMOOTH",
"567 0 OFFCURVE",
"590 23 OFFCURVE",
"590 65 CURVE SMOOTH",
"590 106 OFFCURVE",
"567 129 OFFCURVE",
"514 129 CURVE SMOOTH",
"197 129 LINE",
"197 83 LINE",
"556 580 LINE SMOOTH",
"598 637 OFFCURVE",
"573 705 OFFCURVE",
"506 705 CURVE SMOOTH",
"110 705 LINE SMOOTH",
"57 705 OFFCURVE",
"34 682 OFFCURVE",
"34 640 CURVE SMOOTH",
"34 599 OFFCURVE",
"57 576 OFFCURVE",
"110 576 CURVE SMOOTH",
"412 576 LINE",
"412 622 LINE",
"53 125 LINE SMOOTH",
"12 69 OFFCURVE",
"36 0 OFFCURVE",
"103 0 CURVE SMOOTH"
);
}
);
width = 610;
}
);
unicode = 005A;
userData = {
anchors = (
);
b = {
};
com.typemytype.robofont.layerData = {
b = {
anchors = (
);
components = (
);
contours = (
{
points = (
{
segmentType = curve;
smooth = 1;
x = 266;
y = 0;
},
{
segmentType = line;
smooth = 1;
x = 1035;
y = 0;
},
{
smooth = 0;
x = 1084;
y = 0;
},
{
smooth = 0;
x = 1108;
y = 34;
},
{
segmentType = curve;
smooth = 1;
x = 1108;
y = 71;
},
{
smooth = 0;
x = 1108;
y = 107;
},
{
smooth = 0;
x = 1084;
y = 141;
},
{
segmentType = curve;
smooth = 1;
x = 1035;
y = 141;
},
{
segmentType = line;
smooth = 0;
x = 356;
y = 141;
},
{
segmentType = line;
smooth = 0;
x = 356;
y = 665;
},
{
segmentType = line;
smooth = 1;
x = 975;
y = 665;
},
{
smooth = 0;
x = 1024;
y = 665;
},
{
smooth = 0;
x = 1049;
y = 698;
},
{
segmentType = curve;
smooth = 1;
x = 1049;
y = 734;
},
{
smooth = 0;
x = 1049;
y = 770;
},
{
smooth = 0;
x = 1026;
y = 803;
},
{
segmentType = curve;
smooth = 1;
x = 975;
y = 803;
},
{
segmentType = line;
smooth = 0;
x = 356;
y = 803;
},
{
segmentType = line;
smooth = 0;
x = 356;
y = 1285;
},
{
segmentType = line;
smooth = 1;
x = 1007;
y = 1285;
},
{
smooth = 0;
x = 1056;
y = 1285;
},
{
smooth = 0;
x = 1080;
y = 1319;
},
{
segmentType = curve;
smooth = 1;
x = 1080;
y = 1356;
},
{
smooth = 0;
x = 1080;
y = 1392;
},
{
smooth = 0;
x = 1056;
y = 1426;
},
{
segmentType = curve;
smooth = 1;
x = 1007;
y = 1426;
},
{
segmentType = line;
smooth = 1;
x = 261;
y = 1426;
},
{
smooth = 0;
x = 213;
y = 1426;
},
{
smooth = 0;
x = 178;
y = 1383;
},
{
segmentType = curve;
smooth = 1;
x = 178;
y = 1340;
},
{
segmentType = line;
smooth = 1;
x = 178;
y = 86;
},
{
smooth = 0;
x = 178;
y = 41;
},
{
smooth = 0;
x = 222;
y = 0;
}
);
}
);
lib = {
};
name = Z;
unicodes = (
);
width = 1165;
};
};
components = (
);
contours = (
);
lib = {
};
name = Z;
unicodes = (
);
width = 1222;
};
},
{
glyphname = a;
lastChange = "2016-08-19 14:27:32 +0000";
layers = (
{
background = {
paths = (
{
closed = 1;
nodes = (
"376 204 LINE SMOOTH",
"376 105 OFFCURVE",
"307 44 OFFCURVE",
"224 44 CURVE SMOOTH",
"155 44 OFFCURVE",
"110 89 OFFCURVE",
"110 142 CURVE SMOOTH",
"110 208 OFFCURVE",
"144 236 OFFCURVE",
"357 236 CURVE SMOOTH",
"387 236 LINE",
"387 279 LINE",
"355 279 LINE SMOOTH",
"127 279 OFFCURVE",
"51 246 OFFCURVE",
"52 137 CURVE SMOOTH",
"53 60 OFFCURVE",
"124 -5 OFFCURVE",
"221 -5 CURVE SMOOTH",
"301 -5 OFFCURVE",
"366 42 OFFCURVE",
"388 111 CURVE",
"377 129 LINE",
"377 24 LINE SMOOTH",
"377 6 OFFCURVE",
"389 -4 OFFCURVE",
"404 -4 CURVE SMOOTH",
"420 -4 OFFCURVE",
"431 6 OFFCURVE",
"431 24 CURVE SMOOTH",
"431 317 LINE SMOOTH",
"431 443 OFFCURVE",
"363 495 OFFCURVE",
"258 495 CURVE SMOOTH",
"203 495 OFFCURVE",
"143 480 OFFCURVE",
"96 452 CURVE SMOOTH",
"69 436 OFFCURVE",
"61 424 OFFCURVE",
"61 410 CURVE SMOOTH",
"61 397 OFFCURVE",
"71 387 OFFCURVE",
"82 387 CURVE SMOOTH",
"109 387 OFFCURVE",
"142 446 OFFCURVE",
"262 446 CURVE SMOOTH",
"335 446 OFFCURVE",
"376 414 OFFCURVE",
"376 312 CURVE SMOOTH"
);
}
);
};
layerId = "9E718F8A-2CEA-4931-B05D-987794BD97DA";
paths = (
{
closed = 1;
nodes = (
"181 -3 OFFCURVE",
"220 25 OFFCURVE",
"233 67 CURVE",
"226 77 LINE",
"226 14 LINE SMOOTH",
"226 4 OFFCURVE",
"233 -2 OFFCURVE",
"242 -2 CURVE SMOOTH",
"251 -2 OFFCURVE",
"258 4 OFFCURVE",
"258 14 CURVE SMOOTH",
"258 187 LINE SMOOTH",
"258 267 OFFCURVE",
"218 297 OFFCURVE",
"155 297 CURVE SMOOTH",
"122 297 OFFCURVE",
"86 288 OFFCURVE",
"58 271 CURVE SMOOTH",
"41 262 OFFCURVE",
"37 254 OFFCURVE",
"37 246 CURVE SMOOTH",
"37 238 OFFCURVE",
"43 232 OFFCURVE",
"49 232 CURVE SMOOTH",
"55 232 OFFCURVE",
"62 237 OFFCURVE",
"71 244 CURVE SMOOTH",
"88 254 OFFCURVE",
"117 268 OFFCURVE",
"157 268 CURVE SMOOTH",
"201 268 OFFCURVE",
"226 248 OFFCURVE",
"226 190 CURVE SMOOTH",
"226 122 LINE SMOOTH",
"226 63 OFFCURVE",
"184 26 OFFCURVE",
"134 26 CURVE SMOOTH",
"93 26 OFFCURVE",
"66 53 OFFCURVE",
"66 85 CURVE SMOOTH",
"66 125 OFFCURVE",
"86 142 OFFCURVE",
"214 142 CURVE SMOOTH",
"232 142 LINE",
"232 167 LINE",
"213 167 LINE SMOOTH",
"76 167 OFFCURVE",
"31 148 OFFCURVE",
"31 82 CURVE SMOOTH",
"32 36 OFFCURVE",
"74 -3 OFFCURVE",
"133 -3 CURVE SMOOTH"
);
}
);
width = 310;
},
{
background = {
paths = (
{
closed = 1;
nodes = (
"285 -6 OFFCURVE",
"341 31 OFFCURVE",
"354 100 CURVE",
"346 103 LINE",
"346 68 LINE SMOOTH",
"346 16 OFFCURVE",
"385 -4 OFFCURVE",
"419 -4 CURVE SMOOTH",
"460 -4 OFFCURVE",
"493 17 OFFCURVE",
"493 68 CURVE SMOOTH",
"493 289 LINE SMOOTH",
"493 439 OFFCURVE",
"419 501 OFFCURVE",
"279 501 CURVE SMOOTH",
"208 501 OFFCURVE",
"136 482 OFFCURVE",
"93 460 CURVE SMOOTH",
"65 446 OFFCURVE",
"55 429 OFFCURVE",
"55 403 CURVE SMOOTH",
"55 373 OFFCURVE",
"71 345 OFFCURVE",
"104 345 CURVE SMOOTH",
"115 345 OFFCURVE",
"128 349 OFFCURVE",
"143 355 CURVE SMOOTH",
"175 367 OFFCURVE",
"223 385 OFFCURVE",
"267 385 CURVE SMOOTH",
"320 385 OFFCURVE",
"345 367 OFFCURVE",
"345 310 CURVE SMOOTH",
"345 202 LINE SMOOTH",
"345 137 OFFCURVE",
"300 101 OFFCURVE",
"250 101 CURVE SMOOTH",
"214 101 OFFCURVE",
"187 126 OFFCURVE",
"187 161 CURVE SMOOTH",
"187 199 OFFCURVE",
"214 218 OFFCURVE",
"328 218 CURVE SMOOTH",
"361 218 LINE",
"361 293 LINE",
"319 293 LINE SMOOTH",
"107 293 OFFCURVE",
"37 252 OFFCURVE",
"37 150 CURVE SMOOTH",
"37 67 OFFCURVE",
"106 -6 OFFCURVE",
"217 -6 CURVE SMOOTH"
);
}
);
};
layerId = "E1B555A7-F4E1-459C-9C1A-AE952106EEF9";
paths = (
{
closed = 1;
nodes = (
"171 -4 OFFCURVE",
"205 19 OFFCURVE",
"212 60 CURVE",
"208 62 LINE",
"208 40 LINE SMOOTH",
"208 8 OFFCURVE",
"231 -4 OFFCURVE",
"251 -4 CURVE SMOOTH",
"276 -4 OFFCURVE",
"296 9 OFFCURVE",
"296 40 CURVE SMOOTH",
"296 173 LINE SMOOTH",
"296 263 OFFCURVE",
"251 301 OFFCURVE",
"167 301 CURVE SMOOTH",
"125 301 OFFCURVE",
"82 289 OFFCURVE",
"56 276 CURVE SMOOTH",
"39 268 OFFCURVE",
"33 257 OFFCURVE",
"33 242 CURVE SMOOTH",
"33 224 OFFCURVE",
"43 207 OFFCURVE",
"62 207 CURVE SMOOTH",
"69 207 OFFCURVE",
"77 209 OFFCURVE",
"86 213 CURVE SMOOTH",
"105 220 OFFCURVE",
"134 231 OFFCURVE",
"160 231 CURVE SMOOTH",
"192 231 OFFCURVE",
"207 220 OFFCURVE",
"207 186 CURVE SMOOTH",
"207 121 LINE SMOOTH",
"207 82 OFFCURVE",
"180 61 OFFCURVE",
"150 61 CURVE SMOOTH",
"128 61 OFFCURVE",
"112 76 OFFCURVE",
"112 97 CURVE SMOOTH",
"112 119 OFFCURVE",
"128 131 OFFCURVE",
"197 131 CURVE SMOOTH",
"217 131 LINE",
"217 176 LINE",
"191 176 LINE SMOOTH",
"64 176 OFFCURVE",
"22 151 OFFCURVE",
"22 90 CURVE SMOOTH",
"22 40 OFFCURVE",
"64 -4 OFFCURVE",
"130 -4 CURVE SMOOTH"
);
}
);
width = 329;
}
);
unicode = 0061;
userData = {
anchors = (
);
b = {
};
com.typemytype.robofont.layerData = {
b = {
anchors = (
);
components = (
);
contours = (
);
lib = {
};
name = a;
unicodes = (
);
width = 1040;
};
};
components = (
);
contours = (
);
lib = {
};
name = a;
unicodes = (
);
width = 1101;
};
},
{
glyphname = b;
lastChange = "2016-08-19 11:24:57 +0000";
layers = (
{
background = {
paths = (
{
closed = 1;
nodes = (
"400 0 LINE SMOOTH",
"535 0 OFFCURVE",
"630 61 OFFCURVE",
"630 191 CURVE SMOOTH",
"630 291 OFFCURVE",
"573 349 OFFCURVE",
"491 364 CURVE",
"491 356 LINE",
"558 376 OFFCURVE",
"614 426 OFFCURVE",
"614 520 CURVE SMOOTH",
"614 643 OFFCURVE",
"519 705 OFFCURVE",
"383 705 CURVE SMOOTH",
"152 705 LINE SMOOTH",
"135 705 OFFCURVE",
"122 693 OFFCURVE",
"122 677 CURVE SMOOTH",
"122 28 LINE SMOOTH",
"122 13 OFFCURVE",
"135 0 OFFCURVE",
"152 0 CURVE SMOOTH"
);
},
{
closed = 1;
nodes = (
"177 333 LINE",
"397 333 LINE SMOOTH",
"504 333 OFFCURVE",
"574 293 OFFCURVE",
"574 190 CURVE SMOOTH",
"574 86 OFFCURVE",
"504 51 OFFCURVE",
"397 51 CURVE SMOOTH",
"177 51 LINE"
);
},
{
closed = 1;
nodes = (
"177 654 LINE",
"382 654 LINE SMOOTH",
"488 654 OFFCURVE",
"558 619 OFFCURVE",
"558 522 CURVE SMOOTH",
"558 423 OFFCURVE",
"488 383 OFFCURVE",
"382 383 CURVE SMOOTH",
"177 383 LINE"
);
}
);
};
layerId = "9E718F8A-2CEA-4931-B05D-987794BD97DA";
paths = (
{
closed = 1;
nodes = (
"254 0 LINE SMOOTH",
"335 0 OFFCURVE",
"392 37 OFFCURVE",
"392 115 CURVE SMOOTH",
"392 175 OFFCURVE",
"358 209 OFFCURVE",
"309 218 CURVE",
"309 214 LINE",
"349 226 OFFCURVE",
"382 256 OFFCURVE",
"382 312 CURVE SMOOTH",
"382 386 OFFCURVE",
"325 423 OFFCURVE",
"244 423 CURVE SMOOTH",
"105 423 LINE SMOOTH",
"95 423 OFFCURVE",
"87 416 OFFCURVE",
"87 406 CURVE SMOOTH",
"87 17 LINE SMOOTH",
"87 8 OFFCURVE",
"95 0 OFFCURVE",
"105 0 CURVE SMOOTH"
);
},
{
closed = 1;
nodes = (
"120 200 LINE",
"252 200 LINE SMOOTH",
"316 200 OFFCURVE",
"358 176 OFFCURVE",
"358 114 CURVE SMOOTH",
"358 52 OFFCURVE",
"316 30 OFFCURVE",
"252 30 CURVE SMOOTH",
"120 30 LINE"
);
},
{
closed = 1;
nodes = (
"120 393 LINE",
"243 393 LINE SMOOTH",
"307 393 OFFCURVE",
"349 371 OFFCURVE",
"349 313 CURVE SMOOTH",
"349 254 OFFCURVE",
"307 230 OFFCURVE",
"243 230 CURVE SMOOTH",
"120 230 LINE"
);
}
);
width = 433;
},
{
layerId = "E1B555A7-F4E1-459C-9C1A-AE952106EEF9";
paths = (
{
closed = 1;
nodes = (
"271 0 LINE SMOOTH",
"365 0 OFFCURVE",
"419 46 OFFCURVE",
"419 116 CURVE SMOOTH",
"419 172 OFFCURVE",
"386 208 OFFCURVE",
"334 220 CURVE",
"334 215 LINE",
"378 228 OFFCURVE",
"408 263 OFFCURVE",
"408 313 CURVE SMOOTH",
"408 376 OFFCURVE",
"359 423 OFFCURVE",
"265 423 CURVE SMOOTH",
"113 423 LINE SMOOTH",
"84 423 OFFCURVE",
"68 407 OFFCURVE",
"68 378 CURVE SMOOTH",
"68 45 LINE SMOOTH",
"68 16 OFFCURVE",
"84 0 OFFCURVE",
"113 0 CURVE SMOOTH"
);
},
{
closed = 1;
nodes = (
"162 176 LINE",
"256 176 LINE SMOOTH",
"305 176 OFFCURVE",
"328 161 OFFCURVE",
"328 125 CURVE SMOOTH",
"328 89 OFFCURVE",
"305 74 OFFCURVE",
"256 74 CURVE SMOOTH",
"162 74 LINE"
);
},
{
closed = 1;
nodes = (
"162 349 LINE",
"245 349 LINE SMOOTH",
"294 349 OFFCURVE",
"316 334 OFFCURVE",
"316 300 CURVE SMOOTH",
"316 267 OFFCURVE",
"294 251 OFFCURVE",
"245 251 CURVE SMOOTH",
"162 251 LINE"
);
}
);
width = 445;
}
);
leftMetricsKey = H;
userData = {
anchors = (
);
b = {
};
com.typemytype.robofont.layerData = {
b = {
anchors = (
);
components = (
);
contours = (
{
points = (
{
segmentType = curve;
smooth = 1;
x = 266;
y = 0;
},
{
segmentType = line;
smooth = 1;
x = 1035;
y = 0;
},
{
smooth = 0;
x = 1084;
y = 0;
},
{
smooth = 0;
x = 1108;
y = 36;
},
{
segmentType = curve;
smooth = 1;
x = 1108;
y = 73;
},
{
smooth = 0;
x = 1108;
y = 109;
},
{
smooth = 0;
x = 1084;
y = 145;
},
{
segmentType = curve;
smooth = 1;
x = 1035;
y = 145;
},
{
segmentType = line;
smooth = 0;
x = 353;
y = 145;
},
{
segmentType = line;
smooth = 0;
x = 353;
y = 662;
},
{
segmentType = line;
smooth = 1;
x = 975;
y = 662;
},
{
smooth = 0;
x = 1024;
y = 662;
},
{
smooth = 0;
x = 1049;
y = 698;
},
{
segmentType = curve;
smooth = 1;
x = 1049;
y = 734;
},
{
smooth = 0;
x = 1049;
y = 770;
},
{
smooth = 0;
x = 1026;
y = 806;
},
{
segmentType = curve;
smooth = 1;
x = 975;
y = 806;
},
{
segmentType = line;
smooth = 0;
x = 353;
y = 806;
},
{
segmentType = line;
smooth = 0;
x = 353;
y = 1281;
},
{
segmentType = line;
smooth = 1;
x = 1007;
y = 1281;
},
{
smooth = 0;
x = 1056;
y = 1281;
},
{
smooth = 0;
x = 1080;
y = 1317;
},
{
segmentType = curve;
smooth = 1;
x = 1080;
y = 1354;
},
{
smooth = 0;
x = 1080;
y = 1390;
},
{
smooth = 0;
x = 1056;
y = 1426;
},
{
segmentType = curve;
smooth = 1;
x = 1007;
y = 1426;
},
{
segmentType = line;
smooth = 1;
x = 261;
y = 1426;
},
{
smooth = 0;
x = 213;
y = 1426;
},
{
smooth = 0;
x = 178;
y = 1383;
},
{
segmentType = curve;
smooth = 1;
x = 178;
y = 1340;
},
{
segmentType = line;
smooth = 1;
x = 178;
y = 86;
},
{
smooth = 0;
x = 178;
y = 41;
},
{
smooth = 0;
x = 222;
y = 0;
}
);
}
);
lib = {
};
name = B;
unicodes = (
);
width = 1292;
};
};
components = (
);
contours = {
};
lib = {
};
name = B;
points = {
};
segmentType = curve;
unicodes = (
);
width = 1395;
x = 676;
y = 1260;
};
},
{
glyphname = c;
lastChange = "2016-08-19 11:24:56 +0000";
layers = (
{
layerId = "9E718F8A-2CEA-4931-B05D-987794BD97DA";
paths = (
{
closed = 1;
nodes = (
"302 -4 OFFCURVE",
"354 14 OFFCURVE",
"389 48 CURVE SMOOTH",
"394 53 OFFCURVE",
"396 59 OFFCURVE",
"396 64 CURVE SMOOTH",
"396 72 OFFCURVE",
"392 79 OFFCURVE",
"385 79 CURVE SMOOTH",
"381 79 OFFCURVE",
"377 77 OFFCURVE",
"373 73 CURVE SMOOTH",
"335 43 OFFCURVE",
"304 26 OFFCURVE",
"250 26 CURVE SMOOTH",
"149 26 OFFCURVE",
"94 97 OFFCURVE",
"94 212 CURVE SMOOTH",
"94 326 OFFCURVE",
"149 397 OFFCURVE",
"250 397 CURVE SMOOTH",
"304 397 OFFCURVE",
"335 380 OFFCURVE",
"373 350 CURVE SMOOTH",
"377 346 OFFCURVE",
"381 344 OFFCURVE",
"385 344 CURVE SMOOTH",
"391 344 OFFCURVE",
"396 351 OFFCURVE",
"396 359 CURVE SMOOTH",
"396 364 OFFCURVE",
"394 370 OFFCURVE",
"389 375 CURVE SMOOTH",
"354 409 OFFCURVE",
"302 427 OFFCURVE",
"250 427 CURVE SMOOTH",
"135 427 OFFCURVE",
"59 347 OFFCURVE",
"59 212 CURVE SMOOTH",
"59 76 OFFCURVE",
"135 -4 OFFCURVE",
"250 -4 CURVE SMOOTH"
);
}
);
width = 423;
},
{
layerId = "E1B555A7-F4E1-459C-9C1A-AE952106EEF9";
paths = (
{
closed = 1;
nodes = (
"312 -4 OFFCURVE",
"356 12 OFFCURVE",
"390 38 CURVE SMOOTH",
"403 48 OFFCURVE",
"407 58 OFFCURVE",
"407 72 CURVE SMOOTH",
"407 89 OFFCURVE",
"396 111 OFFCURVE",
"375 111 CURVE SMOOTH",
"364 111 OFFCURVE",
"357 107 OFFCURVE",
"346 101 CURVE SMOOTH",
"323 86 OFFCURVE",
"298 73 OFFCURVE",
"260 73 CURVE SMOOTH",
"185 73 OFFCURVE",
"146 118 OFFCURVE",
"146 212 CURVE SMOOTH",
"146 305 OFFCURVE",
"185 350 OFFCURVE",
"260 350 CURVE SMOOTH",
"298 350 OFFCURVE",
"323 337 OFFCURVE",
"346 322 CURVE SMOOTH",
"357 316 OFFCURVE",
"364 312 OFFCURVE",
"375 312 CURVE SMOOTH",
"396 312 OFFCURVE",
"407 334 OFFCURVE",
"407 351 CURVE SMOOTH",
"407 365 OFFCURVE",
"403 375 OFFCURVE",
"390 385 CURVE SMOOTH",
"356 411 OFFCURVE",
"312 427 OFFCURVE",
"255 427 CURVE SMOOTH",
"129 427 OFFCURVE",
"47 344 OFFCURVE",
"47 212 CURVE SMOOTH",
"47 79 OFFCURVE",
"129 -4 OFFCURVE",
"255 -4 CURVE SMOOTH"
);
}
);
width = 426;
}
);
leftMetricsKey = O;
userData = {
anchors = (
);
b = {
};
com.typemytype.robofont.layerData = {
b = {
anchors = (
);
components = (
);
contours = (
);
lib = {
};
name = C;
unicodes = (
);
width = 1353.8900;
};
};
components = (
);
contours = (
);
lib = {
};
name = C;
unicodes = (
);
width = 1354;
};
},
{
glyphname = d;
lastChange = "2016-08-19 11:24:57 +0000";
layers = (
{
layerId = "9E718F8A-2CEA-4931-B05D-987794BD97DA";
paths = (
{
closed = 1;
nodes = (
"221 0 LINE SMOOTH",
"354 0 OFFCURVE",
"430 76 OFFCURVE",
"430 212 CURVE SMOOTH",
"430 349 OFFCURVE",
"354 423 OFFCURVE",
"221 423 CURVE SMOOTH",
"105 423 LINE SMOOTH",
"95 423 OFFCURVE",
"87 416 OFFCURVE",
"87 406 CURVE SMOOTH",
"87 17 LINE SMOOTH",
"87 8 OFFCURVE",
"95 0 OFFCURVE",
"105 0 CURVE SMOOTH"
);
},
{
closed = 1;
nodes = (
"120 393 LINE",
"220 393 LINE SMOOTH",
"342 393 OFFCURVE",
"396 327 OFFCURVE",
"396 212 CURVE SMOOTH",
"396 97 OFFCURVE",
"342 30 OFFCURVE",
"220 30 CURVE SMOOTH",
"120 30 LINE"
);
}
);
width = 489;
},
{
layerId = "E1B555A7-F4E1-459C-9C1A-AE952106EEF9";
paths = (
{
closed = 1;
nodes = (
"233 0 LINE SMOOTH",
"374 0 OFFCURVE",
"456 79 OFFCURVE",
"456 212 CURVE SMOOTH",
"456 344 OFFCURVE",
"374 423 OFFCURVE",
"233 423 CURVE SMOOTH",
"113 423 LINE SMOOTH",
"84 423 OFFCURVE",
"68 407 OFFCURVE",
"68 378 CURVE SMOOTH",
"68 45 LINE SMOOTH",
"68 16 OFFCURVE",
"84 0 OFFCURVE",
"113 0 CURVE SMOOTH"
);
},
{
closed = 1;
nodes = (
"164 345 LINE",
"227 345 LINE SMOOTH",
"311 345 OFFCURVE",
"359 305 OFFCURVE",
"359 212 CURVE SMOOTH",
"359 118 OFFCURVE",
"311 78 OFFCURVE",
"227 78 CURVE SMOOTH",
"164 78 LINE"
);
}
);
width = 503;
}
);
leftMetricsKey = I;
rightMetricsKey = O;
userData = {
anchors = (
);
b = {
};
com.typemytype.robofont.layerData = {
b = {
anchors = (
);
components = (
);
contours = (
{
points = (
{
segmentType = curve;
smooth = 1;
x = 266;
y = 0;
},
{
segmentType = line;
smooth = 1;
x = 1035;
y = 0;
},
{
smooth = 0;
x = 1084;
y = 0;
},
{
smooth = 0;
x = 1108;
y = 34;
},
{
segmentType = curve;
smooth = 1;
x = 1108;
y = 71;
},
{
smooth = 0;
x = 1108;
y = 107;
},
{
smooth = 0;
x = 1084;
y = 141;
},
{
segmentType = curve;
smooth = 1;
x = 1035;
y = 141;
},
{
segmentType = line;
smooth = 0;
x = 356;
y = 141;
},
{
segmentType = line;
smooth = 0;
x = 356;
y = 665;
},
{
segmentType = line;
smooth = 1;
x = 975;
y = 665;
},
{
smooth = 0;
x = 1024;
y = 665;
},
{
smooth = 0;
x = 1049;
y = 698;
},
{
segmentType = curve;
smooth = 1;
x = 1049;
y = 734;
},
{
smooth = 0;
x = 1049;
y = 770;
},
{
smooth = 0;
x = 1026;
y = 803;
},
{
segmentType = curve;
smooth = 1;
x = 975;
y = 803;
},
{
segmentType = line;
smooth = 0;
x = 356;
y = 803;
},
{
segmentType = line;
smooth = 0;
x = 356;
y = 1285;
},
{
segmentType = line;
smooth = 1;
x = 1007;
y = 1285;
},
{
smooth = 0;
x = 1056;
y = 1285;
},
{
smooth = 0;
x = 1080;
y = 1319;
},
{
segmentType = curve;
smooth = 1;
x = 1080;
y = 1356;
},
{
smooth = 0;
x = 1080;
y = 1392;
},
{
smooth = 0;
x = 1056;
y = 1426;
},
{
segmentType = curve;
smooth = 1;
x = 1007;
y = 1426;
},
{
segmentType = line;
smooth = 1;
x = 261;
y = 1426;
},
{
smooth = 0;
x = 213;
y = 1426;
},
{
smooth = 0;
x = 178;
y = 1383;
},
{
segmentType = curve;
smooth = 1;
x = 178;
y = 1340;
},
{
segmentType = line;
smooth = 1;
x = 178;
y = 86;
},
{
smooth = 0;
x = 178;
y = 41;
},
{
smooth = 0;
x = 222;
y = 0;
}
);
}
);
lib = {
};
name = D;
unicodes = (
);
width = 1499;
};
};
components = (
);
contours = (
);
lib = {
};
name = D;
unicodes = (
);
width = 1535;
};
},
{
glyphname = e;
lastChange = "2016-08-19 11:24:57 +0000";
layers = (
{
layerId = "9E718F8A-2CEA-4931-B05D-987794BD97DA";
paths = (
{
closed = 1;
nodes = (
"334 0 LINE SMOOTH",
"343 0 OFFCURVE",
"349 6 OFFCURVE",
"349 15 CURVE SMOOTH",
"349 25 OFFCURVE",
"343 30 OFFCURVE",
"334 30 CURVE SMOOTH",
"120 30 LINE",
"120 200 LINE",
"322 200 LINE SMOOTH",
"331 200 OFFCURVE",
"337 206 OFFCURVE",
"337 215 CURVE SMOOTH",
"337 224 OFFCURVE",
"331 230 OFFCURVE",
"322 230 CURVE SMOOTH",
"120 230 LINE",
"120 393 LINE",
"334 393 LINE SMOOTH",
"343 393 OFFCURVE",
"349 398 OFFCURVE",
"349 408 CURVE SMOOTH",
"349 417 OFFCURVE",
"343 423 OFFCURVE",
"334 423 CURVE SMOOTH",
"105 423 LINE SMOOTH",
"95 423 OFFCURVE",
"87 416 OFFCURVE",
"87 406 CURVE SMOOTH",
"87 17 LINE SMOOTH",
"87 8 OFFCURVE",
"95 0 OFFCURVE",
"105 0 CURVE SMOOTH"
);
}
);
width = 385;
},
{
layerId = "E1B555A7-F4E1-459C-9C1A-AE952106EEF9";
paths = (
{
closed = 1;
nodes = (
"325 0 LINE SMOOTH",
"356 0 OFFCURVE",
"370 14 OFFCURVE",
"370 37 CURVE SMOOTH",
"370 60 OFFCURVE",
"356 74 OFFCURVE",
"325 74 CURVE SMOOTH",
"162 74 LINE",
"162 177 LINE",
"313 177 LINE SMOOTH",
"344 177 OFFCURVE",
"358 191 OFFCURVE",
"358 214 CURVE SMOOTH",
"358 237 OFFCURVE",
"344 251 OFFCURVE",
"313 251 CURVE SMOOTH",
"162 251 LINE",
"162 349 LINE",
"325 349 LINE SMOOTH",
"356 349 OFFCURVE",
"370 363 OFFCURVE",
"370 386 CURVE SMOOTH",
"370 409 OFFCURVE",
"356 423 OFFCURVE",
"325 423 CURVE SMOOTH",
"113 423 LINE SMOOTH",
"84 423 OFFCURVE",
"68 407 OFFCURVE",
"68 378 CURVE SMOOTH",
"68 45 LINE SMOOTH",
"68 16 OFFCURVE",
"84 0 OFFCURVE",
"113 0 CURVE SMOOTH"
);
}
);
width = 390;
}
);
leftMetricsKey = H;
userData = {
anchors = (
);
b = {
};
com.typemytype.robofont.layerData = {
b = {
anchors = (
);
components = (
);
contours = (
);
lib = {
};
name = E;
unicodes = (
);
width = 1234;
};
};
components = (
);
contours = (
);
lib = {
};
name = E;
unicodes = (
);
width = 1258;
};
},
{
glyphname = f;
lastChange = "2016-08-19 11:24:57 +0000";
layers = (
{
layerId = "9E718F8A-2CEA-4931-B05D-987794BD97DA";
paths = (
{
closed = 1;
nodes = (
"115 -3 OFFCURVE",
"120 4 OFFCURVE",
"120 14 CURVE SMOOTH",
"120 200 LINE",
"316 200 LINE SMOOTH",
"325 200 OFFCURVE",
"331 206 OFFCURVE",
"331 215 CURVE SMOOTH",
"331 224 OFFCURVE",
"325 230 OFFCURVE",
"316 230 CURVE SMOOTH",
"120 230 LINE",
"120 393 LINE",
"328 393 LINE SMOOTH",
"337 393 OFFCURVE",
"343 399 OFFCURVE",
"343 408 CURVE SMOOTH",
"343 417 OFFCURVE",
"337 423 OFFCURVE",
"328 423 CURVE SMOOTH",
"105 423 LINE SMOOTH",
"95 423 OFFCURVE",
"87 416 OFFCURVE",
"87 406 CURVE SMOOTH",
"87 14 LINE SMOOTH",
"87 4 OFFCURVE",
"94 -3 OFFCURVE",
"103 -3 CURVE SMOOTH"
);
}
);
width = 370;
},
{
layerId = "E1B555A7-F4E1-459C-9C1A-AE952106EEF9";
paths = (
{
closed = 1;
nodes = (
"142 -4 OFFCURVE",
"163 12 OFFCURVE",
"163 44 CURVE SMOOTH",
"163 175 LINE",
"307 175 LINE SMOOTH",
"338 175 OFFCURVE",
"352 189 OFFCURVE",
"352 214 CURVE SMOOTH",
"352 239 OFFCURVE",
"338 253 OFFCURVE",
"307 253 CURVE SMOOTH",
"163 253 LINE",
"163 346 LINE",
"319 346 LINE SMOOTH",
"350 346 OFFCURVE",
"364 359 OFFCURVE",
"364 384 CURVE SMOOTH",
"364 409 OFFCURVE",
"350 423 OFFCURVE",
"319 423 CURVE SMOOTH",
"113 423 LINE SMOOTH",
"84 423 OFFCURVE",
"68 407 OFFCURVE",
"68 378 CURVE SMOOTH",
"68 44 LINE SMOOTH",
"68 16 OFFCURVE",
"86 -4 OFFCURVE",
"116 -4 CURVE SMOOTH"
);
}
);
width = 371;
}
);
leftMetricsKey = H;
userData = {
anchors = (
);
b = {
};
com.typemytype.robofont.layerData = {
b = {
anchors = (
);
components = (
);
contours = (
{
points = (
{
segmentType = curve;
smooth = 1;
x = 266;
y = 0;
},
{
segmentType = line;
smooth = 1;
x = 1035;
y = 0;
},
{
smooth = 0;
x = 1084;
y = 0;
},
{
smooth = 0;
x = 1108;
y = 34;
},
{
segmentType = curve;
smooth = 1;
x = 1108;
y = 71;
},
{
smooth = 0;
x = 1108;
y = 107;
},
{
smooth = 0;
x = 1084;
y = 141;
},
{
segmentType = curve;
smooth = 1;
x = 1035;
y = 141;
},
{
segmentType = line;
smooth = 0;
x = 353;
y = 141;
},
{
segmentType = line;
smooth = 0;
x = 353;
y = 665;
},
{
segmentType = line;
smooth = 1;
x = 975;
y = 665;
},
{
smooth = 0;
x = 1024;
y = 665;
},
{
smooth = 0;
x = 1049;
y = 698;
},
{
segmentType = curve;
smooth = 1;
x = 1049;
y = 734;
},
{
smooth = 0;
x = 1049;
y = 770;
},
{
smooth = 0;
x = 1026;
y = 803;
},
{
segmentType = curve;
smooth = 1;
x = 975;
y = 803;
},
{
segmentType = line;
smooth = 0;
x = 353;
y = 803;
},
{
segmentType = line;
smooth = 0;
x = 353;
y = 1285;
},
{
segmentType = line;
smooth = 1;
x = 1007;
y = 1285;
},
{
smooth = 0;
x = 1056;
y = 1285;
},
{
smooth = 0;
x = 1080;
y = 1319;
},
{
segmentType = curve;
smooth = 1;
x = 1080;
y = 1356;
},
{
smooth = 0;
x = 1080;
y = 1392;
},
{
smooth = 0;
x = 1056;
y = 1426;
},
{
segmentType = curve;
smooth = 1;
x = 1007;
y = 1426;
},
{
segmentType = line;
smooth = 1;
x = 261;
y = 1426;
},
{
smooth = 0;
x = 213;
y = 1426;
},
{
smooth = 0;
x = 178;
y = 1383;
},
{
segmentType = curve;
smooth = 1;
x = 178;
y = 1340;
},
{
segmentType = line;
smooth = 1;
x = 178;
y = 86;
},
{
smooth = 0;
x = 178;
y = 41;
},
{
smooth = 0;
x = 222;
y = 0;
}
);
}
);
lib = {
};
name = F;
unicodes = (
);
width = 1142;
};
};
components = (
);
contours = (
);
lib = {
};
name = F;
unicodes = (
);
width = 1175;
};
},
{
glyphname = g;
lastChange = "2016-08-19 11:24:57 +0000";
layers = (
{
layerId = "9E718F8A-2CEA-4931-B05D-987794BD97DA";
paths = (
{
closed = 1;
nodes = (
"307 -4 OFFCURVE",
"358 6 OFFCURVE",
"389 20 CURVE SMOOTH",
"397 25 OFFCURVE",
"400 31 OFFCURVE",
"400 38 CURVE SMOOTH",
"400 200 LINE SMOOTH",
"400 209 OFFCURVE",
"394 215 OFFCURVE",
"386 215 CURVE SMOOTH",
"266 215 LINE SMOOTH",
"259 215 OFFCURVE",
"254 209 OFFCURVE",
"254 200 CURVE SMOOTH",
"254 192 OFFCURVE",
"259 185 OFFCURVE",
"266 185 CURVE SMOOTH",
"370 185 LINE",
"370 26 LINE",
"379 49 LINE",
"350 36 OFFCURVE",
"307 26 OFFCURVE",
"256 26 CURVE SMOOTH",
"146 26 OFFCURVE",
"94 98 OFFCURVE",
"94 212 CURVE SMOOTH",
"94 326 OFFCURVE",
"149 397 OFFCURVE",
"252 397 CURVE SMOOTH",
"307 397 OFFCURVE",
"337 380 OFFCURVE",
"375 350 CURVE SMOOTH",
"380 346 OFFCURVE",
"383 344 OFFCURVE",
"387 344 CURVE SMOOTH",
"394 344 OFFCURVE",
"398 351 OFFCURVE",
"398 359 CURVE SMOOTH",
"398 364 OFFCURVE",
"396 370 OFFCURVE",
"391 375 CURVE SMOOTH",
"357 410 OFFCURVE",
"304 427 OFFCURVE",
"252 427 CURVE SMOOTH",
"135 427 OFFCURVE",
"59 347 OFFCURVE",
"59 212 CURVE SMOOTH",
"59 76 OFFCURVE",
"133 -4 OFFCURVE",
"256 -4 CURVE SMOOTH"
);
}
);
width = 449;
},
{
layerId = "E1B555A7-F4E1-459C-9C1A-AE952106EEF9";
paths = (
{
closed = 1;
nodes = (
"305 -4 OFFCURVE",
"348 2 OFFCURVE",
"377 11 CURVE SMOOTH",
"416 22 OFFCURVE",
"425 37 OFFCURVE",
"425 85 CURVE SMOOTH",
"425 199 LINE SMOOTH",
"425 218 OFFCURVE",
"412 235 OFFCURVE",
"387 235 CURVE SMOOTH",
"285 235 LINE SMOOTH",
"262 235 OFFCURVE",
"248 223 OFFCURVE",
"248 201 CURVE SMOOTH",
"248 179 OFFCURVE",
"262 167 OFFCURVE",
"285 167 CURVE SMOOTH",
"338 167 LINE",
"338 54 LINE",
"359 85 LINE",
"331 76 OFFCURVE",
"300 70 OFFCURVE",
"271 70 CURVE SMOOTH",
"197 70 OFFCURVE",
"145 105 OFFCURVE",
"145 212 CURVE SMOOTH",
"145 305 OFFCURVE",
"186 350 OFFCURVE",
"266 350 CURVE SMOOTH",
"309 350 OFFCURVE",
"334 337 OFFCURVE",
"357 322 CURVE SMOOTH",
"368 316 OFFCURVE",
"375 312 OFFCURVE",
"387 312 CURVE SMOOTH",
"407 312 OFFCURVE",
"417 334 OFFCURVE",
"417 351 CURVE SMOOTH",
"417 365 OFFCURVE",
"414 375 OFFCURVE",
"401 385 CURVE SMOOTH",
"366 411 OFFCURVE",
"323 427 OFFCURVE",
"263 427 CURVE SMOOTH",
"131 427 OFFCURVE",
"47 344 OFFCURVE",
"47 212 CURVE SMOOTH",
"47 79 OFFCURVE",
"129 -4 OFFCURVE",
"267 -4 CURVE SMOOTH"
);
}
);
width = 461;
}
);
leftMetricsKey = O;
userData = {
anchors = (
);
b = {
};
com.typemytype.robofont.layerData = {
b = {
anchors = (
);
components = (
);
contours = (
{
points = (
{
segmentType = curve;
smooth = 1;
x = 783;
y = "-22";
},
{
smooth = 0;
x = 965;
y = "-22";
},
{
smooth = 0;
x = 1086;
y = 34;
},
{
segmentType = curve;
smooth = 1;
x = 1166;
y = 86;
},
{
smooth = 0;
x = 1270;
y = 154;
},
{
smooth = 0;
x = 1186;
y = 258;
},
{
segmentType = curve;
smooth = 1;
x = 1112;
y = 214;
},
{
smooth = 0;
x = 1024;
y = 162;
},
{
smooth = 0;
x = 939;
y = 120;
},
{
segmentType = curve;
smooth = 1;
x = 806;
y = 120;
},
{
smooth = 0;
x = 446;
y = 120;
},
{
smooth = 0;
x = 316;
y = 406;
},
{
segmentType = curve;
smooth = 1;
x = 316;
y = 706;
},
{
smooth = 0;
x = 316;
y = 1005;
},
{
smooth = 0;
x = 450;
y = 1296;
},
{
segmentType = curve;
smooth = 1;
x = 801;
y = 1296;
},
{
smooth = 0;
x = 980;
y = 1296;
},
{
smooth = 0;
x = 1053;
y = 1246;
},
{
segmentType = curve;
smooth = 1;
x = 1094;
y = 1225;
},
{
smooth = 0;
x = 1174;
y = 1184;
},
{
smooth = 0;
x = 1231;
y = 1300;
},
{
segmentType = curve;
smooth = 1;
x = 1156;
y = 1343;
},
{
smooth = 0;
x = 1106;
y = 1372;
},
{
smooth = 0;
x = 995;
y = 1438;
},
{
segmentType = curve;
smooth = 1;
x = 797;
y = 1438;
},
{
smooth = 0;
x = 359;
y = 1438;
},
{
smooth = 0;
x = 128;
y = 1093;
},
{
segmentType = curve;
smooth = 1;
x = 128;
y = 704;
},
{
smooth = 0;
x = 128;
y = 307;
},
{
smooth = 0;
x = 350;
y = "-22";
}
);
}
);
lib = {
};
name = G;
unicodes = (
);
width = 1448;
};
};
components = (
);
contours = (
);
lib = {
};
name = G;
unicodes = (
);
width = 1538;
};
},
{
glyphname = h;
lastChange = "2016-08-19 11:25:34 +0000";
layers = (
{
layerId = "9E718F8A-2CEA-4931-B05D-987794BD97DA";
paths = (
{
closed = 1;
nodes = (
"79 -3 OFFCURVE",
"85 4 OFFCURVE",
"85 14 CURVE SMOOTH",
"85 409 LINE SMOOTH",
"85 419 OFFCURVE",
"79 426 OFFCURVE",
"68 426 CURVE SMOOTH",
"58 426 OFFCURVE",
"52 419 OFFCURVE",
"52 409 CURVE SMOOTH",
"52 14 LINE SMOOTH",
"52 4 OFFCURVE",
"58 -3 OFFCURVE",
"68 -3 CURVE SMOOTH"
);
},
{
closed = 1;
nodes = (
"365 200 LINE",
"365 230 LINE",
"73 230 LINE",
"73 200 LINE"
);
},
{
closed = 1;
nodes = (
"386 -3 OFFCURVE",
"392 4 OFFCURVE",
"392 14 CURVE SMOOTH",
"392 409 LINE SMOOTH",
"392 419 OFFCURVE",
"386 426 OFFCURVE",
"376 426 CURVE SMOOTH",
"366 426 OFFCURVE",
"360 419 OFFCURVE",
"360 409 CURVE SMOOTH",
"360 14 LINE SMOOTH",
"360 4 OFFCURVE",
"366 -3 OFFCURVE",
"376 -3 CURVE SMOOTH"
);
}
);
width = 445;
},
{
layerId = "E1B555A7-F4E1-459C-9C1A-AE952106EEF9";
paths = (
{
closed = 1;
nodes = (
"113 -4 OFFCURVE",
"136 12 OFFCURVE",
"136 44 CURVE SMOOTH",
"136 379 LINE SMOOTH",
"136 410 OFFCURVE",
"113 426 OFFCURVE",
"88 426 CURVE SMOOTH",
"62 426 OFFCURVE",
"41 410 OFFCURVE",
"41 379 CURVE SMOOTH",
"41 44 LINE SMOOTH",
"41 12 OFFCURVE",
"62 -4 OFFCURVE",
"88 -4 CURVE SMOOTH"
);
},
{
closed = 1;
nodes = (
"383 175 LINE",
"383 253 LINE",
"71 253 LINE",
"71 175 LINE"
);
},
{
closed = 1;
nodes = (
"399 -4 OFFCURVE",
"421 12 OFFCURVE",
"421 44 CURVE SMOOTH",
"421 379 LINE SMOOTH",
"421 410 OFFCURVE",
"399 426 OFFCURVE",
"374 426 CURVE SMOOTH",
"348 426 OFFCURVE",
"326 410 OFFCURVE",
"326 379 CURVE SMOOTH",
"326 44 LINE SMOOTH",
"326 12 OFFCURVE",
"348 -4 OFFCURVE",
"374 -4 CURVE SMOOTH"
);
}
);
width = 462;
}
);
userData = {
anchors = (
);
b = {
};
com.typemytype.robofont.layerData = {
b = {
anchors = (
);
components = (
);
contours = (
);
lib = {
};
name = H;
unicodes = (
);
width = 1464;
};
};
components = (
);
contours = (
);
lib = {
};
name = H;
unicodes = (
);
width = 1524;
};
},
{
glyphname = i;
lastChange = "2016-08-19 11:24:57 +0000";
layers = (
{
layerId = "9E718F8A-2CEA-4931-B05D-987794BD97DA";
paths = (
{
closed = 1;
nodes = (
"114 -3 OFFCURVE",
"120 4 OFFCURVE",
"120 14 CURVE SMOOTH",
"120 409 LINE SMOOTH",
"120 419 OFFCURVE",
"114 426 OFFCURVE",
"103 426 CURVE SMOOTH",
"93 426 OFFCURVE",
"87 419 OFFCURVE",
"87 409 CURVE SMOOTH",
"87 14 LINE SMOOTH",
"87 4 OFFCURVE",
"93 -3 OFFCURVE",
"103 -3 CURVE SMOOTH"
);
}
);
width = 207;
},
{
layerId = "E1B555A7-F4E1-459C-9C1A-AE952106EEF9";
paths = (
{
closed = 1;
nodes = (
"143 -4 OFFCURVE",
"164 12 OFFCURVE",
"164 44 CURVE SMOOTH",
"164 379 LINE SMOOTH",
"164 410 OFFCURVE",
"143 426 OFFCURVE",
"116 426 CURVE SMOOTH",
"89 426 OFFCURVE",
"68 410 OFFCURVE",
"68 379 CURVE SMOOTH",
"68 44 LINE SMOOTH",
"68 12 OFFCURVE",
"89 -4 OFFCURVE",
"116 -4 CURVE SMOOTH"
);
}
);
width = 232;
}
);
leftMetricsKey = H;
rightMetricsKey = H;
userData = {
anchors = (
);
b = {
};
com.typemytype.robofont.layerData = {
b = {
anchors = (
);
components = (
);
contours = (
);
lib = {
};
name = I;
unicodes = (
);
width = 592;
};
};
components = (
);
contours = (
);
lib = {
};
name = I;
unicodes = (
);
width = 637;
};
},
{
glyphname = j;
lastChange = "2016-08-19 11:24:57 +0000";
layers = (
{
layerId = "9E718F8A-2CEA-4931-B05D-987794BD97DA";
paths = (
{
closed = 1;
nodes = (
"35 -2 LINE SMOOTH",
"98 2 OFFCURVE",
"130 35 OFFCURVE",
"130 108 CURVE SMOOTH",
"130 409 LINE SMOOTH",
"130 419 OFFCURVE",
"125 426 OFFCURVE",
"114 426 CURVE SMOOTH",
"106 426 OFFCURVE",
"98 419 OFFCURVE",
"98 409 CURVE SMOOTH",
"98 109 LINE SMOOTH",
"98 50 OFFCURVE",
"75 31 OFFCURVE",
"31 28 CURVE SMOOTH",
"13 26 LINE SMOOTH",
"2 26 OFFCURVE",
"-3 19 OFFCURVE",
"-3 11 CURVE SMOOTH",
"-3 3 OFFCURVE",
"4 -4 OFFCURVE",
"17 -3 CURVE SMOOTH"
);
}
);
width = 217;
},
{
layerId = "E1B555A7-F4E1-459C-9C1A-AE952106EEF9";
paths = (
{
closed = 1;
nodes = (
"71 -2 LINE SMOOTH",
"152 3 OFFCURVE",
"191 48 OFFCURVE",
"191 125 CURVE SMOOTH",
"191 379 LINE SMOOTH",
"191 410 OFFCURVE",
"169 426 OFFCURVE",
"142 426 CURVE SMOOTH",
"116 426 OFFCURVE",
"94 410 OFFCURVE",
"94 379 CURVE SMOOTH",
"94 124 LINE SMOOTH",
"94 92 OFFCURVE",
"79 76 OFFCURVE",
"52 74 CURVE SMOOTH",
"32 73 LINE SMOOTH",
"5 71 OFFCURVE",
"-6 59 OFFCURVE",
"-6 35 CURVE SMOOTH",
"-6 6 OFFCURVE",
"16 -5 OFFCURVE",
"52 -4 CURVE SMOOTH"
);
}
);
width = 259;
}
);
rightMetricsKey = H;
userData = {
anchors = (
);
b = {
};
com.typemytype.robofont.layerData = {
b = {
anchors = (
);
components = (
);
contours = (
);
lib = {
};
name = J;
unicodes = (
);
width = 1003;
};
};
components = (
);
contours = (
);
lib = {
};
name = J;
unicodes = (
);
width = 1126;
};
},
{
glyphname = k;
lastChange = "2016-08-19 11:24:57 +0000";
layers = (
{
layerId = "9E718F8A-2CEA-4931-B05D-987794BD97DA";
paths = (
{
closed = 1;
nodes = (
"373 -11 OFFCURVE",
"395 11 OFFCURVE",
"378 25 CURVE SMOOTH",
"138 227 LINE",
"138 203 LINE",
"366 399 LINE SMOOTH",
"382 412 OFFCURVE",
"360 434 OFFCURVE",
"345 421 CURVE SMOOTH",
"105 214 LINE",
"358 1 LINE SMOOTH"
);
},
{
closed = 1;
nodes = (
"114 -3 OFFCURVE",
"120 4 OFFCURVE",
"120 14 CURVE SMOOTH",
"120 409 LINE SMOOTH",
"120 419 OFFCURVE",
"114 426 OFFCURVE",
"103 426 CURVE SMOOTH",
"93 426 OFFCURVE",
"87 419 OFFCURVE",
"87 409 CURVE SMOOTH",
"87 14 LINE SMOOTH",
"87 4 OFFCURVE",
"93 -3 OFFCURVE",
"103 -3 CURVE SMOOTH"
);
}
);
width = 394;
},
{
layerId = "E1B555A7-F4E1-459C-9C1A-AE952106EEF9";
paths = (
{
closed = 1;
nodes = (
"393 -32 OFFCURVE",
"455 31 OFFCURVE",
"413 73 CURVE SMOOTH",
"238 243 LINE",
"235 193 LINE",
"403 350 LINE SMOOTH",
"446 393 OFFCURVE",
"384 453 OFFCURVE",
"343 412 CURVE SMOOTH",
"143 216 LINE",
"347 14 LINE SMOOTH"
);
},
{
closed = 1;
nodes = (
"143 -4 OFFCURVE",
"164 12 OFFCURVE",
"164 44 CURVE SMOOTH",
"164 379 LINE SMOOTH",
"164 410 OFFCURVE",
"143 426 OFFCURVE",
"116 426 CURVE SMOOTH",
"89 426 OFFCURVE",
"68 410 OFFCURVE",
"68 379 CURVE SMOOTH",
"68 44 LINE SMOOTH",
"68 12 OFFCURVE",
"89 -4 OFFCURVE",
"116 -4 CURVE SMOOTH"
);
}
);
width = 437;
}
);
leftMetricsKey = H;
userData = {
anchors = (
);
b = {
};
com.typemytype.robofont.layerData = {
b = {
anchors = (
);
components = (
);
contours = (
);
lib = {
};
name = K;
unicodes = (
);
width = 1210;
};
};
components = (
);
contours = (
);
lib = {
};
name = K;
unicodes = (
);
width = 1329;
};
},
{
glyphname = l;
lastChange = "2016-08-19 11:24:57 +0000";
layers = (
{
layerId = "9E718F8A-2CEA-4931-B05D-987794BD97DA";
paths = (
{
closed = 1;
nodes = (
"329 0 LINE SMOOTH",
"337 0 OFFCURVE",
"343 6 OFFCURVE",
"343 15 CURVE SMOOTH",
"343 24 OFFCURVE",
"337 30 OFFCURVE",
"329 30 CURVE SMOOTH",
"120 30 LINE",
"120 409 LINE SMOOTH",
"120 419 OFFCURVE",
"114 426 OFFCURVE",
"103 426 CURVE SMOOTH",
"93 426 OFFCURVE",
"87 419 OFFCURVE",
"87 409 CURVE SMOOTH",
"87 15 LINE SMOOTH",
"87 7 OFFCURVE",
"96 0 OFFCURVE",
"104 0 CURVE SMOOTH"
);
}
);
width = 346;
},
{
layerId = "E1B555A7-F4E1-459C-9C1A-AE952106EEF9";
paths = (
{
closed = 1;
nodes = (
"315 0 LINE SMOOTH",
"347 0 OFFCURVE",
"361 14 OFFCURVE",
"361 40 CURVE SMOOTH",
"361 65 OFFCURVE",
"347 80 OFFCURVE",
"315 80 CURVE SMOOTH",
"164 80 LINE",
"164 379 LINE SMOOTH",
"164 410 OFFCURVE",
"143 426 OFFCURVE",
"116 426 CURVE SMOOTH",
"89 426 OFFCURVE",
"68 410 OFFCURVE",
"68 379 CURVE SMOOTH",
"68 45 LINE SMOOTH",
"68 16 OFFCURVE",
"84 0 OFFCURVE",
"113 0 CURVE SMOOTH"
);
}
);
width = 364;
}
);
leftMetricsKey = H;
userData = {
anchors = (
);
b = {
};
com.typemytype.robofont.layerData = {
b = {
anchors = (
);
components = (
);
contours = (
{
points = (
{
segmentType = curve;
smooth = 1;
x = 266;
y = 0;
},
{
segmentType = line;
smooth = 1;
x = 1035;
y = 0;
},
{
smooth = 0;
x = 1084;
y = 0;
},
{
smooth = 0;
x = 1108;
y = 34;
},
{
segmentType = curve;
smooth = 1;
x = 1108;
y = 71;
},
{
smooth = 0;
x = 1108;
y = 107;
},
{
smooth = 0;
x = 1084;
y = 141;
},
{
segmentType = curve;
smooth = 1;
x = 1035;
y = 141;
},
{
segmentType = line;
smooth = 0;
x = 356;
y = 141;
},
{
segmentType = line;
smooth = 0;
x = 356;
y = 665;
},
{
segmentType = line;
smooth = 1;
x = 975;
y = 665;
},
{
smooth = 0;
x = 1024;
y = 665;
},
{
smooth = 0;
x = 1049;
y = 698;
},
{
segmentType = curve;
smooth = 1;
x = 1049;
y = 734;
},
{
smooth = 0;
x = 1049;
y = 770;
},
{
smooth = 0;
x = 1026;
y = 803;
},
{
segmentType = curve;
smooth = 1;
x = 975;
y = 803;
},
{
segmentType = line;
smooth = 0;
x = 356;
y = 803;
},
{
segmentType = line;
smooth = 0;
x = 356;
y = 1285;
},
{
segmentType = line;
smooth = 1;
x = 1007;
y = 1285;
},
{
smooth = 0;
x = 1056;
y = 1285;
},
{
smooth = 0;
x = 1080;
y = 1319;
},
{
segmentType = curve;
smooth = 1;
x = 1080;
y = 1356;
},
{
smooth = 0;
x = 1080;
y = 1392;
},
{
smooth = 0;
x = 1056;
y = 1426;
},
{
segmentType = curve;
smooth = 1;
x = 1007;
y = 1426;
},
{
segmentType = line;
smooth = 1;
x = 261;
y = 1426;
},
{
smooth = 0;
x = 213;
y = 1426;
},
{
smooth = 0;
x = 178;
y = 1383;
},
{
segmentType = curve;
smooth = 1;
x = 178;
y = 1340;
},
{
segmentType = line;
smooth = 1;
x = 178;
y = 86;
},
{
smooth = 0;
x = 178;
y = 41;
},
{
smooth = 0;
x = 222;
y = 0;
}
);
}
);
lib = {
};
name = L;
unicodes = (
);
width = 1095;
};
};
components = (
);
contours = (
);
lib = {
};
name = L;
unicodes = (
);
width = 1169;
};
},
{
glyphname = m;
lastChange = "2016-08-19 11:24:57 +0000";
layers = (
{
layerId = "9E718F8A-2CEA-4931-B05D-987794BD97DA";
paths = (
{
closed = 1;
nodes = (
"116 -3 OFFCURVE",
"121 4 OFFCURVE",
"121 14 CURVE SMOOTH",
"121 388 LINE",
"102 386 LINE",
"268 73 LINE SMOOTH",
"272 65 OFFCURVE",
"278 61 OFFCURVE",
"286 61 CURVE SMOOTH",
"293 61 OFFCURVE",
"300 65 OFFCURVE",
"304 73 CURVE SMOOTH",
"467 386 LINE",
"451 388 LINE",
"451 14 LINE SMOOTH",
"451 4 OFFCURVE",
"455 -3 OFFCURVE",
"466 -3 CURVE SMOOTH",
"476 -3 OFFCURVE",
"482 4 OFFCURVE",
"482 14 CURVE SMOOTH",
"482 409 LINE SMOOTH",
"482 419 OFFCURVE",
"476 426 OFFCURVE",
"465 426 CURVE SMOOTH",
"458 426 OFFCURVE",
"454 423 OFFCURVE",
"449 413 CURVE SMOOTH",
"278 83 LINE",
"296 83 LINE",
"122 413 LINE SMOOTH",
"118 423 OFFCURVE",
"113 426 OFFCURVE",
"106 426 CURVE SMOOTH",
"95 426 OFFCURVE",
"89 419 OFFCURVE",
"89 409 CURVE SMOOTH",
"89 14 LINE SMOOTH",
"89 4 OFFCURVE",
"94 -3 OFFCURVE",
"105 -3 CURVE SMOOTH"
);
}
);
width = 571;
},
{
layerId = "E1B555A7-F4E1-459C-9C1A-AE952106EEF9";
paths = (
{
closed = 1;
nodes = (
"134 -4 OFFCURVE",
"156 12 OFFCURVE",
"156 44 CURVE SMOOTH",
"156 279 LINE",
"138 277 LINE",
"237 92 LINE SMOOTH",
"249 70 OFFCURVE",
"261 61 OFFCURVE",
"280 61 CURVE SMOOTH",
"299 61 OFFCURVE",
"312 70 OFFCURVE",
"323 92 CURVE SMOOTH",
"420 277 LINE",
"404 279 LINE",
"404 44 LINE SMOOTH",
"404 12 OFFCURVE",
"426 -4 OFFCURVE",
"447 -4 CURVE SMOOTH",
"468 -4 OFFCURVE",
"490 12 OFFCURVE",
"490 44 CURVE SMOOTH",
"490 379 LINE SMOOTH",
"490 410 OFFCURVE",
"468 426 OFFCURVE",
"444 426 CURVE SMOOTH",
"431 426 OFFCURVE",
"414 421 OFFCURVE",
"400 394 CURVE SMOOTH",
"270 146 LINE",
"291 146 LINE",
"161 394 LINE SMOOTH",
"147 421 OFFCURVE",
"129 426 OFFCURVE",
"116 426 CURVE SMOOTH",
"92 426 OFFCURVE",
"70 410 OFFCURVE",
"70 379 CURVE SMOOTH",
"70 44 LINE SMOOTH",
"70 12 OFFCURVE",
"92 -4 OFFCURVE",
"113 -4 CURVE SMOOTH"
);
}
);
width = 560;
}
);
leftMetricsKey = "=H+2";
rightMetricsKey = "=H+2";
userData = {
anchors = (
);
b = {
};
com.typemytype.robofont.layerData = {
b = {
anchors = (
);
components = (
);
contours = (
);
lib = {
};
name = M;
unicodes = (
);
width = 1899;
};
};
components = (
);
contours = (
);
lib = {
};
name = M;
unicodes = (
);
width = 1984;
};
},
{
glyphname = n;
lastChange = "2016-08-19 11:24:57 +0000";
layers = (
{
layerId = "9E718F8A-2CEA-4931-B05D-987794BD97DA";
paths = (
{
closed = 1;
nodes = (
"113 -3 OFFCURVE",
"119 4 OFFCURVE",
"119 14 CURVE SMOOTH",
"119 386 LINE",
"104 386 LINE",
"385 5 LINE SMOOTH",
"390 0 OFFCURVE",
"393 -3 OFFCURVE",
"400 -3 CURVE SMOOTH",
"410 -3 OFFCURVE",
"416 4 OFFCURVE",
"416 14 CURVE SMOOTH",
"416 409 LINE SMOOTH",
"416 419 OFFCURVE",
"411 426 OFFCURVE",
"400 426 CURVE SMOOTH",
"391 426 OFFCURVE",
"384 419 OFFCURVE",
"384 409 CURVE SMOOTH",
"384 37 LINE",
"399 37 LINE",
"118 418 LINE SMOOTH",
"114 423 OFFCURVE",
"111 426 OFFCURVE",
"104 426 CURVE SMOOTH",
"93 426 OFFCURVE",
"87 419 OFFCURVE",
"87 409 CURVE SMOOTH",
"87 14 LINE SMOOTH",
"87 4 OFFCURVE",
"93 -3 OFFCURVE",
"103 -3 CURVE SMOOTH"
);
}
);
width = 503;
},
{
layerId = "E1B555A7-F4E1-459C-9C1A-AE952106EEF9";
paths = (
{
closed = 1;
nodes = (
"137 -4 OFFCURVE",
"158 12 OFFCURVE",
"158 44 CURVE SMOOTH",
"158 297 LINE",
"142 289 LINE",
"355 13 LINE SMOOTH",
"365 1 OFFCURVE",
"377 -4 OFFCURVE",
"391 -4 CURVE SMOOTH",
"415 -4 OFFCURVE",
"437 12 OFFCURVE",
"437 44 CURVE SMOOTH",
"437 379 LINE SMOOTH",
"437 410 OFFCURVE",
"415 426 OFFCURVE",
"391 426 CURVE SMOOTH",
"368 426 OFFCURVE",
"346 410 OFFCURVE",
"346 379 CURVE SMOOTH",
"346 126 LINE",
"363 133 LINE",
"149 410 LINE SMOOTH",
"139 422 OFFCURVE",
"127 426 OFFCURVE",
"113 426 CURVE SMOOTH",
"89 426 OFFCURVE",
"68 410 OFFCURVE",
"68 379 CURVE SMOOTH",
"68 44 LINE SMOOTH",
"68 12 OFFCURVE",
"89 -4 OFFCURVE",
"113 -4 CURVE SMOOTH"
);
}
);
width = 505;
}
);
leftMetricsKey = H;
rightMetricsKey = H;
userData = {
anchors = (
);
b = {
};
com.typemytype.robofont.layerData = {
b = {
anchors = (
);
components = (
);
contours = (
);
lib = {
};
name = N;
unicodes = (
);
width = 1499;
};
};
components = (
);
contours = (
);
lib = {
};
name = N;
unicodes = (
);
width = 1557;
};
},
{
glyphname = o;
lastChange = "2016-08-19 14:27:32 +0000";
layers = (
{
background = {
paths = (
{
closed = 1;
nodes = (
"139 495 OFFCURVE",
"46 402 OFFCURVE",
"46 245 CURVE SMOOTH",
"46 88 OFFCURVE",
"139 -5 OFFCURVE",
"267 -5 CURVE SMOOTH",
"395 -5 OFFCURVE",
"488 88 OFFCURVE",
"488 245 CURVE SMOOTH",
"488 402 OFFCURVE",
"395 495 OFFCURVE",
"267 495 CURVE SMOOTH"
);
},
{
closed = 1;
nodes = (
"368 446 OFFCURVE",
"431 368 OFFCURVE",
"431 245 CURVE SMOOTH",
"431 117 OFFCURVE",
"368 44 OFFCURVE",
"266 44 CURVE SMOOTH",
"166 44 OFFCURVE",
"103 117 OFFCURVE",
"103 245 CURVE SMOOTH",
"103 368 OFFCURVE",
"166 446 OFFCURVE",
"267 446 CURVE SMOOTH"
);
}
);
};
layerId = "9E718F8A-2CEA-4931-B05D-987794BD97DA";
paths = (
{
closed = 1;
nodes = (
"237 -3 OFFCURVE",
"293 53 OFFCURVE",
"293 147 CURVE SMOOTH",
"293 241 OFFCURVE",
"237 297 OFFCURVE",
"160 297 CURVE SMOOTH",
"83 297 OFFCURVE",
"28 241 OFFCURVE",
"28 147 CURVE SMOOTH",
"28 53 OFFCURVE",
"83 -3 OFFCURVE",
"160 -3 CURVE SMOOTH"
);
},
{
closed = 1;
nodes = (
"97 26 OFFCURVE",
"62 70 OFFCURVE",
"62 147 CURVE SMOOTH",
"62 221 OFFCURVE",
"97 268 OFFCURVE",
"160 268 CURVE SMOOTH",
"224 268 OFFCURVE",
"259 221 OFFCURVE",
"259 147 CURVE SMOOTH",
"259 70 OFFCURVE",
"224 26 OFFCURVE",
"160 26 CURVE SMOOTH"
);
}
);
width = 320;
},
{
background = {
paths = (
{
closed = 1;
nodes = (
"124 501 OFFCURVE",
"33 392 OFFCURVE",
"33 248 CURVE SMOOTH",
"33 104 OFFCURVE",
"124 -6 OFFCURVE",
"295 -6 CURVE SMOOTH",
"466 -6 OFFCURVE",
"557 104 OFFCURVE",
"557 248 CURVE SMOOTH",
"557 392 OFFCURVE",
"466 501 OFFCURVE",
"295 501 CURVE SMOOTH"
);
},
{
closed = 1;
nodes = (
"362 384 OFFCURVE",
"402 335 OFFCURVE",
"402 248 CURVE SMOOTH",
"402 161 OFFCURVE",
"362 112 OFFCURVE",
"295 112 CURVE SMOOTH",
"228 112 OFFCURVE",
"188 161 OFFCURVE",
"188 248 CURVE SMOOTH",
"188 335 OFFCURVE",
"228 384 OFFCURVE",
"295 384 CURVE SMOOTH"
);
}
);
};
layerId = "E1B555A7-F4E1-459C-9C1A-AE952106EEF9";
paths = (
{
closed = 1;
nodes = (
"280 -4 OFFCURVE",
"334 62 OFFCURVE",
"334 149 CURVE SMOOTH",
"334 235 OFFCURVE",
"280 301 OFFCURVE",
"177 301 CURVE SMOOTH",
"74 301 OFFCURVE",
"20 235 OFFCURVE",
"20 149 CURVE SMOOTH",
"20 62 OFFCURVE",
"74 -4 OFFCURVE",
"177 -4 CURVE SMOOTH"
);
},
{
closed = 1;
nodes = (
"131 67 OFFCURVE",
"113 97 OFFCURVE",
"113 149 CURVE SMOOTH",
"113 201 OFFCURVE",
"131 230 OFFCURVE",
"177 230 CURVE SMOOTH",
"223 230 OFFCURVE",
"241 201 OFFCURVE",
"241 149 CURVE SMOOTH",
"241 97 OFFCURVE",
"223 67 OFFCURVE",
"177 67 CURVE SMOOTH"
);
}
);
width = 354;
}
);
unicode = 006F;
userData = {
anchors = (
);
b = {
};
com.typemytype.robofont.guides = (
);
com.typemytype.robofont.layerData = {
b = {
anchors = (
);
components = (
);
contours = (
);
lib = {
};
name = o;
unicodes = (
);
width = 1144;
};
};
components = (
);
contours = (
);
lib = {
};
name = o;
unicodes = (
);
width = 1199;
};
},
{
glyphname = p;
lastChange = "2016-08-19 11:24:57 +0000";
layers = (
{
layerId = "9E718F8A-2CEA-4931-B05D-987794BD97DA";
paths = (
{
closed = 1;
nodes = (
"114 -3 OFFCURVE",
"120 4 OFFCURVE",
"120 14 CURVE SMOOTH",
"120 179 LINE",
"244 179 LINE SMOOTH",
"322 179 OFFCURVE",
"382 221 OFFCURVE",
"382 302 CURVE SMOOTH",
"382 383 OFFCURVE",
"326 423 OFFCURVE",
"244 423 CURVE SMOOTH",
"105 423 LINE SMOOTH",
"95 423 OFFCURVE",
"87 416 OFFCURVE",
"87 406 CURVE SMOOTH",
"87 14 LINE SMOOTH",
"87 4 OFFCURVE",
"93 -3 OFFCURVE",
"103 -3 CURVE SMOOTH"
);
},
{
closed = 1;
nodes = (
"120 393 LINE",
"243 393 LINE SMOOTH",
"307 393 OFFCURVE",
"349 368 OFFCURVE",
"349 302 CURVE SMOOTH",
"349 237 OFFCURVE",
"307 209 OFFCURVE",
"243 209 CURVE SMOOTH",
"120 209 LINE"
);
}
);
width = 409;
},
{
layerId = "E1B555A7-F4E1-459C-9C1A-AE952106EEF9";
paths = (
{
closed = 1;
nodes = (
"143 -4 OFFCURVE",
"164 12 OFFCURVE",
"164 44 CURVE SMOOTH",
"164 158 LINE",
"265 158 LINE SMOOTH",
"359 158 OFFCURVE",
"410 211 OFFCURVE",
"410 290 CURVE SMOOTH",
"410 370 OFFCURVE",
"360 423 OFFCURVE",
"265 423 CURVE SMOOTH",
"113 423 LINE SMOOTH",
"84 423 OFFCURVE",
"68 407 OFFCURVE",
"68 378 CURVE SMOOTH",
"68 44 LINE SMOOTH",
"68 12 OFFCURVE",
"89 -4 OFFCURVE",
"116 -4 CURVE SMOOTH"
);
},
{
closed = 1;
nodes = (
"163 349 LINE",
"248 349 LINE SMOOTH",
"294 349 OFFCURVE",
"319 332 OFFCURVE",
"319 290 CURVE SMOOTH",
"319 248 OFFCURVE",
"294 231 OFFCURVE",
"248 231 CURVE SMOOTH",
"163 231 LINE"
);
}
);
width = 431;
}
);
leftMetricsKey = H;
userData = {
anchors = (
);
b = {
};
com.typemytype.robofont.layerData = {
b = {
anchors = (
);
components = (
);
contours = (
{
points = (
{
segmentType = curve;
smooth = 1;
x = 266;
y = 0;
},
{
segmentType = line;
smooth = 1;
x = 1035;
y = 0;
},
{
smooth = 0;
x = 1084;
y = 0;
},
{
smooth = 0;
x = 1108;
y = 34;
},
{
segmentType = curve;
smooth = 1;
x = 1108;
y = 71;
},
{
smooth = 0;
x = 1108;
y = 107;
},
{
smooth = 0;
x = 1084;
y = 141;
},
{
segmentType = curve;
smooth = 1;
x = 1035;
y = 141;
},
{
segmentType = line;
smooth = 0;
x = 356;
y = 141;
},
{
segmentType = line;
smooth = 0;
x = 356;
y = 665;
},
{
segmentType = line;
smooth = 1;
x = 975;
y = 665;
},
{
smooth = 0;
x = 1024;
y = 665;
},
{
smooth = 0;
x = 1049;
y = 698;
},
{
segmentType = curve;
smooth = 1;
x = 1049;
y = 734;
},
{
smooth = 0;
x = 1049;
y = 770;
},
{
smooth = 0;
x = 1026;
y = 803;
},
{
segmentType = curve;
smooth = 1;
x = 975;
y = 803;
},
{
segmentType = line;
smooth = 0;
x = 356;
y = 803;
},
{
segmentType = line;
smooth = 0;
x = 356;
y = 1285;
},
{
segmentType = line;
smooth = 1;
x = 1007;
y = 1285;
},
{
smooth = 0;
x = 1056;
y = 1285;
},
{
smooth = 0;
x = 1080;
y = 1319;
},
{
segmentType = curve;
smooth = 1;
x = 1080;
y = 1356;
},
{
smooth = 0;
x = 1080;
y = 1392;
},
{
smooth = 0;
x = 1056;
y = 1426;
},
{
segmentType = curve;
smooth = 1;
x = 1007;
y = 1426;
},
{
segmentType = line;
smooth = 1;
x = 261;
y = 1426;
},
{
smooth = 0;
x = 213;
y = 1426;
},
{
smooth = 0;
x = 178;
y = 1383;
},
{
segmentType = curve;
smooth = 1;
x = 178;
y = 1340;
},
{
segmentType = line;
smooth = 1;
x = 178;
y = 86;
},
{
smooth = 0;
x = 178;
y = 41;
},
{
smooth = 0;
x = 222;
y = 0;
}
);
}
);
lib = {
};
name = P;
unicodes = (
);
width = 1201;
};
};
components = (
);
contours = (
);
lib = {
};
name = P;
unicodes = (
);
width = 1319;
};
},
{
glyphname = q;
lastChange = "2016-08-19 11:24:57 +0000";
layers = (
{
components = (
{
name = O;
transform = "{0.6, 0, 0, 0.6, 24, 0}";
}
);
layerId = "9E718F8A-2CEA-4931-B05D-987794BD97DA";
paths = (
{
closed = 1;
nodes = (
"368 -121 OFFCURVE",
"396 -109 OFFCURVE",
"385 -89 CURVE SMOOTH",
"354 -37 LINE SMOOTH",
"335 -7 OFFCURVE",
"320 10 OFFCURVE",
"276 10 CURVE",
"247 -4 LINE",
"289 -4 OFFCURVE",
"310 -23 OFFCURVE",
"320 -41 CURVE SMOOTH",
"354 -98 LINE SMOOTH"
);
}
);
width = 743;
},
{
components = (
{
name = O;
transform = "{0.6, 0, 0, 0.6, 19, 0}";
}
);
layerId = "E1B555A7-F4E1-459C-9C1A-AE952106EEF9";
paths = (
{
closed = 1;
nodes = (
"371 -137 OFFCURVE",
"459 -103 OFFCURVE",
"422 -46 CURVE SMOOTH",
"406 -19 LINE SMOOTH",
"386 11 OFFCURVE",
"361 23 OFFCURVE",
"322 23 CURVE",
"255 -4 LINE",
"283 -4 OFFCURVE",
"297 -13 OFFCURVE",
"306 -28 CURVE SMOOTH",
"342 -88 LINE SMOOTH"
);
}
);
width = 785;
}
);
leftMetricsKey = O;
widthMetricsKey = O;
userData = {
anchors = (
);
b = {
};
com.typemytype.robofont.layerData = {
b = {
anchors = (
);
components = (
);
contours = (
);
lib = {
};
name = Q;
unicodes = (
);
width = 1597;
};
};
components = (
);
contours = (
);
lib = {
};
name = Q;
unicodes = (
);
width = 1604;
};
},
{
glyphname = r;
lastChange = "2016-08-19 11:24:57 +0000";
layers = (
{
layerId = "9E718F8A-2CEA-4931-B05D-987794BD97DA";
paths = (
{
closed = 1;
nodes = (
"114 -3 OFFCURVE",
"120 4 OFFCURVE",
"120 14 CURVE SMOOTH",
"120 185 LINE",
"205 185 LINE SMOOTH",
"249 185 OFFCURVE",
"270 173 OFFCURVE",
"294 136 CURVE SMOOTH",
"372 9 LINE SMOOTH",
"387 -14 OFFCURVE",
"415 -2 OFFCURVE",
"403 17 CURVE SMOOTH",
"325 143 LINE SMOOTH",
"304 178 OFFCURVE",
"283 194 OFFCURVE",
"244 194 CURVE",
"254 188 LINE",
"333 188 OFFCURVE",
"392 223 OFFCURVE",
"392 305 CURVE SMOOTH",
"392 386 OFFCURVE",
"335 423 OFFCURVE",
"254 423 CURVE SMOOTH",
"105 423 LINE SMOOTH",
"95 423 OFFCURVE",
"87 416 OFFCURVE",
"87 406 CURVE SMOOTH",
"87 14 LINE SMOOTH",
"87 4 OFFCURVE",
"93 -3 OFFCURVE",
"103 -3 CURVE SMOOTH"
);
},
{
closed = 1;
nodes = (
"120 393 LINE",
"253 393 LINE SMOOTH",
"317 393 OFFCURVE",
"358 371 OFFCURVE",
"358 305 CURVE SMOOTH",
"358 239 OFFCURVE",
"317 215 OFFCURVE",
"253 215 CURVE SMOOTH",
"120 215 LINE"
);
}
);
width = 431;
},
{
layerId = "E1B555A7-F4E1-459C-9C1A-AE952106EEF9";
paths = (
{
closed = 1;
nodes = (
"142 -4 OFFCURVE",
"163 12 OFFCURVE",
"163 44 CURVE SMOOTH",
"163 163 LINE",
"209 163 LINE SMOOTH",
"232 163 OFFCURVE",
"245 154 OFFCURVE",
"257 135 CURVE SMOOTH",
"336 18 LINE SMOOTH",
"370 -32 OFFCURVE",
"453 8 OFFCURVE",
"416 61 CURVE SMOOTH",
"372 127 LINE SMOOTH",
"347 163 OFFCURVE",
"324 174 OFFCURVE",
"283 174 CURVE",
"271 167 LINE",
"359 167 OFFCURVE",
"415 216 OFFCURVE",
"415 295 CURVE SMOOTH",
"415 376 OFFCURVE",
"365 423 OFFCURVE",
"269 423 CURVE SMOOTH",
"113 423 LINE SMOOTH",
"84 423 OFFCURVE",
"68 407 OFFCURVE",
"68 378 CURVE SMOOTH",
"68 44 LINE SMOOTH",
"68 12 OFFCURVE",
"89 -4 OFFCURVE",
"116 -4 CURVE SMOOTH"
);
},
{
closed = 1;
nodes = (
"162 349 LINE",
"252 349 LINE SMOOTH",
"301 349 OFFCURVE",
"323 334 OFFCURVE",
"323 293 CURVE SMOOTH",
"323 253 OFFCURVE",
"301 237 OFFCURVE",
"252 237 CURVE SMOOTH",
"162 237 LINE"
);
}
);
width = 450;
}
);
leftMetricsKey = H;
userData = {
anchors = (
);
b = {
};
com.typemytype.robofont.guides = (
);
com.typemytype.robofont.layerData = {
b = {
anchors = (
);
components = (
);
contours = (
{
points = (
{
segmentType = curve;
smooth = 1;
x = 267;
y = 0;
},
{
smooth = 0;
x = 311;
y = 0;
},
{
smooth = 0;
x = 356;
y = 27;
},
{
segmentType = curve;
smooth = 1;
x = 356;
y = 84;
},
{
segmentType = line;
smooth = 0;
x = 356;
y = 628;
},
{
segmentType = line;
smooth = 1;
x = 669;
y = 628;
},
{
smooth = 0;
x = 962;
y = 628;
},
{
smooth = 0;
x = 1182;
y = 722;
},
{
segmentType = curve;
smooth = 1;
x = 1182;
y = 1026;
},
{
smooth = 0;
x = 1182;
y = 1324;
},
{
smooth = 0;
x = 993;
y = 1426;
},
{
segmentType = curve;
smooth = 1;
x = 684;
y = 1426;
},
{
segmentType = line;
smooth = 1;
x = 268;
y = 1426;
},
{
smooth = 0;
x = 217;
y = 1426;
},
{
smooth = 0;
x = 178;
y = 1387;
},
{
segmentType = curve;
smooth = 1;
x = 178;
y = 1339;
},
{
segmentType = line;
smooth = 1;
x = 178;
y = 84;
},
{
smooth = 0;
x = 178;
y = 28;
},
{
smooth = 0;
x = 222;
y = 0;
}
);
},
{
points = (
{
segmentType = line;
smooth = 0;
x = 356;
y = 764;
},
{
segmentType = line;
smooth = 0;
x = 356;
y = 1285;
},
{
segmentType = line;
smooth = 1;
x = 684;
y = 1285;
},
{
smooth = 0;
x = 914;
y = 1285;
},
{
smooth = 0;
x = 1008;
y = 1210;
},
{
segmentType = curve;
smooth = 1;
x = 1008;
y = 1026;
},
{
smooth = 0;
x = 1008;
y = 838;
},
{
smooth = 0;
x = 901;
y = 764;
},
{
segmentType = curve;
smooth = 1;
x = 670;
y = 764;
}
);
}
);
lib = {
};
name = R;
unicodes = (
);
width = 1363;
};
};
components = (
);
contours = (
);
lib = {
};
name = R;
unicodes = (
);
width = 1408;
};
},
{
glyphname = s;
lastChange = "2016-08-19 11:24:25 +0000";
layers = (
{
layerId = "9E718F8A-2CEA-4931-B05D-987794BD97DA";
paths = (
{
closed = 1;
nodes = (
"274 -4 OFFCURVE",
"329 47 OFFCURVE",
"329 111 CURVE SMOOTH",
"329 258 OFFCURVE",
"66 184 OFFCURVE",
"66 309 CURVE SMOOTH",
"66 368 OFFCURVE",
"113 397 OFFCURVE",
"181 397 CURVE SMOOTH",
"235 397 OFFCURVE",
"265 380 OFFCURVE",
"303 350 CURVE SMOOTH",
"308 346 OFFCURVE",
"312 344 OFFCURVE",
"316 344 CURVE SMOOTH",
"322 344 OFFCURVE",
"327 351 OFFCURVE",
"327 359 CURVE SMOOTH",
"327 365 OFFCURVE",
"325 370 OFFCURVE",
"320 375 CURVE SMOOTH",
"286 410 OFFCURVE",
"233 427 OFFCURVE",
"181 427 CURVE SMOOTH",
"82 427 OFFCURVE",
"32 371 OFFCURVE",
"32 309 CURVE SMOOTH",
"32 154 OFFCURVE",
"295 224 OFFCURVE",
"295 112 CURVE SMOOTH",
"295 55 OFFCURVE",
"251 26 OFFCURVE",
"179 26 CURVE SMOOTH",
"127 26 OFFCURVE",
"83 43 OFFCURVE",
"46 73 CURVE SMOOTH",
"41 77 OFFCURVE",
"37 79 OFFCURVE",
"34 79 CURVE SMOOTH",
"27 79 OFFCURVE",
"23 72 OFFCURVE",
"23 64 CURVE SMOOTH",
"23 59 OFFCURVE",
"25 53 OFFCURVE",
"29 48 CURVE SMOOTH",
"64 13 OFFCURVE",
"128 -4 OFFCURVE",
"179 -4 CURVE SMOOTH"
);
}
);
width = 353;
},
{
layerId = "E1B555A7-F4E1-459C-9C1A-AE952106EEF9";
paths = (
{
closed = 1;
nodes = (
"290 -4 OFFCURVE",
"364 43 OFFCURVE",
"364 124 CURVE SMOOTH",
"364 277 OFFCURVE",
"125 221 OFFCURVE",
"125 302 CURVE SMOOTH",
"125 331 OFFCURVE",
"150 352 OFFCURVE",
"200 352 CURVE SMOOTH",
"248 352 OFFCURVE",
"273 337 OFFCURVE",
"296 322 CURVE SMOOTH",
"307 316 OFFCURVE",
"314 312 OFFCURVE",
"326 312 CURVE SMOOTH",
"346 312 OFFCURVE",
"357 334 OFFCURVE",
"357 351 CURVE SMOOTH",
"357 365 OFFCURVE",
"353 375 OFFCURVE",
"340 385 CURVE SMOOTH",
"305 411 OFFCURVE",
"262 427 OFFCURVE",
"199 427 CURVE SMOOTH",
"91 427 OFFCURVE",
"29 365 OFFCURVE",
"29 296 CURVE SMOOTH",
"29 145 OFFCURVE",
"268 194 OFFCURVE",
"268 120 CURVE SMOOTH",
"268 91 OFFCURVE",
"246 71 OFFCURVE",
"190 71 CURVE SMOOTH",
"139 71 OFFCURVE",
"107 84 OFFCURVE",
"80 101 CURVE SMOOTH",
"70 107 OFFCURVE",
"62 111 OFFCURVE",
"51 111 CURVE SMOOTH",
"31 111 OFFCURVE",
"20 89 OFFCURVE",
"20 72 CURVE SMOOTH",
"20 58 OFFCURVE",
"23 48 OFFCURVE",
"37 38 CURVE SMOOTH",
"68 14 OFFCURVE",
"122 -4 OFFCURVE",
"192 -4 CURVE SMOOTH"
);
}
);
width = 390;
}
);
userData = {
anchors = (
);
b = {
};
com.typemytype.robofont.layerData = {
b = {
anchors = (
);
components = (
);
contours = (
);
lib = {
};
name = S;
unicodes = (
);
width = 1274;
};
};
components = (
);
contours = (
);
lib = {
};
name = S;
unicodes = (
);
width = 1317;
};
},
{
glyphname = t;
lastChange = "2016-08-19 11:24:25 +0000";
layers = (
{
layerId = "9E718F8A-2CEA-4931-B05D-987794BD97DA";
paths = (
{
closed = 1;
nodes = (
"185 -3 OFFCURVE",
"191 4 OFFCURVE",
"191 14 CURVE SMOOTH",
"191 393 LINE",
"332 393 LINE SMOOTH",
"340 393 OFFCURVE",
"347 399 OFFCURVE",
"347 408 CURVE SMOOTH",
"347 417 OFFCURVE",
"340 423 OFFCURVE",
"332 423 CURVE SMOOTH",
"17 423 LINE SMOOTH",
"8 423 OFFCURVE",
"2 417 OFFCURVE",
"2 408 CURVE SMOOTH",
"2 399 OFFCURVE",
"8 393 OFFCURVE",
"17 393 CURVE SMOOTH",
"158 393 LINE",
"158 14 LINE SMOOTH",
"158 4 OFFCURVE",
"164 -3 OFFCURVE",
"175 -3 CURVE SMOOTH"
);
}
);
width = 349;
},
{
layerId = "E1B555A7-F4E1-459C-9C1A-AE952106EEF9";
paths = (
{
closed = 1;
nodes = (
"215 -3 OFFCURVE",
"238 13 OFFCURVE",
"238 44 CURVE SMOOTH",
"238 343 LINE",
"332 343 LINE SMOOTH",
"364 343 OFFCURVE",
"378 358 OFFCURVE",
"378 383 CURVE SMOOTH",
"378 409 OFFCURVE",
"364 423 OFFCURVE",
"332 423 CURVE SMOOTH",
"46 423 LINE SMOOTH",
"14 423 OFFCURVE",
"0 409 OFFCURVE",
"0 383 CURVE SMOOTH",
"0 358 OFFCURVE",
"14 343 OFFCURVE",
"46 343 CURVE SMOOTH",
"140 343 LINE",
"140 44 LINE SMOOTH",
"140 13 OFFCURVE",
"163 -3 OFFCURVE",
"189 -3 CURVE SMOOTH"
);
}
);
width = 378;
}
);
userData = {
anchors = (
);
b = {
};
com.typemytype.robofont.layerData = {
b = {
anchors = (
);
components = (
);
contours = (
{
points = (
{
segmentType = curve;
smooth = 1;
x = 581;
y = 0;
},
{
segmentType = line;
smooth = 1;
x = 1350;
y = 0;
},
{
smooth = 0;
x = 1399;
y = 0;
},
{
smooth = 0;
x = 1423;
y = 34;
},
{
segmentType = curve;
smooth = 1;
x = 1423;
y = 71;
},
{
smooth = 0;
x = 1423;
y = 107;
},
{
smooth = 0;
x = 1399;
y = 141;
},
{
segmentType = curve;
smooth = 1;
x = 1350;
y = 141;
},
{
segmentType = line;
smooth = 0;
x = 671;
y = 141;
},
{
segmentType = line;
smooth = 0;
x = 671;
y = 665;
},
{
segmentType = line;
smooth = 1;
x = 1290;
y = 665;
},
{
smooth = 0;
x = 1339;
y = 665;
},
{
smooth = 0;
x = 1364;
y = 698;
},
{
segmentType = curve;
smooth = 1;
x = 1364;
y = 734;
},
{
smooth = 0;
x = 1364;
y = 770;
},
{
smooth = 0;
x = 1341;
y = 803;
},
{
segmentType = curve;
smooth = 1;
x = 1290;
y = 803;
},
{
segmentType = line;
smooth = 0;
x = 671;
y = 803;
},
{
segmentType = line;
smooth = 0;
x = 671;
y = 1285;
},
{
segmentType = line;
smooth = 1;
x = 1322;
y = 1285;
},
{
smooth = 0;
x = 1371;
y = 1285;
},
{
smooth = 0;
x = 1395;
y = 1319;
},
{
segmentType = curve;
smooth = 1;
x = 1395;
y = 1356;
},
{
smooth = 0;
x = 1395;
y = 1392;
},
{
smooth = 0;
x = 1371;
y = 1426;
},
{
segmentType = curve;
smooth = 1;
x = 1322;
y = 1426;
},
{
segmentType = line;
smooth = 1;
x = 576;
y = 1426;
},
{
smooth = 0;
x = 528;
y = 1426;
},
{
smooth = 0;
x = 493;
y = 1383;
},
{
segmentType = curve;
smooth = 1;
x = 493;
y = 1340;
},
{
segmentType = line;
smooth = 1;
x = 493;
y = 86;
},
{
smooth = 0;
x = 493;
y = 41;
},
{
smooth = 0;
x = 537;
y = 0;
}
);
}
);
lib = {
};
name = T;
unicodes = (
);
width = 1158;
};
};
components = (
);
contours = (
);
lib = {
};
name = T;
unicodes = (
);
width = 1199;
};
},
{
glyphname = u;
lastChange = "2016-08-19 11:24:25 +0000";
layers = (
{
layerId = "9E718F8A-2CEA-4931-B05D-987794BD97DA";
paths = (
{
closed = 1;
nodes = (
"306 -4 OFFCURVE",
"374 41 OFFCURVE",
"374 162 CURVE SMOOTH",
"374 409 LINE SMOOTH",
"374 419 OFFCURVE",
"368 426 OFFCURVE",
"358 426 CURVE SMOOTH",
"349 426 OFFCURVE",
"342 419 OFFCURVE",
"342 409 CURVE SMOOTH",
"342 158 LINE SMOOTH",
"342 63 OFFCURVE",
"290 26 OFFCURVE",
"212 26 CURVE SMOOTH",
"133 26 OFFCURVE",
"82 63 OFFCURVE",
"82 158 CURVE SMOOTH",
"82 409 LINE SMOOTH",
"82 419 OFFCURVE",
"76 426 OFFCURVE",
"65 426 CURVE SMOOTH",
"55 426 OFFCURVE",
"49 419 OFFCURVE",
"49 409 CURVE SMOOTH",
"49 162 LINE SMOOTH",
"49 41 OFFCURVE",
"117 -4 OFFCURVE",
"212 -4 CURVE SMOOTH"
);
}
);
width = 424;
},
{
layerId = "E1B555A7-F4E1-459C-9C1A-AE952106EEF9";
paths = (
{
closed = 1;
nodes = (
"337 -4 OFFCURVE",
"405 56 OFFCURVE",
"405 176 CURVE SMOOTH",
"405 379 LINE SMOOTH",
"405 410 OFFCURVE",
"383 426 OFFCURVE",
"358 426 CURVE SMOOTH",
"332 426 OFFCURVE",
"310 410 OFFCURVE",
"310 379 CURVE SMOOTH",
"310 172 LINE SMOOTH",
"310 99 OFFCURVE",
"272 71 OFFCURVE",
"222 71 CURVE SMOOTH",
"171 71 OFFCURVE",
"134 99 OFFCURVE",
"134 172 CURVE SMOOTH",
"134 379 LINE SMOOTH",
"134 410 OFFCURVE",
"112 426 OFFCURVE",
"86 426 CURVE SMOOTH",
"61 426 OFFCURVE",
"39 410 OFFCURVE",
"39 379 CURVE SMOOTH",
"39 176 LINE SMOOTH",
"39 54 OFFCURVE",
"106 -4 OFFCURVE",
"222 -4 CURVE SMOOTH"
);
}
);
width = 444;
}
);
userData = {
anchors = (
);
b = {
};
com.typemytype.robofont.layerData = {
b = {
anchors = (
);
components = (
);
contours = (
);
lib = {
};
name = U;
unicodes = (
);
width = 1490;
};
};
components = (
);
contours = (
);
lib = {
};
name = U;
unicodes = (
);
width = 1513;
};
},
{
glyphname = v;
lastChange = "2016-08-19 11:24:25 +0000";
layers = (
{
layerId = "9E718F8A-2CEA-4931-B05D-987794BD97DA";
paths = (
{
closed = 1;
nodes = (
"193 -7 OFFCURVE",
"216 -6 OFFCURVE",
"222 9 CURVE SMOOTH",
"398 407 LINE SMOOTH",
"406 425 OFFCURVE",
"376 436 OFFCURVE",
"368 416 CURVE SMOOTH",
"196 24 LINE",
"213 24 LINE",
"41 416 LINE SMOOTH",
"32 436 OFFCURVE",
"3 425 OFFCURVE",
"11 407 CURVE SMOOTH",
"186 9 LINE SMOOTH"
);
}
);
width = 409;
},
{
layerId = "E1B555A7-F4E1-459C-9C1A-AE952106EEF9";
paths = (
{
closed = 1;
nodes = (
"188 -13 OFFCURVE",
"251 -11 OFFCURVE",
"269 28 CURVE SMOOTH",
"431 365 LINE SMOOTH",
"456 418 OFFCURVE",
"373 453 OFFCURVE",
"349 401 CURVE SMOOTH",
"207 92 LINE",
"234 92 LINE",
"92 401 LINE SMOOTH",
"68 453 OFFCURVE",
"-17 418 OFFCURVE",
"8 365 CURVE SMOOTH",
"169 28 LINE SMOOTH"
);
}
);
width = 439;
}
);
userData = {
anchors = (
);
b = {
};
com.typemytype.robofont.guides = (
);
com.typemytype.robofont.layerData = {
b = {
anchors = (
);
components = (
);
contours = (
{
points = (
{
segmentType = curve;
smooth = 1;
x = 644;
y = "-5";
},
{
smooth = 0;
x = 712;
y = "-5";
},
{
smooth = 0;
x = 764;
y = 38;
},
{
segmentType = curve;
smooth = 1;
x = 793;
y = 117;
},
{
segmentType = line;
smooth = 1;
x = 1243;
y = 1324;
},
{
smooth = 0;
x = 1247;
y = 1335;
},
{
smooth = 0;
x = 1248;
y = 1342;
},
{
segmentType = curve;
smooth = 1;
x = 1248;
y = 1351;
},
{
smooth = 0;
x = 1248;
y = 1395;
},
{
smooth = 0;
x = 1203;
y = 1427;
},
{
segmentType = curve;
smooth = 1;
x = 1160;
y = 1427;
},
{
smooth = 0;
x = 1125;
y = 1427;
},
{
smooth = 0;
x = 1090;
y = 1408;
},
{
segmentType = curve;
smooth = 1;
x = 1076;
y = 1369;
},
{
segmentType = line;
smooth = 0;
x = 651;
y = 192;
},
{
segmentType = line;
smooth = 0;
x = 650;
y = 190;
},
{
segmentType = line;
smooth = 1;
x = 214;
y = 1370;
},
{
smooth = 0;
x = 200;
y = 1407;
},
{
smooth = 0;
x = 170;
y = 1427;
},
{
segmentType = curve;
smooth = 1;
x = 135;
y = 1427;
},
{
smooth = 0;
x = 90;
y = 1427;
},
{
smooth = 0;
x = 43;
y = 1392;
},
{
segmentType = curve;
smooth = 1;
x = 43;
y = 1344;
},
{
smooth = 0;
x = 43;
y = 1336;
},
{
smooth = 0;
x = 44;
y = 1326;
},
{
segmentType = curve;
smooth = 0;
x = 48;
y = 1318;
},
{
segmentType = line;
smooth = 1;
x = 501;
y = 117;
},
{
smooth = 0;
x = 532;
y = 35;
},
{
smooth = 0;
x = 581;
y = "-5";
}
);
}
);
lib = {
};
name = V;
unicodes = (
);
width = 1289;
};
};
components = (
);
contours = (
);
lib = {
};
name = V;
unicodes = (
);
width = 1365;
};
},
{
glyphname = w;
lastChange = "2016-08-19 11:24:25 +0000";
layers = (
{
layerId = "9E718F8A-2CEA-4931-B05D-987794BD97DA";
paths = (
{
closed = 1;
nodes = (
"175 -8 OFFCURVE",
"198 -7 OFFCURVE",
"203 9 CURVE SMOOTH",
"339 389 LINE",
"326 389 LINE",
"461 9 LINE SMOOTH",
"467 -8 OFFCURVE",
"490 -7 OFFCURVE",
"496 9 CURVE SMOOTH",
"636 407 LINE SMOOTH",
"643 425 OFFCURVE",
"613 435 OFFCURVE",
"606 416 CURVE SMOOTH",
"469 23 LINE",
"487 23 LINE",
"350 411 LINE SMOOTH",
"343 429 OFFCURVE",
"321 429 OFFCURVE",
"315 412 CURVE SMOOTH",
"178 23 LINE",
"195 23 LINE",
"58 416 LINE SMOOTH",
"52 435 OFFCURVE",
"22 425 OFFCURVE",
"28 407 CURVE SMOOTH",
"169 9 LINE SMOOTH"
);
}
);
width = 664;
},
{
layerId = "E1B555A7-F4E1-459C-9C1A-AE952106EEF9";
paths = (
{
closed = 1;
nodes = (
"163 -14 OFFCURVE",
"232 -14 OFFCURVE",
"247 28 CURVE SMOOTH",
"343 292 LINE",
"330 292 LINE",
"424 28 LINE SMOOTH",
"439 -14 OFFCURVE",
"508 -14 OFFCURVE",
"523 28 CURVE SMOOTH",
"647 365 LINE SMOOTH",
"671 430 OFFCURVE",
"585 450 OFFCURVE",
"566 397 CURVE SMOOTH",
"463 105 LINE",
"481 105 LINE",
"381 395 LINE SMOOTH",
"367 437 OFFCURVE",
"311 437 OFFCURVE",
"296 396 CURVE SMOOTH",
"190 105 LINE",
"212 105 LINE",
"110 397 LINE SMOOTH",
"91 450 OFFCURVE",
"0 430 OFFCURVE",
"23 365 CURVE SMOOTH",
"148 28 LINE SMOOTH"
);
}
);
width = 671;
}
);
userData = {
anchors = (
);
b = {
};
com.typemytype.robofont.layerData = {
b = {
anchors = (
);
components = (
);
contours = (
);
lib = {
};
name = W;
unicodes = (
);
width = 2126;
};
};
components = (
);
contours = (
);
lib = {
};
name = W;
unicodes = (
);
width = 2070;
};
},
{
glyphname = x;
lastChange = "2016-08-19 11:24:25 +0000";
layers = (
{
layerId = "9E718F8A-2CEA-4931-B05D-987794BD97DA";
paths = (
{
closed = 1;
nodes = (
"193 193 LINE",
"212 217 LINE",
"355 400 LINE SMOOTH",
"368 416 OFFCURVE",
"344 436 OFFCURVE",
"331 419 CURVE SMOOTH",
"193 241 LINE",
"174 217 LINE",
"22 23 LINE SMOOTH",
"9 7 OFFCURVE",
"33 -13 OFFCURVE",
"46 4 CURVE SMOOTH"
);
},
{
closed = 1;
nodes = (
"353 -13 OFFCURVE",
"376 7 OFFCURVE",
"363 23 CURVE SMOOTH",
"212 217 LINE",
"193 241 LINE",
"54 419 LINE SMOOTH",
"41 436 OFFCURVE",
"17 416 OFFCURVE",
"31 400 CURVE SMOOTH",
"174 217 LINE",
"193 193 LINE",
"339 4 LINE SMOOTH"
);
}
);
width = 385;
},
{
layerId = "E1B555A7-F4E1-459C-9C1A-AE952106EEF9";
paths = (
{
closed = 1;
nodes = (
"204 147 LINE",
"260 214 LINE",
"377 353 LINE SMOOTH",
"416 398 OFFCURVE",
"347 455 OFFCURVE",
"311 410 CURVE SMOOTH",
"204 280 LINE",
"148 214 LINE",
"26 70 LINE SMOOTH",
"-13 25 OFFCURVE",
"55 -31 OFFCURVE",
"92 12 CURVE SMOOTH"
);
},
{
closed = 1;
nodes = (
"352 -32 OFFCURVE",
"420 25 OFFCURVE",
"381 70 CURVE SMOOTH",
"260 214 LINE",
"204 280 LINE",
"96 410 LINE SMOOTH",
"59 454 OFFCURVE",
"-8 398 OFFCURVE",
"30 353 CURVE SMOOTH",
"148 214 LINE",
"204 147 LINE",
"315 12 LINE SMOOTH"
);
}
);
width = 407;
}
);
userData = {
anchors = (
);
b = {
};
com.typemytype.robofont.layerData = {
b = {
anchors = (
);
components = (
);
contours = (
{
points = (
{
segmentType = curve;
smooth = 1;
x = 151;
y = 0;
},
{
smooth = 0;
x = 176;
y = 0;
},
{
smooth = 0;
x = 201;
y = 12;
},
{
segmentType = curve;
smooth = 1;
x = 222;
y = 41;
},
{
segmentType = line;
smooth = 0;
x = 641;
y = 616;
},
{
segmentType = line;
smooth = 0;
x = 746;
y = 734;
},
{
segmentType = line;
smooth = 1;
x = 1175;
y = 1310;
},
{
smooth = 0;
x = 1186;
y = 1325;
},
{
smooth = 0;
x = 1190;
y = 1338;
},
{
segmentType = curve;
smooth = 1;
x = 1190;
y = 1353;
},
{
smooth = 0;
x = 1190;
y = 1393;
},
{
smooth = 0;
x = 1153;
y = 1426;
},
{
segmentType = curve;
smooth = 1;
x = 1110;
y = 1426;
},
{
smooth = 0;
x = 1083;
y = 1426;
},
{
smooth = 0;
x = 1058;
y = 1414;
},
{
segmentType = curve;
smooth = 1;
x = 1037;
y = 1385;
},
{
segmentType = line;
smooth = 0;
x = 648;
y = 844;
},
{
segmentType = line;
smooth = 0;
x = 542;
y = 732;
},
{
segmentType = line;
smooth = 1;
x = 84;
y = 121;
},
{
smooth = 0;
x = 73;
y = 106;
},
{
smooth = 0;
x = 68;
y = 91;
},
{
segmentType = curve;
smooth = 1;
x = 68;
y = 76;
},
{
smooth = 0;
x = 68;
y = 35;
},
{
smooth = 0;
x = 108;
y = 0;
}
);
},
{
points = (
{
segmentType = curve;
smooth = 1;
x = 1104;
y = 0;
},
{
smooth = 0;
x = 1151;
y = 0;
},
{
smooth = 0;
x = 1200;
y = 40;
},
{
segmentType = curve;
smooth = 1;
x = 1200;
y = 85;
},
{
smooth = 0;
x = 1200;
y = 98;
},
{
smooth = 0;
x = 1195;
y = 113;
},
{
segmentType = curve;
smooth = 0;
x = 1186;
y = 126;
},
{
segmentType = line;
smooth = 0;
x = 272;
y = 1385;
},
{
smooth = 0;
x = 252;
y = 1414;
},
{
smooth = 0;
x = 225;
y = 1426;
},
{
segmentType = curve;
smooth = 1;
x = 197;
y = 1426;
},
{
smooth = 0;
x = 149;
y = 1426;
},
{
smooth = 0;
x = 100;
y = 1388;
},
{
segmentType = curve;
smooth = 1;
x = 100;
y = 1343;
},
{
smooth = 0;
x = 100;
y = 1328;
},
{
smooth = 0;
x = 105;
y = 1315;
},
{
segmentType = curve;
smooth = 0;
x = 114;
y = 1303;
},
{
segmentType = line;
smooth = 0;
x = 1033;
y = 40;
},
{
smooth = 0;
x = 1052;
y = 13;
},
{
smooth = 0;
x = 1076;
y = 0;
}
);
}
);
lib = {
};
name = X;
unicodes = (
);
width = 1274;
};
};
components = (
);
contours = (
);
lib = {
};
name = X;
unicodes = (
);
width = 1322;
};
},
{
glyphname = y;
lastChange = "2016-08-19 11:24:25 +0000";
layers = (
{
layerId = "9E718F8A-2CEA-4931-B05D-987794BD97DA";
paths = (
{
closed = 1;
nodes = (
"187 -3 OFFCURVE",
"193 4 OFFCURVE",
"193 14 CURVE SMOOTH",
"193 222 LINE",
"185 195 LINE",
"344 400 LINE SMOOTH",
"356 416 OFFCURVE",
"333 436 OFFCURVE",
"320 419 CURVE SMOOTH",
"172 226 LINE",
"182 226 LINE",
"33 419 LINE SMOOTH",
"20 436 OFFCURVE",
"-3 416 OFFCURVE",
"9 400 CURVE SMOOTH",
"168 195 LINE",
"160 222 LINE",
"160 14 LINE SMOOTH",
"160 4 OFFCURVE",
"166 -3 OFFCURVE",
"176 -3 CURVE SMOOTH"
);
}
);
width = 353;
},
{
layerId = "E1B555A7-F4E1-459C-9C1A-AE952106EEF9";
paths = (
{
closed = 1;
nodes = (
"219 -4 OFFCURVE",
"241 12 OFFCURVE",
"241 44 CURVE SMOOTH",
"241 229 LINE",
"221 176 LINE",
"371 353 LINE SMOOTH",
"409 398 OFFCURVE",
"343 455 OFFCURVE",
"305 410 CURVE SMOOTH",
"182 261 LINE",
"202 261 LINE",
"79 410 LINE SMOOTH",
"42 455 OFFCURVE",
"-25 398 OFFCURVE",
"14 353 CURVE SMOOTH",
"164 176 LINE",
"144 229 LINE",
"144 44 LINE SMOOTH",
"144 12 OFFCURVE",
"166 -4 OFFCURVE",
"193 -4 CURVE SMOOTH"
);
}
);
width = 385;
}
);
userData = {
anchors = (
);
b = {
};
com.typemytype.robofont.guides = (
);
com.typemytype.robofont.layerData = {
b = {
anchors = (
);
components = (
);
contours = (
{
points = (
{
segmentType = curve;
smooth = 1;
x = 641;
y = 0;
},
{
smooth = 0;
x = 685;
y = 0;
},
{
smooth = 0;
x = 730;
y = 29;
},
{
segmentType = curve;
smooth = 1;
x = 730;
y = 85;
},
{
segmentType = line;
smooth = 0;
x = 730;
y = 1285;
},
{
segmentType = line;
smooth = 1;
x = 1115;
y = 1285;
},
{
smooth = 0;
x = 1164;
y = 1285;
},
{
smooth = 0;
x = 1190;
y = 1319;
},
{
segmentType = curve;
smooth = 1;
x = 1190;
y = 1355;
},
{
smooth = 0;
x = 1190;
y = 1392;
},
{
smooth = 0;
x = 1166;
y = 1426;
},
{
segmentType = curve;
smooth = 1;
x = 1115;
y = 1426;
},
{
segmentType = line;
smooth = 1;
x = 160;
y = 1426;
},
{
smooth = 0;
x = 111;
y = 1426;
},
{
smooth = 0;
x = 86;
y = 1392;
},
{
segmentType = curve;
smooth = 1;
x = 86;
y = 1355;
},
{
smooth = 0;
x = 86;
y = 1319;
},
{
smooth = 0;
x = 111;
y = 1285;
},
{
segmentType = curve;
smooth = 1;
x = 160;
y = 1285;
},
{
segmentType = line;
smooth = 0;
x = 552;
y = 1285;
},
{
segmentType = line;
smooth = 1;
x = 552;
y = 85;
},
{
smooth = 0;
x = 552;
y = 29;
},
{
smooth = 0;
x = 596;
y = 0;
}
);
}
);
lib = {
};
name = Y;
unicodes = (
);
width = 1278;
};
};
components = (
);
contours = (
);
lib = {
};
name = Y;
unicodes = (
);
width = 1321;
};
},
{
glyphname = z;
lastChange = "2016-08-19 11:24:25 +0000";
layers = (
{
layerId = "9E718F8A-2CEA-4931-B05D-987794BD97DA";
paths = (
{
closed = 1;
nodes = (
"313 0 LINE SMOOTH",
"322 0 OFFCURVE",
"328 6 OFFCURVE",
"328 15 CURVE SMOOTH",
"328 24 OFFCURVE",
"322 30 OFFCURVE",
"313 30 CURVE SMOOTH",
"47 30 LINE",
"47 4 LINE",
"318 397 LINE SMOOTH",
"327 409 OFFCURVE",
"322 423 OFFCURVE",
"306 423 CURVE SMOOTH",
"36 423 LINE SMOOTH",
"28 423 OFFCURVE",
"22 417 OFFCURVE",
"22 408 CURVE SMOOTH",
"22 399 OFFCURVE",
"28 393 OFFCURVE",
"36 393 CURVE SMOOTH",
"296 393 LINE",
"296 419 LINE",
"26 27 LINE SMOOTH",
"16 14 OFFCURVE",
"22 0 OFFCURVE",
"37 0 CURVE SMOOTH"
);
}
);
width = 344;
},
{
layerId = "E1B555A7-F4E1-459C-9C1A-AE952106EEF9";
paths = (
{
closed = 1;
nodes = (
"308 0 LINE SMOOTH",
"340 0 OFFCURVE",
"354 14 OFFCURVE",
"354 39 CURVE SMOOTH",
"354 64 OFFCURVE",
"340 77 OFFCURVE",
"308 77 CURVE SMOOTH",
"118 77 LINE",
"118 50 LINE",
"334 348 LINE SMOOTH",
"359 382 OFFCURVE",
"344 423 OFFCURVE",
"304 423 CURVE SMOOTH",
"66 423 LINE SMOOTH",
"34 423 OFFCURVE",
"20 409 OFFCURVE",
"20 384 CURVE SMOOTH",
"20 359 OFFCURVE",
"34 346 OFFCURVE",
"66 346 CURVE SMOOTH",
"247 346 LINE",
"247 373 LINE",
"32 75 LINE SMOOTH",
"7 41 OFFCURVE",
"22 0 OFFCURVE",
"62 0 CURVE SMOOTH"
);
}
);
width = 366;
}
);
userData = {
anchors = (
);
b = {
};
com.typemytype.robofont.layerData = {
b = {
anchors = (
);
components = (
);
contours = (
{
points = (
{
segmentType = curve;
smooth = 1;
x = 266;
y = 0;
},
{
segmentType = line;
smooth = 1;
x = 1035;
y = 0;
},
{
smooth = 0;
x = 1084;
y = 0;
},
{
smooth = 0;
x = 1108;
y = 34;
},
{
segmentType = curve;
smooth = 1;
x = 1108;
y = 71;
},
{
smooth = 0;
x = 1108;
y = 107;
},
{
smooth = 0;
x = 1084;
y = 141;
},
{
segmentType = curve;
smooth = 1;
x = 1035;
y = 141;
},
{
segmentType = line;
smooth = 0;
x = 356;
y = 141;
},
{
segmentType = line;
smooth = 0;
x = 356;
y = 665;
},
{
segmentType = line;
smooth = 1;
x = 975;
y = 665;
},
{
smooth = 0;
x = 1024;
y = 665;
},
{
smooth = 0;
x = 1049;
y = 698;
},
{
segmentType = curve;
smooth = 1;
x = 1049;
y = 734;
},
{
smooth = 0;
x = 1049;
y = 770;
},
{
smooth = 0;
x = 1026;
y = 803;
},
{
segmentType = curve;
smooth = 1;
x = 975;
y = 803;
},
{
segmentType = line;
smooth = 0;
x = 356;
y = 803;
},
{
segmentType = line;
smooth = 0;
x = 356;
y = 1285;
},
{
segmentType = line;
smooth = 1;
x = 1007;
y = 1285;
},
{
smooth = 0;
x = 1056;
y = 1285;
},
{
smooth = 0;
x = 1080;
y = 1319;
},
{
segmentType = curve;
smooth = 1;
x = 1080;
y = 1356;
},
{
smooth = 0;
x = 1080;
y = 1392;
},
{
smooth = 0;
x = 1056;
y = 1426;
},
{
segmentType = curve;
smooth = 1;
x = 1007;
y = 1426;
},
{
segmentType = line;
smooth = 1;
x = 261;
y = 1426;
},
{
smooth = 0;
x = 213;
y = 1426;
},
{
smooth = 0;
x = 178;
y = 1383;
},
{
segmentType = curve;
smooth = 1;
x = 178;
y = 1340;
},
{
segmentType = line;
smooth = 1;
x = 178;
y = 86;
},
{
smooth = 0;
x = 178;
y = 41;
},
{
smooth = 0;
x = 222;
y = 0;
}
);
}
);
lib = {
};
name = Z;
unicodes = (
);
width = 1165;
};
};
components = (
);
contours = (
);
lib = {
};
name = Z;
unicodes = (
);
width = 1222;
};
},
{
color = 3;
glyphname = zero;
lastChange = "2016-08-18 13:20:44 +0000";
layers = (
{
background = {
paths = (
{
closed = 1;
nodes = (
"1148 -11 OFFCURVE",
"1189 154 OFFCURVE",
"1189 335 CURVE SMOOTH",
"1189 534 OFFCURVE",
"1144 689 OFFCURVE",
"961 689 CURVE SMOOTH",
"780 689 OFFCURVE",
"733 536 OFFCURVE",
"733 335 CURVE SMOOTH",
"733 151 OFFCURVE",
"775 -11 OFFCURVE",
"961 -11 CURVE SMOOTH"
);
},
{
closed = 1;
nodes = (
"815 38 OFFCURVE",
"800 220 OFFCURVE",
"800 335 CURVE SMOOTH",
"800 467 OFFCURVE",
"817 641 OFFCURVE",
"961 641 CURVE SMOOTH",
"1106 641 OFFCURVE",
"1124 464 OFFCURVE",
"1124 335 CURVE SMOOTH",
"1124 222 OFFCURVE",
"1109 38 OFFCURVE",
"961 38 CURVE SMOOTH"
);
},
{
closed = 1;
nodes = (
"429 -6 OFFCURVE",
"526 126 OFFCURVE",
"526 353 CURVE SMOOTH",
"526 581 OFFCURVE",
"429 711 OFFCURVE",
"285 711 CURVE SMOOTH",
"141 711 OFFCURVE",
"44 581 OFFCURVE",
"44 352 CURVE SMOOTH",
"44 126 OFFCURVE",
"141 -6 OFFCURVE",
"285 -6 CURVE SMOOTH"
);
},
{
closed = 1;
nodes = (
"167 44 OFFCURVE",
"100 161 OFFCURVE",
"100 353 CURVE SMOOTH",
"100 545 OFFCURVE",
"166 661 OFFCURVE",
"285 661 CURVE SMOOTH",
"405 661 OFFCURVE",
"470 545 OFFCURVE",
"470 353 CURVE SMOOTH",
"470 161 OFFCURVE",
"404 44 OFFCURVE",
"285 44 CURVE SMOOTH"
);
}
);
};
layerId = "9E718F8A-2CEA-4931-B05D-987794BD97DA";
paths = (
{
closed = 1;
nodes = (
"434 -6 OFFCURVE",
"526 106 OFFCURVE",
"526 353 CURVE SMOOTH",
"526 601 OFFCURVE",
"434 711 OFFCURVE",
"285 711 CURVE SMOOTH",
"136 711 OFFCURVE",
"44 601 OFFCURVE",
"44 352 CURVE SMOOTH",
"44 106 OFFCURVE",
"136 -6 OFFCURVE",
"285 -6 CURVE SMOOTH"
);
},
{
closed = 1;
nodes = (
"162 44 OFFCURVE",
"101 141 OFFCURVE",
"101 353 CURVE SMOOTH",
"101 565 OFFCURVE",
"161 661 OFFCURVE",
"285 661 CURVE SMOOTH",
"410 661 OFFCURVE",
"469 565 OFFCURVE",
"469 353 CURVE SMOOTH",
"469 141 OFFCURVE",
"409 44 OFFCURVE",
"285 44 CURVE SMOOTH"
);
}
);
width = 570;
},
{
background = {
paths = (
{
closed = 1;
nodes = (
"470 -7 OFFCURVE",
"575 112 OFFCURVE",
"575 353 CURVE SMOOTH",
"575 593 OFFCURVE",
"470 712 OFFCURVE",
"300 712 CURVE SMOOTH",
"130 712 OFFCURVE",
"25 593 OFFCURVE",
"25 353 CURVE SMOOTH",
"25 112 OFFCURVE",
"130 -7 OFFCURVE",
"300 -7 CURVE SMOOTH"
);
},
{
closed = 1;
nodes = (
"217 118 OFFCURVE",
"186 187 OFFCURVE",
"186 353 CURVE SMOOTH",
"186 519 OFFCURVE",
"217 587 OFFCURVE",
"300 587 CURVE SMOOTH",
"383 587 OFFCURVE",
"414 519 OFFCURVE",
"414 353 CURVE SMOOTH",
"414 187 OFFCURVE",
"383 118 OFFCURVE",
"300 118 CURVE SMOOTH"
);
}
);
};
layerId = "E1B555A7-F4E1-459C-9C1A-AE952106EEF9";
paths = (
{
closed = 1;
nodes = (
"465 -7 OFFCURVE",
"568 112 OFFCURVE",
"568 353 CURVE SMOOTH",
"568 593 OFFCURVE",
"465 712 OFFCURVE",
"300 712 CURVE SMOOTH",
"135 712 OFFCURVE",
"32 593 OFFCURVE",
"32 353 CURVE SMOOTH",
"32 112 OFFCURVE",
"135 -7 OFFCURVE",
"300 -7 CURVE SMOOTH"
);
},
{
closed = 1;
nodes = (
"226 118 OFFCURVE",
"193 187 OFFCURVE",
"193 353 CURVE SMOOTH",
"193 519 OFFCURVE",
"226 587 OFFCURVE",
"300 587 CURVE SMOOTH",
"374 587 OFFCURVE",
"407 519 OFFCURVE",
"407 353 CURVE SMOOTH",
"407 187 OFFCURVE",
"374 118 OFFCURVE",
"300 118 CURVE SMOOTH"
);
}
);
width = 600;
}
);
unicode = 0030;
},
{
color = 3;
glyphname = one;
lastChange = "2016-08-19 07:19:28 +0000";
layers = (
{
background = {
paths = (
{
closed = 1;
nodes = (
"925 0 OFFCURVE",
"939 9 OFFCURVE",
"939 28 CURVE SMOOTH",
"940 664 LINE SMOOTH",
"940 685 OFFCURVE",
"926 693 OFFCURVE",
"911 693 CURVE SMOOTH",
"905 693 OFFCURVE",
"898 692 OFFCURVE",
"892 688 CURVE",
"735 584 LINE",
"728 579 OFFCURVE",
"724 574 OFFCURVE",
"724 567 CURVE SMOOTH",
"724 553 OFFCURVE",
"736 542 OFFCURVE",
"750 542 CURVE SMOOTH",
"755 542 OFFCURVE",
"759 544 OFFCURVE",
"764 546 CURVE",
"879 622 LINE",
"878 28 LINE SMOOTH",
"878 9 OFFCURVE",
"893 0 OFFCURVE",
"908 0 CURVE SMOOTH"
);
},
{
closed = 1;
nodes = (
"325 -5 OFFCURVE",
"335 7 OFFCURVE",
"335 24 CURVE SMOOTH",
"335 681 LINE SMOOTH",
"335 698 OFFCURVE",
"325 710 OFFCURVE",
"308 710 CURVE SMOOTH",
"291 710 OFFCURVE",
"281 698 OFFCURVE",
"281 681 CURVE SMOOTH",
"281 24 LINE SMOOTH",
"281 7 OFFCURVE",
"291 -5 OFFCURVE",
"308 -5 CURVE SMOOTH"
);
}
);
};
layerId = "9E718F8A-2CEA-4931-B05D-987794BD97DA";
paths = (
{
closed = 1;
nodes = (
"335 24 LINE",
"335 681 LINE SMOOTH",
"335 710 OFFCURVE",
"308 717 OFFCURVE",
"288 703 CURVE SMOOTH",
"138 603 LINE SMOOTH",
"110 584 OFFCURVE",
"139 538 OFFCURVE",
"164 555 CURVE SMOOTH",
"314 655 LINE",
"281 686 LINE",
"281 24 LINE"
);
},
{
closed = 1;
nodes = (
"145 50 LINE SMOOTH",
"130 50 OFFCURVE",
"120 40 OFFCURVE",
"120 25 CURVE SMOOTH",
"120 10 OFFCURVE",
"130 0 OFFCURVE",
"145 0 CURVE SMOOTH",
"471 0 LINE SMOOTH",
"486 0 OFFCURVE",
"496 10 OFFCURVE",
"496 25 CURVE SMOOTH",
"496 40 OFFCURVE",
"486 50 OFFCURVE",
"471 50 CURVE SMOOTH"
);
}
);
width = 570;
},
{
background = {
paths = (
{
closed = 1;
nodes = (
"380 -6 OFFCURVE",
"416 20 OFFCURVE",
"416 74 CURVE SMOOTH",
"416 631 LINE SMOOTH",
"416 684 OFFCURVE",
"380 710 OFFCURVE",
"335 710 CURVE SMOOTH",
"291 710 OFFCURVE",
"255 684 OFFCURVE",
"255 631 CURVE SMOOTH",
"255 74 LINE SMOOTH",
"255 20 OFFCURVE",
"291 -6 OFFCURVE",
"335 -6 CURVE SMOOTH"
);
}
);
};
layerId = "E1B555A7-F4E1-459C-9C1A-AE952106EEF9";
paths = (
{
closed = 1;
nodes = (
"416 74 LINE",
"416 631 LINE SMOOTH",
"416 703 OFFCURVE",
"345 734 OFFCURVE",
"266 687 CURVE SMOOTH",
"108 593 LINE SMOOTH",
"38 551 OFFCURVE",
"97 435 OFFCURVE",
"168 477 CURVE SMOOTH",
"326 571 LINE",
"255 577 LINE",
"255 74 LINE"
);
},
{
closed = 1;
nodes = (
"164 129 LINE SMOOTH",
"111 129 OFFCURVE",
"88 106 OFFCURVE",
"88 65 CURVE SMOOTH",
"88 23 OFFCURVE",
"111 0 OFFCURVE",
"164 0 CURVE SMOOTH",
"507 0 LINE SMOOTH",
"560 0 OFFCURVE",
"583 23 OFFCURVE",
"583 65 CURVE SMOOTH",
"583 106 OFFCURVE",
"560 129 OFFCURVE",
"507 129 CURVE SMOOTH"
);
}
);
width = 600;
}
);
unicode = 0031;
userData = {
com.typemytype.robofont.layerData = {
b = {
anchors = (
);
components = (
);
contours = (
);
lib = {
};
name = one;
unicodes = (
);
width = 1160;
};
};
};
},
{
color = 3;
glyphname = two;
lastChange = "2016-08-19 07:19:32 +0000";
layers = (
{
background = {
paths = (
{
closed = 1;
nodes = (
"429 -6 OFFCURVE",
"542 91 OFFCURVE",
"542 332 CURVE SMOOTH",
"542 606 OFFCURVE",
"429 711 OFFCURVE",
"285 711 CURVE SMOOTH",
"203 711 OFFCURVE",
"116 678 OFFCURVE",
"69 625 CURVE SMOOTH",
"61 616 OFFCURVE",
"57 607 OFFCURVE",
"57 598 CURVE SMOOTH",
"57 585 OFFCURVE",
"65 574 OFFCURVE",
"75 574 CURVE SMOOTH",
"82 574 OFFCURVE",
"88 577 OFFCURVE",
"96 583 CURVE SMOOTH",
"175 642 OFFCURVE",
"221 662 OFFCURVE",
"287 662 CURVE SMOOTH",
"398 662 OFFCURVE",
"486 573 OFFCURVE",
"486 332 CURVE SMOOTH",
"486 228 LINE",
"497 265 LINE",
"483 362 OFFCURVE",
"398 437 OFFCURVE",
"282 437 CURVE SMOOTH",
"150 437 OFFCURVE",
"60 348 OFFCURVE",
"60 216 CURVE SMOOTH",
"60 83 OFFCURVE",
"156 -6 OFFCURVE",
"285 -6 CURVE SMOOTH"
);
},
{
closed = 1;
nodes = (
"183 43 OFFCURVE",
"116 112 OFFCURVE",
"116 216 CURVE SMOOTH",
"116 319 OFFCURVE",
"184 388 OFFCURVE",
"286 388 CURVE SMOOTH",
"388 388 OFFCURVE",
"460 319 OFFCURVE",
"460 216 CURVE SMOOTH",
"460 112 OFFCURVE",
"387 43 OFFCURVE",
"285 43 CURVE SMOOTH"
);
}
);
};
guideLines = (
{
angle = 227.4896;
position = "{270, 189}";
},
{
angle = 90;
position = "{71, 415}";
},
{
angle = 90;
position = "{487, 415}";
}
);
layerId = "9E718F8A-2CEA-4931-B05D-987794BD97DA";
paths = (
{
closed = 1;
nodes = (
"499 0 LINE SMOOTH",
"514 0 OFFCURVE",
"524 10 OFFCURVE",
"524 25 CURVE SMOOTH",
"524 40 OFFCURVE",
"514 50 OFFCURVE",
"499 50 CURVE SMOOTH",
"115 50 LINE",
"115 9 LINE",
"366 285 LINE SMOOTH",
"448 375 OFFCURVE",
"487 447 OFFCURVE",
"487 532 CURVE SMOOTH",
"487 634 OFFCURVE",
"420 711 OFFCURVE",
"289 711 CURVE SMOOTH",
"202 711 OFFCURVE",
"118 675 OFFCURVE",
"69 625 CURVE SMOOTH",
"61 616 OFFCURVE",
"57 607 OFFCURVE",
"57 598 CURVE SMOOTH",
"57 585 OFFCURVE",
"65 574 OFFCURVE",
"75 574 CURVE SMOOTH",
"82 574 OFFCURVE",
"88 577 OFFCURVE",
"96 583 CURVE SMOOTH",
"164 638 OFFCURVE",
"221 662 OFFCURVE",
"289 662 CURVE SMOOTH",
"375 662 OFFCURVE",
"431 619 OFFCURVE",
"431 530 CURVE SMOOTH",
"431 461 OFFCURVE",
"398 400 OFFCURVE",
"329 323 CURVE SMOOTH",
"80 45 LINE SMOOTH",
"63 26 OFFCURVE",
"73 0 OFFCURVE",
"99 0 CURVE SMOOTH"
);
}
);
width = 570;
},
{
background = {
paths = (
{
closed = 1;
nodes = (
"1291 0 LINE SMOOTH",
"1344 0 OFFCURVE",
"1367 23 OFFCURVE",
"1367 65 CURVE SMOOTH",
"1367 106 OFFCURVE",
"1344 129 OFFCURVE",
"1291 129 CURVE SMOOTH",
"999 129 LINE",
"1020 83 LINE",
"1219 290 LINE SMOOTH",
"1302 377 OFFCURVE",
"1329 440 OFFCURVE",
"1329 517 CURVE SMOOTH",
"1329 632 OFFCURVE",
"1239 712 OFFCURVE",
"1090 712 CURVE SMOOTH",
"998 712 OFFCURVE",
"927 685 OFFCURVE",
"870 641 CURVE SMOOTH",
"848 624 OFFCURVE",
"842 608 OFFCURVE",
"842 585 CURVE SMOOTH",
"842 556 OFFCURVE",
"860 520 OFFCURVE",
"894 520 CURVE SMOOTH",
"913 520 OFFCURVE",
"925 527 OFFCURVE",
"943 537 CURVE SMOOTH",
"982 559 OFFCURVE",
"1025 586 OFFCURVE",
"1082 586 CURVE SMOOTH",
"1140 586 OFFCURVE",
"1171 558 OFFCURVE",
"1171 508 CURVE SMOOTH",
"1171 462 OFFCURVE",
"1147 417 OFFCURVE",
"1099 366 CURVE SMOOTH",
"880 135 LINE SMOOTH",
"825 77 OFFCURVE",
"851 0 OFFCURVE",
"920 0 CURVE SMOOTH"
);
},
{
closed = 1;
nodes = (
"505 -7 OFFCURVE",
"641 132 OFFCURVE",
"641 353 CURVE SMOOTH",
"641 573 OFFCURVE",
"505 712 OFFCURVE",
"295 712 CURVE SMOOTH",
"200 712 OFFCURVE",
"127 685 OFFCURVE",
"70 641 CURVE SMOOTH",
"48 624 OFFCURVE",
"42 608 OFFCURVE",
"42 585 CURVE SMOOTH",
"42 556 OFFCURVE",
"60 520 OFFCURVE",
"94 520 CURVE SMOOTH",
"113 520 OFFCURVE",
"125 527 OFFCURVE",
"143 537 CURVE SMOOTH",
"182 559 OFFCURVE",
"223 584 OFFCURVE",
"287 584 CURVE SMOOTH",
"411 584 OFFCURVE",
"477 508 OFFCURVE",
"477 353 CURVE SMOOTH",
"477 197 OFFCURVE",
"411 121 OFFCURVE",
"287 121 CURVE SMOOTH",
"223 121 OFFCURVE",
"181 144 OFFCURVE",
"143 168 CURVE SMOOTH",
"126 179 OFFCURVE",
"113 185 OFFCURVE",
"94 185 CURVE SMOOTH",
"60 185 OFFCURVE",
"42 149 OFFCURVE",
"42 120 CURVE SMOOTH",
"42 97 OFFCURVE",
"48 80 OFFCURVE",
"70 64 CURVE SMOOTH",
"128 22 OFFCURVE",
"200 -7 OFFCURVE",
"295 -7 CURVE SMOOTH"
);
}
);
};
guideLines = (
{
angle = 225.9674;
position = "{375, 271}";
},
{
angle = 90;
position = "{530, 415}";
}
);
layerId = "E1B555A7-F4E1-459C-9C1A-AE952106EEF9";
paths = (
{
closed = 1;
nodes = (
"491 0 LINE SMOOTH",
"544 0 OFFCURVE",
"567 23 OFFCURVE",
"567 65 CURVE SMOOTH",
"567 106 OFFCURVE",
"544 129 OFFCURVE",
"491 129 CURVE SMOOTH",
"199 129 LINE",
"220 83 LINE",
"419 290 LINE SMOOTH",
"502 377 OFFCURVE",
"529 440 OFFCURVE",
"529 517 CURVE SMOOTH",
"529 632 OFFCURVE",
"439 712 OFFCURVE",
"291 712 CURVE SMOOTH",
"212 712 OFFCURVE",
"129 685 OFFCURVE",
"70 641 CURVE SMOOTH",
"48 624 OFFCURVE",
"42 608 OFFCURVE",
"42 585 CURVE SMOOTH",
"42 556 OFFCURVE",
"60 520 OFFCURVE",
"94 520 CURVE SMOOTH",
"113 520 OFFCURVE",
"125 527 OFFCURVE",
"143 537 CURVE SMOOTH",
"182 559 OFFCURVE",
"228 586 OFFCURVE",
"283 586 CURVE SMOOTH",
"340 586 OFFCURVE",
"371 558 OFFCURVE",
"371 508 CURVE SMOOTH",
"371 462 OFFCURVE",
"347 417 OFFCURVE",
"299 366 CURVE SMOOTH",
"80 135 LINE SMOOTH",
"25 77 OFFCURVE",
"51 0 OFFCURVE",
"120 0 CURVE SMOOTH"
);
}
);
width = 601;
}
);
unicode = 0032;
userData = {
com.typemytype.robofont.layerData = {
b = {
anchors = (
);
components = (
);
contours = (
);
lib = {
};
name = two;
unicodes = (
);
width = 1160;
};
};
};
},
{
color = 3;
glyphname = three;
lastChange = "2016-08-19 07:19:37 +0000";
layers = (
{
background = {
paths = (
{
closed = 1;
nodes = (
"180 711 OFFCURVE",
"94 677 OFFCURVE",
"47 625 CURVE SMOOTH",
"39 616 OFFCURVE",
"35 607 OFFCURVE",
"35 598 CURVE SMOOTH",
"35 585 OFFCURVE",
"43 574 OFFCURVE",
"53 574 CURVE SMOOTH",
"60 574 OFFCURVE",
"65 577 OFFCURVE",
"74 583 CURVE SMOOTH",
"147 631 OFFCURVE",
"199 662 OFFCURVE",
"271 662 CURVE SMOOTH",
"365 662 OFFCURVE",
"435 620 OFFCURVE",
"435 516 CURVE SMOOTH",
"435 413 OFFCURVE",
"365 373 OFFCURVE",
"258 373 CURVE SMOOTH",
"207 373 LINE SMOOTH",
"171 373 OFFCURVE",
"171 323 OFFCURVE",
"207 323 CURVE SMOOTH",
"243 323 LINE SMOOTH",
"349 323 OFFCURVE",
"419 273 OFFCURVE",
"419 172 CURVE SMOOTH",
"419 87 OFFCURVE",
"364 44 OFFCURVE",
"278 44 CURVE SMOOTH",
"204 44 OFFCURVE",
"150 66 OFFCURVE",
"85 123 CURVE SMOOTH",
"77 130 OFFCURVE",
"71 132 OFFCURVE",
"64 132 CURVE SMOOTH",
"54 132 OFFCURVE",
"46 121 OFFCURVE",
"46 108 CURVE SMOOTH",
"46 99 OFFCURVE",
"49 90 OFFCURVE",
"58 81 CURVE SMOOTH",
"110 29 OFFCURVE",
"188 -5 OFFCURVE",
"278 -5 CURVE SMOOTH",
"409 -5 OFFCURVE",
"476 72 OFFCURVE",
"475 172 CURVE SMOOTH",
"474 271 OFFCURVE",
"414 330 OFFCURVE",
"347 349 CURVE",
"342 339 LINE",
"434 357 OFFCURVE",
"491 415 OFFCURVE",
"491 515 CURVE SMOOTH",
"491 645 OFFCURVE",
"396 711 OFFCURVE",
"271 711 CURVE SMOOTH"
);
}
);
};
layerId = "9E718F8A-2CEA-4931-B05D-987794BD97DA";
paths = (
{
closed = 1;
nodes = (
"407 -5 OFFCURVE",
"502 61 OFFCURVE",
"502 191 CURVE SMOOTH",
"502 291 OFFCURVE",
"445 349 OFFCURVE",
"353 367 CURVE",
"358 357 LINE",
"425 376 OFFCURVE",
"485 435 OFFCURVE",
"486 534 CURVE SMOOTH",
"487 634 OFFCURVE",
"420 711 OFFCURVE",
"289 711 CURVE SMOOTH",
"199 711 OFFCURVE",
"121 677 OFFCURVE",
"69 625 CURVE SMOOTH",
"60 616 OFFCURVE",
"57 607 OFFCURVE",
"57 598 CURVE SMOOTH",
"57 585 OFFCURVE",
"65 574 OFFCURVE",
"75 574 CURVE SMOOTH",
"82 574 OFFCURVE",
"88 576 OFFCURVE",
"96 583 CURVE SMOOTH",
"162 639 OFFCURVE",
"215 662 OFFCURVE",
"289 662 CURVE SMOOTH",
"375 662 OFFCURVE",
"430 619 OFFCURVE",
"430 534 CURVE SMOOTH",
"430 433 OFFCURVE",
"360 383 OFFCURVE",
"254 383 CURVE SMOOTH",
"218 383 LINE SMOOTH",
"182 383 OFFCURVE",
"182 333 OFFCURVE",
"218 333 CURVE SMOOTH",
"269 333 LINE SMOOTH",
"376 333 OFFCURVE",
"446 293 OFFCURVE",
"446 190 CURVE SMOOTH",
"446 86 OFFCURVE",
"376 44 OFFCURVE",
"282 44 CURVE SMOOTH",
"204 44 OFFCURVE",
"150 66 OFFCURVE",
"85 123 CURVE SMOOTH",
"77 130 OFFCURVE",
"71 132 OFFCURVE",
"64 132 CURVE SMOOTH",
"54 132 OFFCURVE",
"46 121 OFFCURVE",
"46 108 CURVE SMOOTH",
"46 99 OFFCURVE",
"49 90 OFFCURVE",
"58 81 CURVE SMOOTH",
"110 29 OFFCURVE",
"188 -5 OFFCURVE",
"282 -5 CURVE SMOOTH"
);
}
);
width = 570;
},
{
background = {
paths = (
{
closed = 1;
nodes = (
"491 0 LINE SMOOTH",
"544 0 OFFCURVE",
"567 23 OFFCURVE",
"567 65 CURVE SMOOTH",
"567 106 OFFCURVE",
"544 129 OFFCURVE",
"491 129 CURVE SMOOTH",
"199 129 LINE",
"220 83 LINE",
"419 290 LINE SMOOTH",
"502 377 OFFCURVE",
"529 440 OFFCURVE",
"529 517 CURVE SMOOTH",
"529 632 OFFCURVE",
"439 712 OFFCURVE",
"291 712 CURVE SMOOTH",
"212 712 OFFCURVE",
"128 686 OFFCURVE",
"70 641 CURVE SMOOTH",
"48 624 OFFCURVE",
"42 608 OFFCURVE",
"42 585 CURVE SMOOTH",
"42 556 OFFCURVE",
"60 520 OFFCURVE",
"94 520 CURVE SMOOTH",
"113 520 OFFCURVE",
"125 527 OFFCURVE",
"143 537 CURVE SMOOTH",
"182 559 OFFCURVE",
"228 586 OFFCURVE",
"283 586 CURVE SMOOTH",
"340 586 OFFCURVE",
"371 558 OFFCURVE",
"371 508 CURVE SMOOTH",
"371 462 OFFCURVE",
"347 417 OFFCURVE",
"299 366 CURVE SMOOTH",
"80 135 LINE SMOOTH",
"25 77 OFFCURVE",
"51 0 OFFCURVE",
"120 0 CURVE SMOOTH"
);
}
);
};
layerId = "E1B555A7-F4E1-459C-9C1A-AE952106EEF9";
paths = (
{
closed = 1;
nodes = (
"454 -6 OFFCURVE",
"547 77 OFFCURVE",
"547 193 CURVE SMOOTH",
"547 286 OFFCURVE",
"492 347 OFFCURVE",
"405 366 CURVE",
"405 358 LINE",
"479 380 OFFCURVE",
"529 438 OFFCURVE",
"529 522 CURVE SMOOTH",
"529 627 OFFCURVE",
"447 712 OFFCURVE",
"290 712 CURVE SMOOTH",
"212 712 OFFCURVE",
"128 686 OFFCURVE",
"70 641 CURVE SMOOTH",
"48 624 OFFCURVE",
"42 608 OFFCURVE",
"42 585 CURVE SMOOTH",
"42 556 OFFCURVE",
"60 520 OFFCURVE",
"94 520 CURVE SMOOTH",
"113 520 OFFCURVE",
"125 527 OFFCURVE",
"143 537 CURVE SMOOTH",
"182 559 OFFCURVE",
"228 586 OFFCURVE",
"283 586 CURVE SMOOTH",
"339 586 OFFCURVE",
"376 556 OFFCURVE",
"376 500 CURVE SMOOTH",
"376 445 OFFCURVE",
"339 419 OFFCURVE",
"258 419 CURVE SMOOTH",
"216 419 LINE SMOOTH",
"139 419 OFFCURVE",
"139 294 OFFCURVE",
"216 294 CURVE SMOOTH",
"276 294 LINE SMOOTH",
"358 294 OFFCURVE",
"395 269 OFFCURVE",
"395 209 CURVE SMOOTH",
"395 149 OFFCURVE",
"362 120 OFFCURVE",
"280 120 CURVE SMOOTH",
"217 120 OFFCURVE",
"173 146 OFFCURVE",
"132 169 CURVE SMOOTH",
"114 179 OFFCURVE",
"102 186 OFFCURVE",
"83 186 CURVE SMOOTH",
"49 186 OFFCURVE",
"31 150 OFFCURVE",
"31 121 CURVE SMOOTH",
"31 98 OFFCURVE",
"37 82 OFFCURVE",
"59 65 CURVE SMOOTH",
"117 20 OFFCURVE",
"201 -6 OFFCURVE",
"287 -6 CURVE SMOOTH"
);
}
);
width = 600;
}
);
unicode = 0033;
userData = {
com.typemytype.robofont.layerData = {
b = {
anchors = (
);
components = (
);
contours = (
);
lib = {
};
name = three;
unicodes = (
);
width = 1160;
};
};
};
},
{
color = 3;
glyphname = four;
lastChange = "2016-08-19 07:19:44 +0000";
layers = (
{
background = {
paths = (
{
closed = 1;
nodes = (
"1179 161 LINE",
"1179 30 LINE SMOOTH",
"1179 11 OFFCURVE",
"1195 1 OFFCURVE",
"1210 1 CURVE SMOOTH",
"1226 1 OFFCURVE",
"1240 11 OFFCURVE",
"1240 30 CURVE SMOOTH",
"1240 161 LINE",
"1326 161 LINE SMOOTH",
"1342 161 OFFCURVE",
"1351 173 OFFCURVE",
"1351 186 CURVE SMOOTH",
"1351 198 OFFCURVE",
"1342 210 OFFCURVE",
"1326 210 CURVE SMOOTH",
"1241 210 LINE",
"1241 649 LINE SMOOTH",
"1241 679 OFFCURVE",
"1220 693 OFFCURVE",
"1197 693 CURVE SMOOTH",
"1180 693 OFFCURVE",
"1161 684 OFFCURVE",
"1150 668 CURVE SMOOTH",
"860 229 LINE SMOOTH",
"852 217 OFFCURVE",
"849 206 OFFCURVE",
"849 196 CURVE SMOOTH",
"849 175 OFFCURVE",
"866 161 OFFCURVE",
"890 161 CURVE SMOOTH"
);
},
{
closed = 1;
nodes = (
"1179 210 LINE",
"908 210 LINE",
"1179 628 LINE"
);
},
{
closed = 1;
nodes = (
"523 162 LINE SMOOTH",
"538 162 OFFCURVE",
"548 172 OFFCURVE",
"548 187 CURVE SMOOTH",
"548 202 OFFCURVE",
"538 212 OFFCURVE",
"523 212 CURVE SMOOTH",
"79 212 LINE",
"79 169 LINE",
"531 823 LINE SMOOTH",
"546 844 OFFCURVE",
"537 867 OFFCURVE",
"511 867 CURVE SMOOTH",
"61 867 LINE SMOOTH",
"47 867 OFFCURVE",
"37 857 OFFCURVE",
"37 842 CURVE SMOOTH",
"37 827 OFFCURVE",
"47 817 OFFCURVE",
"61 817 CURVE SMOOTH",
"495 817 LINE",
"495 860 LINE",
"44 207 LINE SMOOTH",
"29 185 OFFCURVE",
"37 162 OFFCURVE",
"63 162 CURVE SMOOTH"
);
},
{
closed = 1;
nodes = (
"423 -5 OFFCURVE",
"433 7 OFFCURVE",
"433 24 CURVE SMOOTH",
"433 681 LINE SMOOTH",
"433 698 OFFCURVE",
"423 710 OFFCURVE",
"406 710 CURVE SMOOTH",
"389 710 OFFCURVE",
"379 698 OFFCURVE",
"379 681 CURVE SMOOTH",
"379 24 LINE SMOOTH",
"379 7 OFFCURVE",
"389 -5 OFFCURVE",
"406 -5 CURVE SMOOTH"
);
}
);
};
layerId = "9E718F8A-2CEA-4931-B05D-987794BD97DA";
paths = (
{
closed = 1;
nodes = (
"78 212 LINE",
"77 169 LINE",
"401 638 LINE",
"379 638 LINE",
"379 24 LINE SMOOTH",
"379 7 OFFCURVE",
"389 -5 OFFCURVE",
"406 -5 CURVE SMOOTH",
"423 -5 OFFCURVE",
"433 7 OFFCURVE",
"433 24 CURVE SMOOTH",
"433 681 LINE SMOOTH",
"433 714 OFFCURVE",
"397 718 OFFCURVE",
"383 698 CURVE SMOOTH",
"44 207 LINE SMOOTH",
"29 185 OFFCURVE",
"37 162 OFFCURVE",
"63 162 CURVE SMOOTH",
"523 162 LINE SMOOTH",
"538 162 OFFCURVE",
"548 172 OFFCURVE",
"548 187 CURVE SMOOTH",
"548 202 OFFCURVE",
"538 212 OFFCURVE",
"523 212 CURVE SMOOTH"
);
}
);
width = 570;
},
{
background = {
paths = (
{
closed = 1;
nodes = (
"150 250 LINE",
"150 210 LINE",
"365 507 LINE",
"328 507 LINE",
"328 74 LINE SMOOTH",
"328 20 OFFCURVE",
"362 -6 OFFCURVE",
"406 -6 CURVE SMOOTH",
"451 -6 OFFCURVE",
"485 20 OFFCURVE",
"485 74 CURVE SMOOTH",
"485 631 LINE SMOOTH",
"485 718 OFFCURVE",
"378 735 OFFCURVE",
"335 675 CURVE SMOOTH",
"29 252 LINE SMOOTH",
"-11 197 OFFCURVE",
"12 127 OFFCURVE",
"79 127 CURVE SMOOTH",
"514 127 LINE SMOOTH",
"567 127 OFFCURVE",
"590 149 OFFCURVE",
"590 189 CURVE SMOOTH",
"590 228 OFFCURVE",
"567 250 OFFCURVE",
"514 250 CURVE SMOOTH"
);
},
{
closed = 1;
nodes = (
"79 212 LINE",
"78 169 LINE",
"402 638 LINE",
"379 638 LINE",
"379 24 LINE SMOOTH",
"379 7 OFFCURVE",
"389 -5 OFFCURVE",
"406 -5 CURVE SMOOTH",
"423 -5 OFFCURVE",
"433 7 OFFCURVE",
"433 24 CURVE SMOOTH",
"433 681 LINE SMOOTH",
"433 714 OFFCURVE",
"397 718 OFFCURVE",
"383 698 CURVE SMOOTH",
"44 207 LINE SMOOTH",
"29 185 OFFCURVE",
"37 162 OFFCURVE",
"63 162 CURVE SMOOTH",
"523 162 LINE SMOOTH",
"538 162 OFFCURVE",
"548 172 OFFCURVE",
"548 187 CURVE SMOOTH",
"548 202 OFFCURVE",
"538 212 OFFCURVE",
"523 212 CURVE SMOOTH"
);
}
);
};
layerId = "E1B555A7-F4E1-459C-9C1A-AE952106EEF9";
paths = (
{
closed = 1;
nodes = (
"153 250 LINE",
"153 210 LINE",
"359 507 LINE",
"328 507 LINE",
"328 74 LINE SMOOTH",
"328 20 OFFCURVE",
"362 -6 OFFCURVE",
"406 -6 CURVE SMOOTH",
"451 -6 OFFCURVE",
"485 20 OFFCURVE",
"485 74 CURVE SMOOTH",
"485 631 LINE SMOOTH",
"485 718 OFFCURVE",
"377 735 OFFCURVE",
"335 675 CURVE SMOOTH",
"39 252 LINE SMOOTH",
"0 196 OFFCURVE",
"22 127 OFFCURVE",
"89 127 CURVE SMOOTH",
"519 127 LINE SMOOTH",
"572 127 OFFCURVE",
"595 149 OFFCURVE",
"595 189 CURVE SMOOTH",
"595 228 OFFCURVE",
"572 250 OFFCURVE",
"519 250 CURVE SMOOTH"
);
}
);
width = 600;
}
);
unicode = 0034;
userData = {
com.typemytype.robofont.layerData = {
b = {
anchors = (
);
components = (
);
contours = (
);
lib = {
};
name = four;
unicodes = (
);
width = 1160;
};
};
};
},
{
color = 3;
glyphname = five;
lastChange = "2016-08-19 07:19:54 +0000";
layers = (
{
background = {
paths = (
{
closed = 1;
nodes = (
"426 -5 OFFCURVE",
"524 83 OFFCURVE",
"524 216 CURVE SMOOTH",
"524 348 OFFCURVE",
"434 437 OFFCURVE",
"304 437 CURVE SMOOTH",
"225 437 OFFCURVE",
"164 402 OFFCURVE",
"129 349 CURVE",
"146 340 LINE",
"146 655 LINE",
"481 655 LINE SMOOTH",
"495 655 OFFCURVE",
"506 665 OFFCURVE",
"506 680 CURVE SMOOTH",
"506 695 OFFCURVE",
"495 705 OFFCURVE",
"481 705 CURVE SMOOTH",
"119 705 LINE SMOOTH",
"101 705 OFFCURVE",
"92 692 OFFCURVE",
"92 679 CURVE SMOOTH",
"92 314 LINE SMOOTH",
"92 284 OFFCURVE",
"129 279 OFFCURVE",
"146 305 CURVE SMOOTH",
"182 359 OFFCURVE",
"235 388 OFFCURVE",
"303 388 CURVE SMOOTH",
"400 388 OFFCURVE",
"468 319 OFFCURVE",
"468 216 CURVE SMOOTH",
"468 112 OFFCURVE",
"401 44 OFFCURVE",
"300 44 CURVE SMOOTH",
"228 44 OFFCURVE",
"174 66 OFFCURVE",
"109 123 CURVE SMOOTH",
"101 130 OFFCURVE",
"95 132 OFFCURVE",
"88 132 CURVE SMOOTH",
"78 132 OFFCURVE",
"70 121 OFFCURVE",
"70 108 CURVE SMOOTH",
"70 99 OFFCURVE",
"73 90 OFFCURVE",
"82 81 CURVE SMOOTH",
"134 29 OFFCURVE",
"212 -5 OFFCURVE",
"300 -5 CURVE SMOOTH"
);
}
);
};
layerId = "9E718F8A-2CEA-4931-B05D-987794BD97DA";
paths = (
{
closed = 1;
nodes = (
"430 -5 OFFCURVE",
"529 83 OFFCURVE",
"529 216 CURVE SMOOTH",
"529 348 OFFCURVE",
"438 437 OFFCURVE",
"306 437 CURVE SMOOTH",
"225 437 OFFCURVE",
"164 402 OFFCURVE",
"129 349 CURVE",
"146 340 LINE",
"146 655 LINE",
"483 655 LINE SMOOTH",
"497 655 OFFCURVE",
"508 665 OFFCURVE",
"508 680 CURVE SMOOTH",
"508 695 OFFCURVE",
"497 705 OFFCURVE",
"483 705 CURVE SMOOTH",
"119 705 LINE SMOOTH",
"101 705 OFFCURVE",
"92 692 OFFCURVE",
"92 679 CURVE SMOOTH",
"92 314 LINE SMOOTH",
"92 284 OFFCURVE",
"129 279 OFFCURVE",
"146 305 CURVE SMOOTH",
"182 359 OFFCURVE",
"235 388 OFFCURVE",
"305 388 CURVE SMOOTH",
"404 388 OFFCURVE",
"473 319 OFFCURVE",
"473 216 CURVE SMOOTH",
"473 112 OFFCURVE",
"405 44 OFFCURVE",
"302 44 CURVE SMOOTH",
"228 44 OFFCURVE",
"174 66 OFFCURVE",
"109 123 CURVE SMOOTH",
"101 130 OFFCURVE",
"95 132 OFFCURVE",
"88 132 CURVE SMOOTH",
"78 132 OFFCURVE",
"70 121 OFFCURVE",
"70 108 CURVE SMOOTH",
"70 99 OFFCURVE",
"73 90 OFFCURVE",
"82 81 CURVE SMOOTH",
"134 29 OFFCURVE",
"212 -5 OFFCURVE",
"302 -5 CURVE SMOOTH"
);
}
);
width = 570;
},
{
background = {
paths = (
{
closed = 1;
nodes = (
"837 589 LINE",
"1063 589 LINE SMOOTH",
"1108 589 OFFCURVE",
"1133 606 OFFCURVE",
"1133 650 CURVE SMOOTH",
"1133 695 OFFCURVE",
"1105 711 OFFCURVE",
"1071 711 CURVE SMOOTH",
"799 711 LINE SMOOTH",
"725 711 OFFCURVE",
"692 699 OFFCURVE",
"692 626 CURVE SMOOTH",
"692 372 LINE SMOOTH",
"692 314 OFFCURVE",
"724 288 OFFCURVE",
"756 288 CURVE SMOOTH",
"770 288 OFFCURVE",
"782 292 OFFCURVE",
"793 302 CURVE",
"823 324 OFFCURVE",
"859 332 OFFCURVE",
"891 332 CURVE SMOOTH",
"950 332 OFFCURVE",
"1005 293 OFFCURVE",
"1005 214 CURVE SMOOTH",
"1005 138 OFFCURVE",
"962 109 OFFCURVE",
"897 109 CURVE SMOOTH",
"843 109 OFFCURVE",
"799 133 OFFCURVE",
"764 162 CURVE SMOOTH",
"753 171 OFFCURVE",
"742 175 OFFCURVE",
"731 175 CURVE SMOOTH",
"700 175 OFFCURVE",
"673 145 OFFCURVE",
"673 111 CURVE SMOOTH",
"673 96 OFFCURVE",
"678 80 OFFCURVE",
"693 65 CURVE",
"733 32 OFFCURVE",
"801 -13 OFFCURVE",
"899 -13 CURVE SMOOTH",
"1055 -13 OFFCURVE",
"1173 74 OFFCURVE",
"1173 224 CURVE SMOOTH",
"1173 374 OFFCURVE",
"1082 448 OFFCURVE",
"958 448 CURVE SMOOTH",
"887 448 OFFCURVE",
"832 418 OFFCURVE",
"832 418 CURVE"
);
},
{
closed = 1;
nodes = (
"472 0 LINE SMOOTH",
"525 0 OFFCURVE",
"548 23 OFFCURVE",
"548 61 CURVE SMOOTH",
"548 100 OFFCURVE",
"525 123 OFFCURVE",
"472 123 CURVE SMOOTH",
"201 123 LINE",
"201 295 LINE",
"452 295 LINE SMOOTH",
"505 295 OFFCURVE",
"528 318 OFFCURVE",
"528 356 CURVE SMOOTH",
"528 395 OFFCURVE",
"505 418 OFFCURVE",
"452 418 CURVE SMOOTH",
"201 418 LINE",
"201 582 LINE",
"472 582 LINE SMOOTH",
"525 582 OFFCURVE",
"548 605 OFFCURVE",
"548 644 CURVE SMOOTH",
"548 682 OFFCURVE",
"525 705 OFFCURVE",
"472 705 CURVE SMOOTH",
"119 705 LINE SMOOTH",
"71 705 OFFCURVE",
"44 678 OFFCURVE",
"44 630 CURVE SMOOTH",
"44 75 LINE SMOOTH",
"44 27 OFFCURVE",
"71 0 OFFCURVE",
"119 0 CURVE SMOOTH"
);
}
);
};
layerId = "E1B555A7-F4E1-459C-9C1A-AE952106EEF9";
paths = (
{
closed = 1;
nodes = (
"454 -6 OFFCURVE",
"567 84 OFFCURVE",
"567 232 CURVE SMOOTH",
"567 372 OFFCURVE",
"470 457 OFFCURVE",
"344 457 CURVE SMOOTH",
"278 457 OFFCURVE",
"226 437 OFFCURVE",
"186 395 CURVE",
"234 387 LINE",
"234 582 LINE",
"472 582 LINE SMOOTH",
"525 582 OFFCURVE",
"548 605 OFFCURVE",
"548 644 CURVE SMOOTH",
"548 682 OFFCURVE",
"525 705 OFFCURVE",
"472 705 CURVE SMOOTH",
"152 705 LINE SMOOTH",
"104 705 OFFCURVE",
"77 678 OFFCURVE",
"77 630 CURVE SMOOTH",
"77 342 LINE SMOOTH",
"77 293 OFFCURVE",
"133 274 OFFCURVE",
"178 300 CURVE SMOOTH",
"220 324 OFFCURVE",
"252 334 OFFCURVE",
"299 334 CURVE SMOOTH",
"372 334 OFFCURVE",
"416 292 OFFCURVE",
"416 226 CURVE SMOOTH",
"416 150 OFFCURVE",
"368 120 OFFCURVE",
"295 120 CURVE SMOOTH",
"237 120 OFFCURVE",
"191 147 OFFCURVE",
"152 169 CURVE SMOOTH",
"134 179 OFFCURVE",
"122 186 OFFCURVE",
"103 186 CURVE SMOOTH",
"69 186 OFFCURVE",
"51 150 OFFCURVE",
"51 121 CURVE SMOOTH",
"51 98 OFFCURVE",
"57 82 OFFCURVE",
"79 65 CURVE SMOOTH",
"137 20 OFFCURVE",
"221 -6 OFFCURVE",
"302 -6 CURVE SMOOTH"
);
}
);
width = 600;
}
);
unicode = 0035;
userData = {
com.typemytype.robofont.layerData = {
b = {
anchors = (
);
components = (
);
contours = (
);
lib = {
};
name = five;
unicodes = (
);
width = 1160;
};
};
};
},
{
color = 3;
glyphname = six;
lastChange = "2016-08-19 07:48:27 +0000";
layers = (
{
background = {
guideLines = (
{
angle = 90;
position = "{539, 396}";
}
);
paths = (
{
closed = 1;
nodes = (
"444 -6 OFFCURVE",
"542 83 OFFCURVE",
"542 216 CURVE SMOOTH",
"542 348 OFFCURVE",
"452 437 OFFCURVE",
"320 437 CURVE SMOOTH",
"204 437 OFFCURVE",
"119 362 OFFCURVE",
"105 265 CURVE",
"116 228 LINE",
"116 332 LINE SMOOTH",
"116 573 OFFCURVE",
"214 662 OFFCURVE",
"324 662 CURVE SMOOTH",
"387 662 OFFCURVE",
"441 640 OFFCURVE",
"506 583 CURVE SMOOTH",
"514 576 OFFCURVE",
"520 574 OFFCURVE",
"527 574 CURVE SMOOTH",
"537 574 OFFCURVE",
"545 585 OFFCURVE",
"545 598 CURVE SMOOTH",
"545 607 OFFCURVE",
"542 616 OFFCURVE",
"533 625 CURVE SMOOTH",
"481 677 OFFCURVE",
"403 711 OFFCURVE",
"324 711 CURVE SMOOTH",
"183 711 OFFCURVE",
"60 606 OFFCURVE",
"60 332 CURVE SMOOTH",
"60 91 OFFCURVE",
"173 -6 OFFCURVE",
"320 -6 CURVE SMOOTH"
);
},
{
closed = 1;
nodes = (
"217 43 OFFCURVE",
"142 112 OFFCURVE",
"142 216 CURVE SMOOTH",
"142 319 OFFCURVE",
"216 388 OFFCURVE",
"317 388 CURVE SMOOTH",
"418 388 OFFCURVE",
"486 319 OFFCURVE",
"486 216 CURVE SMOOTH",
"486 112 OFFCURVE",
"419 43 OFFCURVE",
"318 43 CURVE SMOOTH"
);
}
);
};
guideLines = (
{
angle = 90;
position = "{546, 396}";
}
);
layerId = "9E718F8A-2CEA-4931-B05D-987794BD97DA";
paths = (
{
closed = 1;
nodes = (
"430 -6 OFFCURVE",
"528 83 OFFCURVE",
"528 216 CURVE SMOOTH",
"528 348 OFFCURVE",
"438 437 OFFCURVE",
"306 437 CURVE SMOOTH",
"190 437 OFFCURVE",
"105 362 OFFCURVE",
"91 265 CURVE",
"102 228 LINE",
"102 332 LINE SMOOTH",
"102 573 OFFCURVE",
"200 662 OFFCURVE",
"310 662 CURVE SMOOTH",
"373 662 OFFCURVE",
"427 640 OFFCURVE",
"492 583 CURVE SMOOTH",
"500 576 OFFCURVE",
"506 574 OFFCURVE",
"513 574 CURVE SMOOTH",
"523 574 OFFCURVE",
"531 585 OFFCURVE",
"531 598 CURVE SMOOTH",
"531 607 OFFCURVE",
"528 616 OFFCURVE",
"519 625 CURVE SMOOTH",
"467 677 OFFCURVE",
"389 711 OFFCURVE",
"310 711 CURVE SMOOTH",
"169 711 OFFCURVE",
"47 606 OFFCURVE",
"47 332 CURVE SMOOTH",
"47 91 OFFCURVE",
"159 -6 OFFCURVE",
"306 -6 CURVE SMOOTH"
);
},
{
closed = 1;
nodes = (
"200 43 OFFCURVE",
"127 112 OFFCURVE",
"127 216 CURVE SMOOTH",
"127 319 OFFCURVE",
"202 388 OFFCURVE",
"303 388 CURVE SMOOTH",
"404 388 OFFCURVE",
"472 319 OFFCURVE",
"472 216 CURVE SMOOTH",
"472 112 OFFCURVE",
"405 43 OFFCURVE",
"304 43 CURVE SMOOTH"
);
}
);
width = 570;
},
{
background = {
paths = (
{
closed = 1;
nodes = (
"466 -7 OFFCURVE",
"576 84 OFFCURVE",
"576 232 CURVE SMOOTH",
"576 372 OFFCURVE",
"480 459 OFFCURVE",
"360 459 CURVE SMOOTH",
"285 459 OFFCURVE",
"205 422 OFFCURVE",
"183 339 CURVE",
"199 315 LINE",
"199 347 LINE SMOOTH",
"199 509 OFFCURVE",
"257 586 OFFCURVE",
"339 586 CURVE SMOOTH",
"391 586 OFFCURVE",
"437 559 OFFCURVE",
"476 537 CURVE SMOOTH",
"494 527 OFFCURVE",
"506 520 OFFCURVE",
"525 520 CURVE SMOOTH",
"559 520 OFFCURVE",
"577 556 OFFCURVE",
"577 585 CURVE SMOOTH",
"577 608 OFFCURVE",
"571 624 OFFCURVE",
"549 641 CURVE SMOOTH",
"491 686 OFFCURVE",
"407 712 OFFCURVE",
"332 712 CURVE SMOOTH",
"171 712 OFFCURVE",
"38 593 OFFCURVE",
"38 343 CURVE SMOOTH",
"38 122 OFFCURVE",
"141 -7 OFFCURVE",
"331 -7 CURVE SMOOTH"
);
},
{
closed = 1;
nodes = (
"260 118 OFFCURVE",
"217 160 OFFCURVE",
"217 226 CURVE SMOOTH",
"217 292 OFFCURVE",
"260 334 OFFCURVE",
"322 334 CURVE SMOOTH",
"385 334 OFFCURVE",
"425 292 OFFCURVE",
"425 226 CURVE SMOOTH",
"425 160 OFFCURVE",
"385 118 OFFCURVE",
"322 118 CURVE SMOOTH"
);
}
);
};
guideLines = (
{
angle = 90;
position = "{575, 396}";
}
);
layerId = "E1B555A7-F4E1-459C-9C1A-AE952106EEF9";
paths = (
{
closed = 1;
nodes = (
"456 -7 OFFCURVE",
"566 84 OFFCURVE",
"566 232 CURVE SMOOTH",
"566 372 OFFCURVE",
"470 459 OFFCURVE",
"353 459 CURVE SMOOTH",
"281 459 OFFCURVE",
"201 422 OFFCURVE",
"179 339 CURVE",
"195 315 LINE",
"195 347 LINE SMOOTH",
"195 509 OFFCURVE",
"253 586 OFFCURVE",
"332 586 CURVE SMOOTH",
"381 586 OFFCURVE",
"427 559 OFFCURVE",
"466 537 CURVE SMOOTH",
"484 527 OFFCURVE",
"496 520 OFFCURVE",
"515 520 CURVE SMOOTH",
"549 520 OFFCURVE",
"567 556 OFFCURVE",
"567 585 CURVE SMOOTH",
"567 608 OFFCURVE",
"561 624 OFFCURVE",
"539 641 CURVE SMOOTH",
"481 686 OFFCURVE",
"397 712 OFFCURVE",
"325 712 CURVE SMOOTH",
"167 712 OFFCURVE",
"36 593 OFFCURVE",
"36 343 CURVE SMOOTH",
"36 122 OFFCURVE",
"137 -7 OFFCURVE",
"324 -7 CURVE SMOOTH"
);
},
{
closed = 1;
nodes = (
"256 118 OFFCURVE",
"213 160 OFFCURVE",
"213 226 CURVE SMOOTH",
"213 292 OFFCURVE",
"256 334 OFFCURVE",
"315 334 CURVE SMOOTH",
"375 334 OFFCURVE",
"415 292 OFFCURVE",
"415 226 CURVE SMOOTH",
"415 160 OFFCURVE",
"375 118 OFFCURVE",
"315 118 CURVE SMOOTH"
);
}
);
width = 600;
}
);
unicode = 0036;
userData = {
com.typemytype.robofont.layerData = {
b = {
anchors = (
);
components = (
);
contours = (
);
lib = {
};
name = nine;
unicodes = (
);
width = 1160;
};
};
};
},
{
color = 3;
glyphname = seven;
lastChange = "2016-08-18 22:12:35 +0000";
layers = (
{
background = {
paths = (
{
closed = 1;
nodes = (
"215 0 OFFCURVE",
"224 4 OFFCURVE",
"229 17 CURVE SMOOTH",
"491 629 LINE",
"494 635 OFFCURVE",
"494 645 OFFCURVE",
"494 653 CURVE SMOOTH",
"494 672 OFFCURVE",
"479 685 OFFCURVE",
"457 685 CURVE SMOOTH",
"85 685 LINE SMOOTH",
"66 685 OFFCURVE",
"56 673 OFFCURVE",
"56 660 CURVE SMOOTH",
"56 646 OFFCURVE",
"66 636 OFFCURVE",
"85 636 CURVE SMOOTH",
"432 636 LINE",
"175 41 LINE",
"173 37 OFFCURVE",
"173 33 OFFCURVE",
"173 30 CURVE",
"173 12 OFFCURVE",
"186 0 OFFCURVE",
"203 0 CURVE SMOOTH"
);
},
{
closed = 1;
nodes = (
"46 2 OFFCURVE",
"52 5 OFFCURVE",
"57 7 CURVE SMOOTH",
"509 661 LINE SMOOTH",
"524 682 OFFCURVE",
"515 705 OFFCURVE",
"489 705 CURVE SMOOTH",
"79 705 LINE SMOOTH",
"65 705 OFFCURVE",
"55 695 OFFCURVE",
"55 680 CURVE SMOOTH",
"55 665 OFFCURVE",
"65 655 OFFCURVE",
"79 655 CURVE SMOOTH",
"473 655 LINE",
"473 698 LINE",
"22 45 LINE SMOOTH",
"7 23 OFFCURVE",
"15 0 OFFCURVE",
"41 0 CURVE"
);
}
);
};
layerId = "9E718F8A-2CEA-4931-B05D-987794BD97DA";
paths = (
{
closed = 1;
nodes = (
"509 661 LINE SMOOTH",
"521 684 OFFCURVE",
"515 705 OFFCURVE",
"489 705 CURVE SMOOTH",
"79 705 LINE SMOOTH",
"65 705 OFFCURVE",
"55 695 OFFCURVE",
"55 680 CURVE SMOOTH",
"55 665 OFFCURVE",
"65 655 OFFCURVE",
"79 655 CURVE SMOOTH",
"473 655 LINE",
"470 698 LINE",
"122 34 LINE SMOOTH",
"104 0 OFFCURVE",
"151 -23 OFFCURVE",
"168 9 CURVE SMOOTH"
);
}
);
width = 570;
},
{
background = {
paths = (
{
closed = 1;
nodes = (
"981 0 OFFCURVE",
"1009 17 OFFCURVE",
"1026 53 CURVE SMOOTH",
"1233 502 LINE",
"1252 551 OFFCURVE",
"1270 602 OFFCURVE",
"1270 640 CURVE SMOOTH",
"1270 702 OFFCURVE",
"1226 711 OFFCURVE",
"1159 711 CURVE SMOOTH",
"824 711 LINE SMOOTH",
"767 711 OFFCURVE",
"743 686 OFFCURVE",
"743 640 CURVE SMOOTH",
"743 590 OFFCURVE",
"773 572 OFFCURVE",
"824 572 CURVE SMOOTH",
"1083 572 LINE",
"891 170 LINE",
"878 139 OFFCURVE",
"865 107 OFFCURVE",
"866 80 CURVE SMOOTH",
"868 33 OFFCURVE",
"906 0 OFFCURVE",
"950 0 CURVE SMOOTH"
);
},
{
closed = 1;
nodes = (
"841 0 OFFCURVE",
"868 49 OFFCURVE",
"893 83 CURVE SMOOTH",
"1252 580 LINE SMOOTH",
"1293 637 OFFCURVE",
"1269 705 OFFCURVE",
"1202 705 CURVE SMOOTH",
"806 705 LINE SMOOTH",
"753 705 OFFCURVE",
"730 682 OFFCURVE",
"730 640 CURVE SMOOTH",
"730 599 OFFCURVE",
"753 576 OFFCURVE",
"806 576 CURVE SMOOTH",
"1108 576 LINE",
"1108 622 LINE",
"749 125 LINE SMOOTH",
"708 69 OFFCURVE",
"731 0 OFFCURVE",
"799 0 CURVE SMOOTH"
);
},
{
closed = 1;
nodes = (
"515 661 LINE SMOOTH",
"527 684 OFFCURVE",
"521 705 OFFCURVE",
"495 705 CURVE SMOOTH",
"85 705 LINE SMOOTH",
"71 705 OFFCURVE",
"61 695 OFFCURVE",
"61 680 CURVE SMOOTH",
"61 665 OFFCURVE",
"71 655 OFFCURVE",
"85 655 CURVE SMOOTH",
"479 655 LINE",
"476 698 LINE",
"128 34 LINE SMOOTH",
"110 0 OFFCURVE",
"157 -23 OFFCURVE",
"174 9 CURVE SMOOTH"
);
}
);
};
layerId = "E1B555A7-F4E1-459C-9C1A-AE952106EEF9";
paths = (
{
closed = 1;
nodes = (
"552 580 LINE SMOOTH",
"586 639 OFFCURVE",
"569 705 OFFCURVE",
"502 705 CURVE SMOOTH",
"107 705 LINE SMOOTH",
"54 705 OFFCURVE",
"31 682 OFFCURVE",
"31 640 CURVE SMOOTH",
"31 599 OFFCURVE",
"54 576 OFFCURVE",
"107 576 CURVE SMOOTH",
"408 576 LINE",
"405 622 LINE",
"109 105 LINE SMOOTH",
"56 13 OFFCURVE",
"191 -57 OFFCURVE",
"242 33 CURVE SMOOTH"
);
}
);
width = 600;
}
);
unicode = 0037;
userData = {
com.typemytype.robofont.layerData = {
b = {
anchors = (
);
components = (
);
contours = (
);
lib = {
};
name = seven;
unicodes = (
);
width = 1160;
};
};
};
},
{
color = 3;
glyphname = eight;
lastChange = "2016-08-19 07:45:47 +0000";
layers = (
{
background = {
paths = (
{
closed = 1;
nodes = (
"440 -5 OFFCURVE",
"524 68 OFFCURVE",
"524 186 CURVE SMOOTH",
"524 282 OFFCURVE",
"463 352 OFFCURVE",
"366 368 CURVE",
"373 354 LINE",
"453 374 OFFCURVE",
"508 440 OFFCURVE",
"508 526 CURVE SMOOTH",
"508 638 OFFCURVE",
"428 711 OFFCURVE",
"285 711 CURVE SMOOTH",
"142 711 OFFCURVE",
"62 638 OFFCURVE",
"62 526 CURVE SMOOTH",
"62 440 OFFCURVE",
"117 374 OFFCURVE",
"197 354 CURVE",
"204 368 LINE",
"107 352 OFFCURVE",
"46 282 OFFCURVE",
"46 186 CURVE SMOOTH",
"46 68 OFFCURVE",
"130 -5 OFFCURVE",
"285 -5 CURVE SMOOTH"
);
},
{
closed = 1;
nodes = (
"160 44 OFFCURVE",
"102 94 OFFCURVE",
"102 188 CURVE SMOOTH",
"102 282 OFFCURVE",
"160 333 OFFCURVE",
"285 333 CURVE SMOOTH",
"410 333 OFFCURVE",
"468 282 OFFCURVE",
"468 188 CURVE SMOOTH",
"468 94 OFFCURVE",
"410 44 OFFCURVE",
"285 44 CURVE SMOOTH"
);
},
{
closed = 1;
nodes = (
"175 383 OFFCURVE",
"118 436 OFFCURVE",
"118 524 CURVE SMOOTH",
"118 609 OFFCURVE",
"175 662 OFFCURVE",
"285 662 CURVE SMOOTH",
"395 662 OFFCURVE",
"452 609 OFFCURVE",
"452 524 CURVE SMOOTH",
"452 436 OFFCURVE",
"395 383 OFFCURVE",
"285 383 CURVE SMOOTH"
);
}
);
};
layerId = "9E718F8A-2CEA-4931-B05D-987794BD97DA";
paths = (
{
closed = 1;
nodes = (
"445 -5 OFFCURVE",
"531 68 OFFCURVE",
"531 186 CURVE SMOOTH",
"531 282 OFFCURVE",
"468 352 OFFCURVE",
"371 368 CURVE",
"378 354 LINE",
"458 374 OFFCURVE",
"515 440 OFFCURVE",
"515 526 CURVE SMOOTH",
"515 638 OFFCURVE",
"433 711 OFFCURVE",
"285 711 CURVE SMOOTH",
"137 711 OFFCURVE",
"55 638 OFFCURVE",
"55 526 CURVE SMOOTH",
"55 440 OFFCURVE",
"112 374 OFFCURVE",
"192 354 CURVE",
"199 368 LINE",
"102 352 OFFCURVE",
"39 282 OFFCURVE",
"39 186 CURVE SMOOTH",
"39 68 OFFCURVE",
"125 -5 OFFCURVE",
"285 -5 CURVE SMOOTH"
);
},
{
closed = 1;
nodes = (
"155 44 OFFCURVE",
"95 94 OFFCURVE",
"95 188 CURVE SMOOTH",
"95 282 OFFCURVE",
"155 333 OFFCURVE",
"285 333 CURVE SMOOTH",
"415 333 OFFCURVE",
"475 282 OFFCURVE",
"475 188 CURVE SMOOTH",
"475 94 OFFCURVE",
"415 44 OFFCURVE",
"285 44 CURVE SMOOTH"
);
},
{
closed = 1;
nodes = (
"170 383 OFFCURVE",
"111 436 OFFCURVE",
"111 524 CURVE SMOOTH",
"111 609 OFFCURVE",
"170 662 OFFCURVE",
"285 662 CURVE SMOOTH",
"400 662 OFFCURVE",
"459 609 OFFCURVE",
"459 524 CURVE SMOOTH",
"459 436 OFFCURVE",
"400 383 OFFCURVE",
"285 383 CURVE SMOOTH"
);
}
);
width = 570;
},
{
background = {
paths = (
{
closed = 1;
nodes = (
"506 387 OFFCURVE",
"550 443 OFFCURVE",
"550 522 CURVE SMOOTH",
"550 627 OFFCURVE",
"463 712 OFFCURVE",
"300 712 CURVE SMOOTH",
"137 712 OFFCURVE",
"50 627 OFFCURVE",
"50 522 CURVE SMOOTH",
"50 444 OFFCURVE",
"94 389 OFFCURVE",
"161 363 CURVE",
"81 341 OFFCURVE",
"32 281 OFFCURVE",
"32 193 CURVE SMOOTH",
"32 77 OFFCURVE",
"130 -6 OFFCURVE",
"300 -6 CURVE SMOOTH",
"470 -6 OFFCURVE",
"568 77 OFFCURVE",
"568 193 CURVE SMOOTH",
"568 281 OFFCURVE",
"519 340 OFFCURVE",
"440 363 CURVE"
);
},
{
closed = 1;
nodes = (
"362 586 OFFCURVE",
"397 557 OFFCURVE",
"397 503 CURVE SMOOTH",
"397 449 OFFCURVE",
"362 419 OFFCURVE",
"300 419 CURVE SMOOTH",
"238 419 OFFCURVE",
"203 449 OFFCURVE",
"203 503 CURVE SMOOTH",
"203 557 OFFCURVE",
"238 586 OFFCURVE",
"300 586 CURVE SMOOTH"
);
},
{
closed = 1;
nodes = (
"227 120 OFFCURVE",
"184 149 OFFCURVE",
"184 207 CURVE SMOOTH",
"184 265 OFFCURVE",
"227 294 OFFCURVE",
"300 294 CURVE SMOOTH",
"373 294 OFFCURVE",
"416 265 OFFCURVE",
"416 207 CURVE SMOOTH",
"416 149 OFFCURVE",
"373 120 OFFCURVE",
"300 120 CURVE SMOOTH"
);
}
);
};
layerId = "E1B555A7-F4E1-459C-9C1A-AE952106EEF9";
paths = (
{
closed = 1;
nodes = (
"473 -6 OFFCURVE",
"575 72 OFFCURVE",
"575 193 CURVE SMOOTH",
"575 289 OFFCURVE",
"514 354 OFFCURVE",
"413 370 CURVE",
"415 355 LINE",
"501 370 OFFCURVE",
"557 436 OFFCURVE",
"557 522 CURVE SMOOTH",
"557 636 OFFCURVE",
"461 712 OFFCURVE",
"300 712 CURVE SMOOTH",
"140 712 OFFCURVE",
"43 636 OFFCURVE",
"43 522 CURVE SMOOTH",
"43 438 OFFCURVE",
"98 373 OFFCURVE",
"187 354 CURVE",
"189 370 LINE",
"87 356 OFFCURVE",
"25 290 OFFCURVE",
"25 193 CURVE SMOOTH",
"25 72 OFFCURVE",
"127 -6 OFFCURVE",
"300 -6 CURVE SMOOTH"
);
},
{
closed = 1;
nodes = (
"217 120 OFFCURVE",
"177 151 OFFCURVE",
"177 207 CURVE SMOOTH",
"177 263 OFFCURVE",
"217 294 OFFCURVE",
"300 294 CURVE SMOOTH",
"383 294 OFFCURVE",
"423 263 OFFCURVE",
"423 207 CURVE SMOOTH",
"423 151 OFFCURVE",
"383 120 OFFCURVE",
"300 120 CURVE SMOOTH"
);
},
{
closed = 1;
nodes = (
"230 419 OFFCURVE",
"196 449 OFFCURVE",
"196 503 CURVE SMOOTH",
"196 557 OFFCURVE",
"229 586 OFFCURVE",
"300 586 CURVE SMOOTH",
"371 586 OFFCURVE",
"404 557 OFFCURVE",
"404 503 CURVE SMOOTH",
"404 449 OFFCURVE",
"370 419 OFFCURVE",
"300 419 CURVE SMOOTH"
);
}
);
width = 600;
}
);
unicode = 0038;
userData = {
com.typemytype.robofont.layerData = {
b = {
anchors = (
);
components = (
);
contours = (
);
lib = {
};
name = eight;
unicodes = (
);
width = 1160;
};
};
};
},
{
color = 3;
glyphname = nine;
lastChange = "2016-08-19 07:48:28 +0000";
layers = (
{
background = {
paths = (
{
closed = 1;
nodes = (
"514 -11 OFFCURVE",
"524 250 OFFCURVE",
"524 380 CURVE SMOOTH",
"524 531 OFFCURVE",
"481 689 OFFCURVE",
"289 689 CURVE SMOOTH",
"154 689 OFFCURVE",
"73 587 OFFCURVE",
"73 461 CURVE SMOOTH",
"73 333 OFFCURVE",
"145 240 OFFCURVE",
"283 240 CURVE SMOOTH",
"390 240 OFFCURVE",
"454 321 OFFCURVE",
"463 378 CURVE",
"463 183 OFFCURVE",
"435 38 OFFCURVE",
"262 38 CURVE SMOOTH",
"227 38 OFFCURVE",
"184 46 OFFCURVE",
"140 69 CURVE",
"135 72 OFFCURVE",
"130 73 OFFCURVE",
"126 73 CURVE SMOOTH",
"112 73 OFFCURVE",
"103 61 OFFCURVE",
"103 48 CURVE SMOOTH",
"103 40 OFFCURVE",
"106 32 OFFCURVE",
"115 27 CURVE SMOOTH",
"156 5 OFFCURVE",
"206 -11 OFFCURVE",
"261 -11 CURVE SMOOTH"
);
},
{
closed = 1;
nodes = (
"179 284 OFFCURVE",
"133 370 OFFCURVE",
"133 460 CURVE SMOOTH",
"133 556 OFFCURVE",
"185 642 OFFCURVE",
"294 642 CURVE SMOOTH",
"410 642 OFFCURVE",
"455 544 OFFCURVE",
"455 459 CURVE SMOOTH",
"455 360 OFFCURVE",
"395 284 OFFCURVE",
"283 284 CURVE SMOOTH"
);
}
);
};
layerId = "9E718F8A-2CEA-4931-B05D-987794BD97DA";
paths = (
{
closed = 1;
nodes = (
"140 711 OFFCURVE",
"42 622 OFFCURVE",
"42 489 CURVE SMOOTH",
"42 357 OFFCURVE",
"132 268 OFFCURVE",
"264 268 CURVE SMOOTH",
"380 268 OFFCURVE",
"465 343 OFFCURVE",
"479 440 CURVE",
"468 477 LINE",
"468 373 LINE SMOOTH",
"468 132 OFFCURVE",
"370 43 OFFCURVE",
"260 43 CURVE SMOOTH",
"197 43 OFFCURVE",
"143 65 OFFCURVE",
"78 122 CURVE SMOOTH",
"70 129 OFFCURVE",
"64 131 OFFCURVE",
"57 131 CURVE SMOOTH",
"47 131 OFFCURVE",
"39 120 OFFCURVE",
"39 107 CURVE SMOOTH",
"39 98 OFFCURVE",
"42 89 OFFCURVE",
"51 80 CURVE SMOOTH",
"103 28 OFFCURVE",
"181 -6 OFFCURVE",
"260 -6 CURVE SMOOTH",
"401 -6 OFFCURVE",
"523 99 OFFCURVE",
"523 373 CURVE SMOOTH",
"523 614 OFFCURVE",
"411 711 OFFCURVE",
"264 711 CURVE SMOOTH"
);
},
{
closed = 1;
nodes = (
"370 662 OFFCURVE",
"443 593 OFFCURVE",
"443 489 CURVE SMOOTH",
"443 386 OFFCURVE",
"368 317 OFFCURVE",
"267 317 CURVE SMOOTH",
"166 317 OFFCURVE",
"98 386 OFFCURVE",
"98 489 CURVE SMOOTH",
"98 593 OFFCURVE",
"165 662 OFFCURVE",
"266 662 CURVE SMOOTH"
);
}
);
width = 570;
},
{
background = {
paths = (
{
closed = 1;
nodes = (
"138 712 OFFCURVE",
"28 621 OFFCURVE",
"28 473 CURVE SMOOTH",
"28 333 OFFCURVE",
"124 246 OFFCURVE",
"244 246 CURVE SMOOTH",
"319 246 OFFCURVE",
"399 283 OFFCURVE",
"421 366 CURVE",
"405 390 LINE",
"405 358 LINE SMOOTH",
"405 196 OFFCURVE",
"347 119 OFFCURVE",
"265 119 CURVE SMOOTH",
"213 119 OFFCURVE",
"167 146 OFFCURVE",
"128 168 CURVE SMOOTH",
"110 178 OFFCURVE",
"98 185 OFFCURVE",
"79 185 CURVE SMOOTH",
"45 185 OFFCURVE",
"27 149 OFFCURVE",
"27 120 CURVE SMOOTH",
"27 97 OFFCURVE",
"33 81 OFFCURVE",
"55 64 CURVE SMOOTH",
"113 19 OFFCURVE",
"197 -7 OFFCURVE",
"272 -7 CURVE SMOOTH",
"433 -7 OFFCURVE",
"566 112 OFFCURVE",
"566 362 CURVE SMOOTH",
"566 583 OFFCURVE",
"463 712 OFFCURVE",
"273 712 CURVE SMOOTH"
);
},
{
closed = 1;
nodes = (
"344 587 OFFCURVE",
"387 545 OFFCURVE",
"387 479 CURVE SMOOTH",
"387 413 OFFCURVE",
"344 371 OFFCURVE",
"282 371 CURVE SMOOTH",
"219 371 OFFCURVE",
"179 413 OFFCURVE",
"179 479 CURVE SMOOTH",
"179 545 OFFCURVE",
"219 587 OFFCURVE",
"282 587 CURVE SMOOTH"
);
}
);
};
layerId = "E1B555A7-F4E1-459C-9C1A-AE952106EEF9";
paths = (
{
closed = 1;
nodes = (
"144 712 OFFCURVE",
"34 621 OFFCURVE",
"34 473 CURVE SMOOTH",
"34 333 OFFCURVE",
"130 246 OFFCURVE",
"247 246 CURVE SMOOTH",
"319 246 OFFCURVE",
"399 283 OFFCURVE",
"421 366 CURVE",
"405 390 LINE",
"405 358 LINE SMOOTH",
"405 196 OFFCURVE",
"347 119 OFFCURVE",
"268 119 CURVE SMOOTH",
"219 119 OFFCURVE",
"173 146 OFFCURVE",
"134 168 CURVE SMOOTH",
"116 178 OFFCURVE",
"104 185 OFFCURVE",
"85 185 CURVE SMOOTH",
"51 185 OFFCURVE",
"33 149 OFFCURVE",
"33 120 CURVE SMOOTH",
"33 97 OFFCURVE",
"39 81 OFFCURVE",
"61 64 CURVE SMOOTH",
"119 19 OFFCURVE",
"203 -7 OFFCURVE",
"275 -7 CURVE SMOOTH",
"433 -7 OFFCURVE",
"564 112 OFFCURVE",
"564 362 CURVE SMOOTH",
"564 583 OFFCURVE",
"463 712 OFFCURVE",
"276 712 CURVE SMOOTH"
);
},
{
closed = 1;
nodes = (
"344 587 OFFCURVE",
"387 545 OFFCURVE",
"387 479 CURVE SMOOTH",
"387 413 OFFCURVE",
"344 371 OFFCURVE",
"285 371 CURVE SMOOTH",
"225 371 OFFCURVE",
"185 413 OFFCURVE",
"185 479 CURVE SMOOTH",
"185 545 OFFCURVE",
"225 587 OFFCURVE",
"285 587 CURVE SMOOTH"
);
}
);
width = 600;
}
);
unicode = 0039;
userData = {
com.typemytype.robofont.layerData = {
b = {
anchors = (
);
components = (
);
contours = (
);
lib = {
};
name = nine;
unicodes = (
);
width = 1160;
};
};
};
},
{
color = 3;
glyphname = one.ss01;
lastChange = "2016-08-19 07:20:28 +0000";
layers = (
{
background = {
paths = (
{
closed = 1;
nodes = (
"930 0 OFFCURVE",
"944 9 OFFCURVE",
"944 28 CURVE SMOOTH",
"945 664 LINE SMOOTH",
"945 685 OFFCURVE",
"931 693 OFFCURVE",
"916 693 CURVE SMOOTH",
"910 693 OFFCURVE",
"903 692 OFFCURVE",
"897 688 CURVE",
"740 584 LINE",
"733 579 OFFCURVE",
"729 574 OFFCURVE",
"729 567 CURVE SMOOTH",
"729 553 OFFCURVE",
"741 542 OFFCURVE",
"755 542 CURVE SMOOTH",
"760 542 OFFCURVE",
"764 544 OFFCURVE",
"769 546 CURVE",
"884 622 LINE",
"883 28 LINE SMOOTH",
"883 9 OFFCURVE",
"898 0 OFFCURVE",
"913 0 CURVE SMOOTH"
);
},
{
closed = 1;
nodes = (
"330 -5 OFFCURVE",
"340 7 OFFCURVE",
"340 24 CURVE SMOOTH",
"340 681 LINE SMOOTH",
"340 698 OFFCURVE",
"330 710 OFFCURVE",
"313 710 CURVE SMOOTH",
"296 710 OFFCURVE",
"286 698 OFFCURVE",
"286 681 CURVE SMOOTH",
"286 24 LINE SMOOTH",
"286 7 OFFCURVE",
"296 -5 OFFCURVE",
"313 -5 CURVE SMOOTH"
);
}
);
};
layerId = "9E718F8A-2CEA-4931-B05D-987794BD97DA";
paths = (
{
closed = 1;
nodes = (
"330 -5 OFFCURVE",
"340 7 OFFCURVE",
"340 24 CURVE SMOOTH",
"340 681 LINE SMOOTH",
"340 710 OFFCURVE",
"313 717 OFFCURVE",
"293 703 CURVE SMOOTH",
"143 603 LINE SMOOTH",
"115 584 OFFCURVE",
"144 538 OFFCURVE",
"169 555 CURVE SMOOTH",
"319 655 LINE",
"286 686 LINE",
"286 24 LINE SMOOTH",
"286 7 OFFCURVE",
"296 -5 OFFCURVE",
"313 -5 CURVE SMOOTH"
);
}
);
width = 570;
},
{
background = {
paths = (
{
closed = 1;
nodes = (
"379 -6 OFFCURVE",
"415 20 OFFCURVE",
"415 74 CURVE SMOOTH",
"415 631 LINE SMOOTH",
"415 684 OFFCURVE",
"379 710 OFFCURVE",
"334 710 CURVE SMOOTH",
"290 710 OFFCURVE",
"254 684 OFFCURVE",
"254 631 CURVE SMOOTH",
"254 74 LINE SMOOTH",
"254 20 OFFCURVE",
"290 -6 OFFCURVE",
"334 -6 CURVE SMOOTH"
);
}
);
};
layerId = "E1B555A7-F4E1-459C-9C1A-AE952106EEF9";
paths = (
{
closed = 1;
nodes = (
"379 -6 OFFCURVE",
"415 20 OFFCURVE",
"415 74 CURVE SMOOTH",
"415 631 LINE SMOOTH",
"415 703 OFFCURVE",
"344 734 OFFCURVE",
"265 687 CURVE SMOOTH",
"107 593 LINE SMOOTH",
"37 551 OFFCURVE",
"96 435 OFFCURVE",
"167 477 CURVE SMOOTH",
"325 571 LINE",
"254 577 LINE",
"254 74 LINE SMOOTH",
"254 20 OFFCURVE",
"290 -6 OFFCURVE",
"334 -6 CURVE SMOOTH"
);
}
);
width = 600;
}
);
userData = {
com.typemytype.robofont.layerData = {
b = {
anchors = (
);
components = (
);
contours = (
);
lib = {
};
name = one;
unicodes = (
);
width = 1160;
};
};
};
},
{
color = 9;
glyphname = zero.ss02;
lastChange = "2016-08-19 11:25:10 +0000";
layers = (
{
background = {
paths = (
{
closed = 1;
nodes = (
"1148 -11 OFFCURVE",
"1189 154 OFFCURVE",
"1189 335 CURVE SMOOTH",
"1189 534 OFFCURVE",
"1144 689 OFFCURVE",
"961 689 CURVE SMOOTH",
"780 689 OFFCURVE",
"733 536 OFFCURVE",
"733 335 CURVE SMOOTH",
"733 151 OFFCURVE",
"775 -11 OFFCURVE",
"961 -11 CURVE SMOOTH"
);
},
{
closed = 1;
nodes = (
"815 38 OFFCURVE",
"800 220 OFFCURVE",
"800 335 CURVE SMOOTH",
"800 467 OFFCURVE",
"817 641 OFFCURVE",
"961 641 CURVE SMOOTH",
"1106 641 OFFCURVE",
"1124 464 OFFCURVE",
"1124 335 CURVE SMOOTH",
"1124 222 OFFCURVE",
"1109 38 OFFCURVE",
"961 38 CURVE SMOOTH"
);
},
{
closed = 1;
nodes = (
"429 -6 OFFCURVE",
"526 126 OFFCURVE",
"526 353 CURVE SMOOTH",
"526 581 OFFCURVE",
"429 711 OFFCURVE",
"285 711 CURVE SMOOTH",
"141 711 OFFCURVE",
"44 581 OFFCURVE",
"44 352 CURVE SMOOTH",
"44 126 OFFCURVE",
"141 -6 OFFCURVE",
"285 -6 CURVE SMOOTH"
);
},
{
closed = 1;
nodes = (
"167 44 OFFCURVE",
"100 161 OFFCURVE",
"100 353 CURVE SMOOTH",
"100 545 OFFCURVE",
"166 661 OFFCURVE",
"285 661 CURVE SMOOTH",
"405 661 OFFCURVE",
"470 545 OFFCURVE",
"470 353 CURVE SMOOTH",
"470 161 OFFCURVE",
"404 44 OFFCURVE",
"285 44 CURVE SMOOTH"
);
}
);
};
layerId = "9E718F8A-2CEA-4931-B05D-987794BD97DA";
paths = (
{
closed = 1;
nodes = (
"260 -4 OFFCURVE",
"316 64 OFFCURVE",
"316 212 CURVE SMOOTH",
"316 361 OFFCURVE",
"260 427 OFFCURVE",
"171 427 CURVE SMOOTH",
"82 427 OFFCURVE",
"26 361 OFFCURVE",
"26 211 CURVE SMOOTH",
"26 64 OFFCURVE",
"82 -4 OFFCURVE",
"171 -4 CURVE SMOOTH"
);
},
{
closed = 1;
nodes = (
"97 26 OFFCURVE",
"61 85 OFFCURVE",
"61 212 CURVE SMOOTH",
"61 339 OFFCURVE",
"97 397 OFFCURVE",
"171 397 CURVE SMOOTH",
"246 397 OFFCURVE",
"281 339 OFFCURVE",
"281 212 CURVE SMOOTH",
"281 85 OFFCURVE",
"245 26 OFFCURVE",
"171 26 CURVE SMOOTH"
);
}
);
width = 342;
},
{
background = {
paths = (
{
closed = 1;
nodes = (
"470 -7 OFFCURVE",
"575 112 OFFCURVE",
"575 353 CURVE SMOOTH",
"575 593 OFFCURVE",
"470 712 OFFCURVE",
"300 712 CURVE SMOOTH",
"130 712 OFFCURVE",
"25 593 OFFCURVE",
"25 353 CURVE SMOOTH",
"25 112 OFFCURVE",
"130 -7 OFFCURVE",
"300 -7 CURVE SMOOTH"
);
},
{
closed = 1;
nodes = (
"217 118 OFFCURVE",
"186 187 OFFCURVE",
"186 353 CURVE SMOOTH",
"186 519 OFFCURVE",
"217 587 OFFCURVE",
"300 587 CURVE SMOOTH",
"383 587 OFFCURVE",
"414 519 OFFCURVE",
"414 353 CURVE SMOOTH",
"414 187 OFFCURVE",
"383 118 OFFCURVE",
"300 118 CURVE SMOOTH"
);
}
);
};
layerId = "E1B555A7-F4E1-459C-9C1A-AE952106EEF9";
paths = (
{
closed = 1;
nodes = (
"279 -4 OFFCURVE",
"341 67 OFFCURVE",
"341 212 CURVE SMOOTH",
"341 356 OFFCURVE",
"279 427 OFFCURVE",
"180 427 CURVE SMOOTH",
"81 427 OFFCURVE",
"19 356 OFFCURVE",
"19 212 CURVE SMOOTH",
"19 67 OFFCURVE",
"81 -4 OFFCURVE",
"180 -4 CURVE SMOOTH"
);
},
{
closed = 1;
nodes = (
"136 71 OFFCURVE",
"116 112 OFFCURVE",
"116 212 CURVE SMOOTH",
"116 311 OFFCURVE",
"136 352 OFFCURVE",
"180 352 CURVE SMOOTH",
"224 352 OFFCURVE",
"244 311 OFFCURVE",
"244 212 CURVE SMOOTH",
"244 112 OFFCURVE",
"224 71 OFFCURVE",
"180 71 CURVE SMOOTH"
);
}
);
width = 360;
}
);
},
{
color = 9;
glyphname = one.ss02;
lastChange = "2016-08-19 11:25:10 +0000";
layers = (
{
background = {
paths = (
{
closed = 1;
nodes = (
"925 0 OFFCURVE",
"939 9 OFFCURVE",
"939 28 CURVE SMOOTH",
"940 664 LINE SMOOTH",
"940 685 OFFCURVE",
"926 693 OFFCURVE",
"911 693 CURVE SMOOTH",
"905 693 OFFCURVE",
"898 692 OFFCURVE",
"892 688 CURVE",
"735 584 LINE",
"728 579 OFFCURVE",
"724 574 OFFCURVE",
"724 567 CURVE SMOOTH",
"724 553 OFFCURVE",
"736 542 OFFCURVE",
"750 542 CURVE SMOOTH",
"755 542 OFFCURVE",
"759 544 OFFCURVE",
"764 546 CURVE",
"879 622 LINE",
"878 28 LINE SMOOTH",
"878 9 OFFCURVE",
"893 0 OFFCURVE",
"908 0 CURVE SMOOTH"
);
},
{
closed = 1;
nodes = (
"325 -5 OFFCURVE",
"335 7 OFFCURVE",
"335 24 CURVE SMOOTH",
"335 681 LINE SMOOTH",
"335 698 OFFCURVE",
"325 710 OFFCURVE",
"308 710 CURVE SMOOTH",
"291 710 OFFCURVE",
"281 698 OFFCURVE",
"281 681 CURVE SMOOTH",
"281 24 LINE SMOOTH",
"281 7 OFFCURVE",
"291 -5 OFFCURVE",
"308 -5 CURVE SMOOTH"
);
}
);
};
layerId = "9E718F8A-2CEA-4931-B05D-987794BD97DA";
paths = (
{
closed = 1;
nodes = (
"201 14 LINE",
"201 409 LINE SMOOTH",
"201 426 OFFCURVE",
"185 430 OFFCURVE",
"173 422 CURVE SMOOTH",
"83 362 LINE SMOOTH",
"66 350 OFFCURVE",
"83 323 OFFCURVE",
"98 333 CURVE SMOOTH",
"188 393 LINE",
"169 412 LINE",
"169 14 LINE"
);
},
{
closed = 1;
nodes = (
"87 30 LINE SMOOTH",
"78 30 OFFCURVE",
"72 24 OFFCURVE",
"72 15 CURVE SMOOTH",
"72 6 OFFCURVE",
"78 0 OFFCURVE",
"87 0 CURVE SMOOTH",
"283 0 LINE SMOOTH",
"292 0 OFFCURVE",
"298 6 OFFCURVE",
"298 15 CURVE SMOOTH",
"298 24 OFFCURVE",
"292 30 OFFCURVE",
"283 30 CURVE SMOOTH"
);
}
);
width = 342;
},
{
background = {
paths = (
{
closed = 1;
nodes = (
"380 -6 OFFCURVE",
"416 20 OFFCURVE",
"416 74 CURVE SMOOTH",
"416 631 LINE SMOOTH",
"416 684 OFFCURVE",
"380 710 OFFCURVE",
"335 710 CURVE SMOOTH",
"291 710 OFFCURVE",
"255 684 OFFCURVE",
"255 631 CURVE SMOOTH",
"255 74 LINE SMOOTH",
"255 20 OFFCURVE",
"291 -6 OFFCURVE",
"335 -6 CURVE SMOOTH"
);
}
);
};
layerId = "E1B555A7-F4E1-459C-9C1A-AE952106EEF9";
paths = (
{
closed = 1;
nodes = (
"250 44 LINE",
"250 379 LINE SMOOTH",
"250 422 OFFCURVE",
"207 440 OFFCURVE",
"160 412 CURVE SMOOTH",
"65 356 LINE SMOOTH",
"23 331 OFFCURVE",
"58 261 OFFCURVE",
"101 286 CURVE SMOOTH",
"196 343 LINE",
"153 346 LINE",
"153 44 LINE"
);
},
{
closed = 1;
nodes = (
"98 77 LINE SMOOTH",
"67 77 OFFCURVE",
"53 64 OFFCURVE",
"53 39 CURVE SMOOTH",
"53 14 OFFCURVE",
"67 0 OFFCURVE",
"98 0 CURVE SMOOTH",
"304 0 LINE SMOOTH",
"336 0 OFFCURVE",
"350 14 OFFCURVE",
"350 39 CURVE SMOOTH",
"350 64 OFFCURVE",
"336 77 OFFCURVE",
"304 77 CURVE SMOOTH"
);
}
);
width = 360;
}
);
userData = {
com.typemytype.robofont.layerData = {
b = {
anchors = (
);
components = (
);
contours = (
);
lib = {
};
name = one;
unicodes = (
);
width = 1160;
};
};
};
},
